<?xml version="1.0" encoding="UTF-8"?>
<svg version="1.1" xmlns="http://www.w3.org/2000/svg" width="2604" height="677" viewBox="0 0 2604 677">
<path d="M0 0 C2.26275918 -0.00274219 4.52551709 -0.00679563 6.78827184 -0.01204365 C12.9922255 -0.02261588 19.19603476 -0.01451086 25.39998209 -0.00329316 C31.40788276 0.00464673 37.41575868 -0.00152553 43.42365776 -0.00726973 C56.46609534 -0.01918196 69.50848451 -0.01412187 82.55091941 -0.00199146 C93.96404901 0.00855114 105.37716213 0.01308322 116.79029655 0.01171303 C117.92656253 0.01158698 117.92656253 0.01158698 119.08578338 0.01145839 C122.16087364 0.01110613 125.23596389 0.01072212 128.31105414 0.01029281 C157.14758932 0.00632926 185.98409537 0.01903876 214.82062221 0.03981938 C240.43351765 0.05819018 266.04638517 0.06400102 291.6592865 0.05854797 C293.30406386 0.05820154 294.94884122 0.05785544 296.59361858 0.05750968 C297.40677023 0.05733869 298.21992188 0.05716769 299.05771449 0.05699152 C303.15111956 0.05613796 307.24452464 0.05531417 311.33792973 0.05452251 C312.14551815 0.05436543 312.95310657 0.05420835 313.78516736 0.05404651 C335.1956869 0.05005562 356.60620376 0.05553314 378.01672167 0.06403381 C380.32076397 0.06494083 382.62480627 0.06584648 384.92884857 0.06674904 C386.45724756 0.06735015 387.98564655 0.06795877 389.51404553 0.06857495 C400.16451807 0.07279453 410.81498532 0.07337532 421.46545842 0.07146945 C435.19064074 0.06902557 448.91579476 0.07310574 462.64096934 0.08867946 C469.25883858 0.09601577 475.87667758 0.09999884 482.49455261 0.0954361 C488.55233577 0.09136108 494.61003816 0.09652133 500.66780906 0.10906217 C502.85943184 0.11199103 505.05106223 0.11155579 507.24268306 0.1074191 C510.22262528 0.10230504 513.20229797 0.10951016 516.18222141 0.11974621 C517.45687168 0.11315148 517.45687168 0.11315148 518.75727245 0.10642353 C526.97397434 0.16013493 534.73651357 1.20361303 541.94029236 5.3742218 C541.94029236 6.0342218 541.94029236 6.6942218 541.94029236 7.3742218 C542.66216736 7.6217218 543.38404236 7.8692218 544.12779236 8.1242218 C548.71779269 10.16422195 552.30314894 13.07151412 554.94029236 17.3742218 C554.94029236 18.3642218 554.94029236 19.3542218 554.94029236 20.3742218 C555.60029236 20.3742218 556.26029236 20.3742218 556.94029236 20.3742218 C560.90785171 29.0761861 561.51435057 36.90226507 561.45495605 46.35919189 C561.46029005 47.85331787 561.46736063 49.34743848 561.47600311 50.84154898 C561.4945444 54.92101527 561.4883551 59.00011643 561.47785008 63.07959735 C561.47083377 67.48938604 561.48687438 71.89910154 561.49984741 76.30886841 C561.52145194 84.9375103 561.52136965 93.56602012 561.51322187 102.19468015 C561.50691349 109.20996493 561.50806658 116.22521129 561.51449394 123.24049568 C561.5153956 124.24022139 561.51629725 125.23994709 561.51722623 126.26996752 C561.51907749 128.30111588 561.52094006 130.33226423 561.52281379 132.36341257 C561.53937986 151.395697 561.53068316 170.42790724 561.51382821 189.4601872 C561.49913199 206.8593353 561.51376069 224.25831069 561.54259837 241.65743654 C561.57201441 259.53917779 561.58295823 277.4208394 561.57341617 295.30260378 C561.57239366 297.32644656 561.57139905 299.35028935 561.57043266 301.37413216 C561.56995627 302.36980666 561.56947988 303.36548117 561.56898906 304.39132763 C561.56682787 311.39450088 561.57661329 318.39759846 561.59120369 325.40075493 C561.6087482 333.94068447 561.60857922 342.48039389 561.58585203 351.02031486 C561.57472917 355.37431066 561.57150278 359.72791893 561.59015274 364.08189774 C561.60703087 368.07370552 561.60050843 372.06478997 561.57593595 376.05655152 C561.57107618 377.49451243 561.57450377 378.9325325 561.58742339 380.37044358 C561.66600291 389.80254094 560.24193842 396.95343294 555.94029236 405.3742218 C555.61029236 406.0342218 555.28029236 406.6942218 554.94029236 407.3742218 C554.28029236 407.3742218 553.62029236 407.3742218 552.94029236 407.3742218 C552.94029236 408.0342218 552.94029236 408.6942218 552.94029236 409.3742218 C552.28029236 409.3742218 551.62029236 409.3742218 550.94029236 409.3742218 C550.94029236 410.0342218 550.94029236 410.6942218 550.94029236 411.3742218 C550.28029236 411.3742218 549.62029236 411.3742218 548.94029236 411.3742218 C548.94029236 412.0342218 548.94029236 412.6942218 548.94029236 413.3742218 C548.28029236 413.3742218 547.62029236 413.3742218 546.94029236 413.3742218 C546.94029236 414.0342218 546.94029236 414.6942218 546.94029236 415.3742218 C545.95029236 415.3742218 544.96029236 415.3742218 543.94029236 415.3742218 C543.94029236 416.0342218 543.94029236 416.6942218 543.94029236 417.3742218 C542.54751219 418.02661339 541.15090024 418.67082732 539.75279236 419.3117218 C538.97548767 419.67137024 538.19818298 420.03101868 537.39732361 420.40156555 C531.87302456 422.58845023 526.52410918 422.51747479 520.66972828 422.50564957 C519.72821925 422.5077022 518.78671023 422.50975483 517.81667063 422.51186967 C514.64390102 422.51754962 511.47117469 422.51608119 508.29840088 422.5146637 C506.00782302 422.51724676 503.71724561 422.52025975 501.42666882 422.5236671 C495.11799442 422.53174723 488.80933139 422.53352723 482.50065243 422.53426456 C476.40002499 422.53544097 470.29940241 422.54224041 464.19877832 422.54834298 C447.85355128 422.56440315 431.50832517 422.5703062 415.16309166 422.57509173 C407.43107186 422.57742757 399.69905281 422.5810302 391.96703359 422.5847871 C365.50054429 422.59762238 339.0340554 422.60834178 312.56756306 422.6117897 C310.90614828 422.61201134 309.2447335 422.61223312 307.58331872 422.61245506 C305.91788843 422.6126757 304.25245814 422.61289618 302.58702785 422.6131165 C299.24587969 422.61355906 295.90473153 422.61400617 292.56358337 422.61445618 C291.73517286 422.61456557 290.90676234 422.61467496 290.05324848 422.61478766 C263.18954304 422.61841863 236.32586458 422.63434028 209.46216947 422.65764654 C181.06149439 422.68224121 152.66083474 422.69596237 124.2601487 422.69715762 C121.14262179 422.69732908 118.02509489 422.6975445 114.90756798 422.69779205 C114.13994304 422.69784782 113.37231811 422.69790359 112.58143181 422.69796105 C100.22711672 422.69911178 87.87282932 422.71013566 75.51852358 422.72467911 C63.1014513 422.73904373 50.68441453 422.74228128 38.26733623 422.73423913 C31.54011609 422.73017503 24.81299469 422.73129127 18.08578491 422.74529648 C11.92781589 422.75799952 5.77001041 422.75686941 -0.38795827 422.74470577 C-2.61610275 422.74274254 -4.84425868 422.74585593 -7.07238706 422.75455013 C-10.10176907 422.76562275 -13.13057187 422.75816758 -16.15993786 422.7461586 C-17.02425455 422.75375379 -17.88857124 422.76134899 -18.77907935 422.76917434 C-28.78334448 422.68360441 -37.31928126 419.7378925 -45.05970764 413.3742218 C-46.88194464 411.45420623 -48.44435947 409.47906942 -50.05970764 407.3742218 C-50.71970764 407.0442218 -51.37970764 406.7142218 -52.05970764 406.3742218 C-57.1577089 397.56931527 -57.77669888 389.12245639 -57.68789673 379.17288208 C-57.69295152 377.66750375 -57.70018752 376.16213145 -57.70939487 374.65677279 C-57.72821111 370.55088214 -57.71614421 366.44559235 -57.69867194 362.33971751 C-57.68524408 357.90001096 -57.70075421 353.46038922 -57.7124939 349.02069092 C-57.7308332 340.33633669 -57.7223836 331.65220808 -57.70440567 322.96786097 C-57.69035916 315.9091882 -57.68649128 308.85057651 -57.68984795 301.7918911 C-57.69032539 300.78588399 -57.69080283 299.77987689 -57.69129474 298.74338472 C-57.6923211 296.69950669 -57.69337646 294.65562868 -57.6944605 292.61175068 C-57.70301972 274.55637374 -57.68637639 256.5011055 -57.65663147 238.445755 C-57.6277831 220.93431536 -57.62071764 203.42303222 -57.63612366 185.91157532 C-57.65288983 166.82801608 -57.65691676 147.74453109 -57.6394133 128.66096991 C-57.63756896 126.62568169 -57.63573423 124.59039345 -57.63390923 122.55510521 C-57.63299714 121.55377533 -57.63208505 120.55244546 -57.63114532 119.52077225 C-57.62554351 112.47061044 -57.62884367 105.42048493 -57.63545418 98.37032509 C-57.64319045 89.77874567 -57.63642374 81.18732024 -57.61127914 72.59577183 C-57.59879246 68.21384502 -57.59262758 63.83215785 -57.6038208 59.45022202 C-57.61387988 55.43648414 -57.60536839 51.42322362 -57.58223962 47.40954372 C-57.57709111 45.96023096 -57.57862273 44.51087524 -57.58763427 43.06158135 C-57.63403234 34.92024864 -57.21111091 28.48564896 -53.05970764 21.3742218 C-52.59306702 20.50668274 -52.12642639 19.63914368 -51.64564514 18.74531555 C-51.24603577 18.10722961 -50.84642639 17.46914368 -50.43470764 16.8117218 C-50.02994202 16.15043274 -49.62517639 15.48914368 -49.20814514 14.80781555 C-48.82916077 14.33472961 -48.45017639 13.86164368 -48.05970764 13.3742218 C-47.39970764 13.3742218 -46.73970764 13.3742218 -46.05970764 13.3742218 C-46.05970764 12.7142218 -46.05970764 12.0542218 -46.05970764 11.3742218 C-45.39970764 11.3742218 -44.73970764 11.3742218 -44.05970764 11.3742218 C-44.05970764 10.7142218 -44.05970764 10.0542218 -44.05970764 9.3742218 C-42.4648335 8.42099915 -40.85806292 7.48768197 -39.24720764 6.5617218 C-38.35388733 6.03965149 -37.46056702 5.51758118 -36.54017639 4.97969055 C-24.62981869 -0.51431283 -12.85378708 -0.04687734 0 0 Z " fill="#FEFEFE" transform="translate(2025.0597076416016,14.625778198242188)"/>
<path d="M0 0 C26.73 0 53.46 0 81 0 C81.33 58.41 81.66 116.82 82 177 C83.98 174.03 85.96 171.06 88 168 C94.31578947 162 94.31578947 162 97 162 C97.33 161.01 97.66 160.02 98 159 C118.25935735 143.01302413 145.44892531 140.48099034 170.20703125 142.5 C187.65297987 144.7997749 203.40536103 151.27024068 218 161 C218 161.66 218 162.32 218 163 C219.32 163.33 220.64 163.66 222 164 C222 164.66 222 165.32 222 166 C222.99 166 223.98 166 225 166 C250.69011851 192.1794541 251.33489184 223.7661141 251.20278788 258.19655776 C251.1901114 262.06953312 251.18909692 265.94251308 251.18673706 269.81550598 C251.18057119 277.11767505 251.16422814 284.41978278 251.14403808 291.72192508 C251.11729846 301.61184153 251.10666681 311.50177527 251.09503365 321.39171886 C251.07634279 336.92785834 251.03646504 352.4638685 251 368 C223.94 368 196.88 368 169 368 C168.96261719 359.02941406 168.92523437 350.05882812 168.88671875 340.81640625 C168.85255465 334.3788402 168.81655468 327.94130471 168.77792263 321.50376606 C168.72823423 313.18343552 168.68274934 304.86315506 168.65356445 296.54272461 C168.63042791 289.95062608 168.5968591 283.35867273 168.55129844 276.76668972 C168.52757467 273.28353645 168.50871075 269.80052508 168.50238609 266.31729317 C169.12387417 234.46190387 169.12387417 234.46190387 153.75 207.75 C143.85321197 201.45204398 132.65216814 199.50703077 121.125 201.49609375 C112.14440086 203.75400007 104.29624629 207.13136769 98 214 C97.01 214.33 96.02 214.66 95 215 C94.67 215.99 94.34 216.98 94 218 C93.01919916 219.01883743 92.01734423 220.01765041 91 221 C79.51743696 236.01012159 81.39637145 258.29092585 81.390625 276.0078125 C81.37561521 278.67254246 81.35907237 281.33721951 81.34051514 284.00192261 C81.3003148 290.24869786 81.2797003 296.49536972 81.26654124 302.74225414 C81.24897178 310.56915235 81.20451154 318.39587188 81.16015625 326.22265625 C81.08135335 340.14843213 81.04247038 354.07396091 81 368 C54.27 368 27.54 368 0 368 C0 246.56 0 125.12 0 0 Z " fill="#FFFFFF" transform="translate(1103,55)"/>
<path d="M0 0 C1.87189575 0.94368298 3.74685408 1.88131841 5.625 2.8125 C7.08333333 3.54166667 8.54166667 4.27083333 10 5 C10 5.66 10 6.32 10 7 C10.99 7 11.98 7 13 7 C13 7.66 13 8.32 13 9 C13.5671875 9.25136719 14.134375 9.50273437 14.71875 9.76171875 C17.3201915 11.17380258 19.29584509 12.8385736 21.5 14.8125 C22.2528125 15.47894531 23.005625 16.14539063 23.78125 16.83203125 C26 19 26 19 30 24 C30.33 15.09 30.66 6.18 31 -3 C57.4 -3 83.8 -3 111 -3 C111 69.27 111 141.54 111 216 C84.93 216 58.86 216 32 216 C31.67 205.44 31.34 194.88 31 184 C30.01 185.65 29.02 187.3 28 189 C27.34 189 26.68 189 26 189 C25.71125 189.598125 25.4225 190.19625 25.125 190.8125 C24 193 24 193 22 196 C21.34 196 20.68 196 20 196 C19.9175 196.598125 19.835 197.19625 19.75 197.8125 C18.78423221 200.62932273 17.51131433 201.47799132 15 203 C14.34 203 13.68 203 13 203 C12.67 203.99 12.34 204.98 12 206 C6.74285714 210 6.74285714 210 3 210 C3 210.66 3 211.32 3 212 C-21.49827651 223.59758835 -48.27338138 227.49222776 -74.8203125 220.16796875 C-78.0222357 218.99183234 -80.95615414 217.5323044 -84 216 C-85.55118914 215.5430212 -87.1142304 215.12395203 -88.6875 214.75 C-94.87166636 212.97379583 -99.76724324 209.66135833 -105 206 C-105.73476562 205.50242187 -106.46953125 205.00484375 -107.2265625 204.4921875 C-111.46869224 201.49485259 -114.82528982 198.1824437 -118.1484375 194.19921875 C-120.21294879 191.74706715 -122.38323978 189.41303987 -124.5625 187.0625 C-145.62168563 163.58026086 -153.52448589 130.62549332 -152.16845703 99.71484375 C-151.31030364 85.88489344 -149.10234049 72.89968576 -144 60 C-143.59652344 58.92234375 -143.19304687 57.8446875 -142.77734375 56.734375 C-140.5634935 51.06805732 -138.00443074 46.1310697 -134.48046875 41.17578125 C-132.43739549 38.17316435 -130.8118364 34.9883772 -129.17578125 31.75 C-128 30 -128 30 -125 29 C-123.89163577 27.11683841 -123.89163577 27.11683841 -123 25 C-122.34 24.01 -121.68 23.02 -121 22 C-120.34 22 -119.68 22 -119 22 C-118.79375 21.443125 -118.5875 20.88625 -118.375 20.3125 C-116.42316968 17.02987629 -114.05769006 15.29326754 -111 13 C-110.34 13 -109.68 13 -109 13 C-109 12.34 -109 11.68 -109 11 C-107.68 10.67 -106.36 10.34 -105 10 C-105 9.34 -105 8.68 -105 8 C-75.74419491 -12.9826471 -31.78802312 -17.29185622 0 0 Z M-46 60 C-46.99 60.53625 -47.98 61.0725 -49 61.625 C-49.66 62.07875 -50.32 62.5325 -51 63 C-51 63.66 -51 64.32 -51 65 C-51.53625 65.226875 -52.0725 65.45375 -52.625 65.6875 C-58.69422692 69.04154645 -61.74946554 72.61541144 -64.6875 78.875 C-65.24824219 80.04804688 -65.80898437 81.22109375 -66.38671875 82.4296875 C-66.91910156 83.60789062 -67.45148438 84.78609375 -68 86 C-68.54785156 87.13179687 -69.09570312 88.26359375 -69.66015625 89.4296875 C-71.18717988 93.49878254 -71.5925235 96.94531628 -71.75 101.25 C-71.7823877 101.99652832 -71.81477539 102.74305664 -71.84814453 103.51220703 C-72.2371809 114.3003952 -71.22210189 122.38751479 -66 132 C-65.27490234 133.37865234 -65.27490234 133.37865234 -64.53515625 134.78515625 C-58.09585637 145.979147 -47.83670535 154.30289237 -35.48046875 158.07421875 C-30.20001076 159.34956812 -24.96987059 159.33011358 -19.5625 159.3125 C-18.08426758 159.33666992 -18.08426758 159.33666992 -16.57617188 159.36132812 C-2.76104016 159.37048328 6.70812898 153.66059257 16.671875 144.4609375 C20.23513937 140.69439966 22.63071339 136.58260138 25 132 C25.40089844 131.29746094 25.80179688 130.59492188 26.21484375 129.87109375 C32.02992467 119.29633806 31.49976291 102.74902531 28.6875 91.1875 C26.33941752 83.71632846 22.67845382 76.28784194 18 70 C16.515 69.505 16.515 69.505 15 69 C14.505 67.515 14.505 67.515 14 66 C13.34 66 12.68 66 12 66 C12 65.34 12 64.68 12 64 C-4.79425235 50.90048316 -27.50383017 49.09423949 -46 60 Z " fill="#FFFFFF" transform="translate(1546,207)"/>
<path d="M0 0 C3.73556129 3.56261864 6.85388161 7.35036188 10.25 11.3125 C10.58 3.0625 10.91 -5.1875 11.25 -13.6875 C34.68 -13.6875 58.11 -13.6875 82.25 -13.6875 C82.25 50.6625 82.25 115.0125 82.25 181.3125 C59.15 181.3125 36.05 181.3125 12.25 181.3125 C11.92 171.7425 11.59 162.1725 11.25 152.3125 C8.61 155.6125 5.97 158.9125 3.25 162.3125 C-4.01538679 170.083305 -12.25185225 175.66707407 -21.75 180.3125 C-22.90886719 180.91578125 -24.06773437 181.5190625 -25.26171875 182.140625 C-41.3316729 189.60817813 -66.74798117 189.33879029 -83.38964844 183.57373047 C-85.19697558 182.87066975 -86.97447119 182.09238668 -88.75 181.3125 C-89.95785156 180.80460938 -91.16570313 180.29671875 -92.41015625 179.7734375 C-116.06479655 168.91135022 -132.68958594 149.04428456 -142.01489258 125.0793457 C-152.63799663 96.34533396 -152.11907598 63.31572961 -139.64013672 35.15869141 C-137.12483722 29.94182503 -134.02183562 25.08421762 -130.75 20.3125 C-130.21761719 19.53390625 -129.68523438 18.7553125 -129.13671875 17.953125 C-128.67910156 17.41171875 -128.22148437 16.8703125 -127.75 16.3125 C-127.09 16.3125 -126.43 16.3125 -125.75 16.3125 C-125.481875 15.72984375 -125.21375 15.1471875 -124.9375 14.546875 C-116.99184652 -0.40349932 -98.33252958 -10.25297337 -82.91796875 -15.72265625 C-54.80178512 -24.28578493 -22.305766 -19.50084932 0 0 Z " fill="#2257A6" transform="translate(2308.75,200.6875)"/>
<path d="M0 0 C82.17 0 164.34 0 249 0 C249 23.1 249 46.2 249 70 C221.28 70 193.56 70 165 70 C165 163.39 165 256.78 165 353 C138.27 353 111.54 353 84 353 C84 259.61 84 166.22 84 70 C56.28 70 28.56 70 0 70 C0 46.9 0 23.8 0 0 Z " fill="#FFFFFF" transform="translate(33,70)"/>
<path d="M0 0 C81.84 0 163.68 0 248 0 C248 23.1 248 46.2 248 70 C220.28 70 192.56 70 164 70 C164 163.39 164 256.78 164 353 C137.27 353 110.54 353 83 353 C83 259.61 83 166.22 83 70 C55.61 70 28.22 70 0 70 C0 46.9 0 23.8 0 0 Z " fill="#FFFFFF" transform="translate(809,70)"/>
<path d="M0 0 C27.06 0 54.12 0 82 0 C83.98 5.61 85.96 11.22 88 17 C89.51640166 20.83995471 89.51640166 20.83995471 91.0625 24.66796875 C93.34598951 30.3481489 95.53108068 36.08506502 97.125 42 C97.87935271 45.14352868 97.87935271 45.14352868 100 48 C100.60877888 49.79748457 101.16332146 51.61354842 101.6875 53.4375 C103.7227864 60.26259576 106.05078217 66.96259176 108.44995117 73.66772461 C109.93644561 77.84993002 111.32885956 82.03323017 112.578125 86.29296875 C113.58039423 89.69301757 114.71162228 92.89618447 116.1875 96.125 C119.24881737 103.2527058 121.56436826 110.60914794 123.97167969 117.97827148 C126.33063716 125.14307274 128.93132759 132.12932159 131.87109375 139.07421875 C132.89741283 141.73412529 133.54683489 144.19245982 134 147 C136.93308197 141.23497681 139.8487503 135.50000466 141.875 129.33984375 C143.25607092 125.23978946 144.80342171 121.21766174 146.375 117.1875 C146.84462158 115.9794873 146.84462158 115.9794873 147.32373047 114.74707031 C148.8398857 110.87218939 150.38166176 107.02961445 152.125 103.25 C154.32007473 98.47688005 155.97017847 93.52044479 157.70703125 88.56640625 C159.28840412 84.20449258 161.06395115 79.94460088 162.87890625 75.67578125 C163.83108797 73.40315241 164.71809923 71.12661455 165.5625 68.8125 C166.5614307 66.08915821 167.67428561 63.45311491 168.875 60.8125 C170.93894407 56.23457894 172.72373004 51.57181881 174.5078125 46.87890625 C176.3315954 42.10832769 178.22867741 37.36710769 180.125 32.625 C180.63015137 31.35885864 180.63015137 31.35885864 181.14550781 30.06713867 C183.03466174 25.34939251 184.99804505 20.67122822 187 16 C188.33089443 12.70155129 189.62991971 9.39047351 190.92578125 6.078125 C192.89179298 1.10820702 192.89179298 1.10820702 194 0 C196.46444057 -0.09500548 198.90074626 -0.12557985 201.36547852 -0.11352539 C202.13615662 -0.11367142 202.90683472 -0.11381744 203.7008667 -0.1139679 C206.26024139 -0.1132686 208.8195442 -0.10547545 211.37890625 -0.09765625 C213.14867615 -0.09579213 214.91844656 -0.0943682 216.68821716 -0.09336853 C221.35551366 -0.08954288 226.02277923 -0.0797122 230.69006348 -0.06866455 C235.44897035 -0.05845144 240.20788221 -0.05387113 244.96679688 -0.04882812 C254.31121153 -0.03808997 263.6556032 -0.02101299 273 0 C272.26575169 3.93216931 271.1681637 7.36358336 269.625 11.0625 C268.99464844 12.59583984 268.99464844 12.59583984 268.3515625 14.16015625 C267 17 267 17 265.4453125 19.0703125 C263.80190279 21.26448654 263.09747524 23.2101114 262.25 25.8125 C259.08225202 34.89095016 254.80045127 43.50548591 250.4375 52.0625 C247.83771702 57.1850987 245.63815458 62.46452015 243.40625 67.75390625 C242.32454632 70.25083891 241.19942985 72.65567411 239.9375 75.0625 C237.70394221 79.37271275 236.09705502 83.90357676 234.44140625 88.4609375 C232.91886928 92.19919899 231.15353132 95.74003172 229.3269043 99.33642578 C227.12903301 103.74834403 225.13832423 108.25166526 223.125 112.75 C220.2520442 119.13512015 217.31953669 125.4567765 214.125 131.6875 C211.62021593 136.58535242 209.60857231 141.46018596 207.921875 146.6953125 C206.93071981 149.17320047 205.6114813 150.88623882 204 153 C203.34287156 154.4564112 202.74103771 155.93865131 202.1875 157.4375 C200.1770811 162.65538113 197.8739086 167.70051476 195.5078125 172.765625 C194.12627266 175.72913534 192.77714868 178.70488596 191.4375 181.6875 C189.86123042 185.17853294 188.19523846 188.59706122 186.4375 192 C184.7506083 195.32171883 183.38729428 198.59928874 182.1875 202.125 C179.98322713 208.45891061 176.93333078 214.29802051 173.890625 220.2578125 C172.08135452 223.80731086 170.43618805 227.40792333 168.859375 231.06640625 C167.97217197 233.06261306 166.99983849 234.995506 166 236.9375 C164.06670249 240.72827944 162.52563167 244.6250386 161.02734375 248.60546875 C160 251 160 251 158.52734375 253.4140625 C156.84458147 256.26313828 155.75339927 259.07872216 154.625 262.1875 C152.75372201 267.17757464 150.63542186 271.87401341 148.1875 276.6015625 C146.58537856 279.8374262 145.28659485 283.16340266 143.98046875 286.52734375 C142.44255813 290.40581954 140.72481751 294.20173166 139 298 C138.34 298 137.68 298 137 298 C136.608125 299.2375 136.21625 300.475 135.8125 301.75 C132.38867566 311.97347547 127.83307762 321.33384476 123 331 C96.27 331 69.54 331 42 331 C42.91687086 326.4156457 44.34131131 322.6443646 46.25 318.4375 C46.88238104 317.01991931 47.51388262 315.60194599 48.14453125 314.18359375 C48.61366943 313.13147705 48.61366943 313.13147705 49.09228516 312.05810547 C51.14367667 307.40688695 53.06768459 302.70167068 55 298 C55.66 298 56.32 298 57 298 C57.226875 297.05125 57.45375 296.1025 57.6875 295.125 C58.84614759 291.05341447 60.70479653 287.48691815 62.64453125 283.73828125 C64.06481048 280.86907162 65.29343588 277.96502664 66.5 275 C68.02434984 271.26057931 69.64102874 267.64682897 71.5 264.0625 C73.39841158 260.36590354 74.93296649 256.64726049 76.375 252.75 C78.64753275 246.67079566 81.40956562 241.00814381 84.35546875 235.23828125 C88.91309672 226.99638764 88.91309672 226.99638764 91 218 C89.75322937 215.53188648 89.75322937 215.53188648 88 213 C85.38086809 207.53398558 83.72275967 201.91068186 82.0625 196.0859375 C81.01812229 193.05263461 79.67018893 190.72369272 78 188 C77.16732238 185.97471314 76.37780287 183.93131387 75.625 181.875 C74.04848176 177.67409809 72.39611591 173.56651274 70.5 169.5 C68.16703766 164.48413097 66.20497852 159.36962956 64.25390625 154.1953125 C62.71657519 150.27775235 60.95658539 146.4889379 59.1796875 142.67578125 C58.00194334 140.00440791 57.01737832 137.32059896 56.0625 134.5625 C54.66002543 130.57562673 52.99782888 126.8821053 51.0625 123.125 C48.36271104 117.88183302 46.21224037 112.55673217 44.15234375 107.03515625 C42.30845498 102.17854076 40.14473011 97.48024857 37.96875 92.765625 C36.33566196 89.17778005 34.82775587 85.63097447 33.625 81.875 C31.45356051 75.11285421 28.68415493 68.57076938 26 62 C25.57460938 60.95199219 25.14921875 59.90398437 24.7109375 58.82421875 C22.59616708 53.67372949 20.3661614 48.60266523 18 43.5625 C15.46678352 38.14621106 13.312904 32.65252224 11.21875 27.0546875 C10.09763489 24.24471308 8.84047666 21.61513229 7.4375 18.9375 C5.00811445 14.27032082 3.37293551 9.48113917 1.796875 4.46875 C1.07887952 2.03205686 1.07887952 2.03205686 0 0 Z " fill="#FFFFFF" transform="translate(523,204)"/>
<path d="M0 0 C26.4 0 52.8 0 80 0 C80 29.7 80 59.4 80 90 C96.5 90 113 90 130 90 C130 111.78 130 133.56 130 156 C113.5 156 97 156 80 156 C80.06204348 168.27756513 80.06204348 168.27756513 80.16015625 180.5546875 C80.20823299 185.57291833 80.2523732 190.59093712 80.27099609 195.609375 C80.2863056 199.66211946 80.32099787 203.71430349 80.36830902 207.76679611 C80.3829773 209.30143699 80.3910325 210.83615794 80.39188385 212.37086868 C80.28180453 229.22484593 80.28180453 229.22484593 87.51690674 243.80996704 C92.21616405 247.95460734 95.46948475 248.31120027 101.59375 248.203125 C104.36314701 247.96934473 106.50704166 247.20870708 109 246 C109.99 246 110.98 246 112 246 C112 245.34 112 244.68 112 244 C113.98 243.01 115.96 242.02 118 241 C129.5625 264.125 129.5625 264.125 131.27734375 267.56640625 C132.44460761 269.8929934 133.62472197 272.21316976 134.81640625 274.52734375 C145.33037134 295.07839863 145.33037134 295.07839863 144.76928711 300.0402832 C143.52533122 303.20919272 141.21275283 303.74667043 138.24267578 305.09814453 C132.5166896 307.40075644 126.54761975 308.83013247 120.57324219 310.33691406 C118.01820871 310.99530789 115.48406887 311.71142898 112.9453125 312.4296875 C91.15448554 318.23158574 63.11237259 320.0717226 42 311 C41.01 310.34 40.02 309.68 39 309 C37.65359955 308.59800723 36.29817179 308.22566315 34.9375 307.875 C26.20356284 305.05851864 19.4465436 298.16650474 14 291 C14 290.34 14 289.68 14 289 C13.34 289 12.68 289 12 289 C0.78425348 270.00800256 -0.3054589 251.99709737 -0.1953125 230.51171875 C-0.19157539 228.35553622 -0.18873172 226.19935196 -0.18673706 224.04316711 C-0.17915557 218.40934435 -0.15955507 212.77562718 -0.1373291 207.1418457 C-0.1167516 201.37647937 -0.10771005 195.61109572 -0.09765625 189.84570312 C-0.07630326 178.56374859 -0.04116673 167.28189965 0 156 C-12.54 156 -25.08 156 -38 156 C-38 134.22 -38 112.44 -38 90 C-25.46 90 -12.92 90 0 90 C0 60.3 0 30.6 0 0 Z " fill="#FFFFFF" transform="translate(1733,114)"/>
<path d="M0 0 C1.134375 0.515625 2.26875 1.03125 3.4375 1.5625 C6 3 6 3 8 6 C7.54109375 6.89460937 7.0821875 7.78921875 6.609375 8.7109375 C2.55448973 16.62033532 2.55448973 16.62033532 -0.875 24.8125 C-3.00415901 30.40967783 -5.88027713 35.59900579 -8.73974609 40.84887695 C-11.07719211 45.15857436 -13.11244439 49.47533772 -15 54 C-15.65129797 55.34090759 -16.31513275 56.67592331 -17 58 C-18.83176782 61.60717355 -20.44415336 65.26596807 -22 69 C-26.75108933 69 -27.50471102 67.95755221 -31 65 C-31.99 64.67 -32.98 64.34 -34 64 C-34 63.34 -34 62.68 -34 62 C-34.69867188 61.79503906 -35.39734375 61.59007812 -36.1171875 61.37890625 C-37.02726563 61.10949219 -37.93734375 60.84007812 -38.875 60.5625 C-39.77992188 60.29566406 -40.68484375 60.02882813 -41.6171875 59.75390625 C-44 59 -44 59 -46 58 C-62.54245885 56.25961379 -76.40587924 56.43235666 -89.87890625 67.15625 C-93.17250315 70.01919243 -96.03127524 73.06255048 -98 77 C-98.66 77 -99.32 77 -100 77 C-100.12375 77.928125 -100.2475 78.85625 -100.375 79.8125 C-101 83 -101 83 -103 86 C-103.57559839 87.50096232 -104.09130417 89.02556282 -104.5625 90.5625 C-104.81128906 91.34753906 -105.06007813 92.13257813 -105.31640625 92.94140625 C-107.10601943 100.94864692 -107.15838996 109.15417397 -107.20532227 117.32470703 C-107.21522186 118.40881363 -107.22512146 119.49292023 -107.23532104 120.60987854 C-107.26666756 124.15916837 -107.29158627 127.70847155 -107.31640625 131.2578125 C-107.33699902 133.73217091 -107.35799607 136.20652598 -107.37937927 138.68087769 C-107.43436017 145.16790045 -107.48387445 151.6549537 -107.53222656 158.14202881 C-107.59148982 165.93909008 -107.65758483 173.73609591 -107.72252655 181.53311157 C-107.82023395 193.35537375 -107.90929654 205.17767267 -108 217 C-134.73 217 -161.46 217 -189 217 C-189 144.73 -189 72.46 -189 -2 C-162.27 -2 -135.54 -2 -108 -2 C-107.67 6.58 -107.34 15.16 -107 24 C-105.68 22.02 -104.36 20.04 -103 18 C-102.34 18 -101.68 18 -101 18 C-100.505 16.515 -100.505 16.515 -100 15 C-99.34 15 -98.68 15 -98 15 C-97.505 13.515 -97.505 13.515 -97 12 C-94.56640625 9.95703125 -94.56640625 9.95703125 -91.5625 7.8125 C-90.57378906 7.09707031 -89.58507812 6.38164062 -88.56640625 5.64453125 C-86 4 -86 4 -84 4 C-84 3.34 -84 2.68 -84 2 C-77.43503799 -1.10455213 -70.93122835 -3.83945495 -64 -6 C-63.05898438 -6.34289062 -62.11796875 -6.68578125 -61.1484375 -7.0390625 C-41.61752743 -13.00010949 -17.86286889 -8.64332366 0 0 Z " fill="#FFFFFF" transform="translate(512,206)"/>
<path d="M0 0 C23.43 0 46.86 0 71 0 C71 64.02 71 128.04 71 194 C47.57 194 24.14 194 0 194 C0 129.98 0 65.96 0 0 Z " fill="#2157A6" transform="translate(2444,187)"/>
<path d="M0 0 C8.57389667 6.19981946 12.23294549 14.02325566 14.25 24.3125 C15.93183741 40.16982413 11.99702651 57.36011558 2.109375 70.0625 C-0.09425167 72.58093048 -2.36535536 74.96564022 -4.75 77.3125 C-5.3378125 77.89902344 -5.925625 78.48554687 -6.53125 79.08984375 C-16.43781366 88.27210677 -28.41587472 90.93393778 -41.51171875 90.625 C-50.8394116 90.12741247 -57.72775191 86.2039513 -64.75 80.3125 C-64.78085693 80.93801758 -64.81171387 81.56353516 -64.84350586 82.20800781 C-65.52561873 92.62540224 -67.46424232 102.80389712 -69.3125 113.0625 C-69.64568243 114.9348069 -69.97836863 116.80720218 -70.31054688 118.6796875 C-71.11707148 123.22518777 -71.93373507 127.76869627 -72.75 132.3125 C-81.33 132.3125 -89.91 132.3125 -98.75 132.3125 C-98.18835088 123.7056725 -97.24014297 115.35501783 -95.72460938 106.86865234 C-95.52124466 105.70114441 -95.31787994 104.53363647 -95.10835266 103.33074951 C-94.44279799 99.51890362 -93.76845229 95.70867394 -93.09375 91.8984375 C-92.6256314 89.2339705 -92.15924311 86.56920129 -91.69274902 83.90444946 C-90.71843832 78.34457792 -89.73948017 72.78554155 -88.75732422 67.22705078 C-87.62239505 60.80379566 -86.49339911 54.37952071 -85.36784315 47.9546169 C-84.16577824 41.09302962 -82.96019652 34.23206422 -81.75316048 27.37134981 C-81.40645263 25.39958987 -81.06031882 23.42772982 -80.71427917 21.45585251 C-80.07036975 17.79094329 -79.42337073 14.12659373 -78.77539062 10.46240234 C-78.58419144 9.37152313 -78.39299225 8.28064392 -78.19599915 7.15670776 C-78.01937241 6.16167236 -77.84274567 5.16663696 -77.6607666 4.14144897 C-77.50812599 3.27617773 -77.35548538 2.41090649 -77.1982193 1.5194149 C-76.75 -0.6875 -76.75 -0.6875 -75.75 -3.6875 C-67.17 -3.6875 -58.59 -3.6875 -49.75 -3.6875 C-49.75 -1.0475 -49.75 1.5925 -49.75 4.3125 C-49.193125 3.91417969 -48.63625 3.51585937 -48.0625 3.10546875 C-33.45522315 -7.0357319 -15.70487735 -9.59016637 0 0 Z M-52.27734375 29.0234375 C-57.32035049 36.86216946 -58.85785243 45.09841024 -57.75 54.3125 C-56.10983295 59.06035199 -53.59402937 62.09424285 -49.75 65.3125 C-43.48478931 68.17270488 -38.05859437 67.98431081 -31.6875 65.625 C-23.21372419 61.92012676 -18.77553048 56.47607579 -14.75 48.3125 C-12.25177423 41.78142405 -11.79167735 35.28834402 -13.9375 28.625 C-16.5620065 23.82848812 -19.64935885 20.38548785 -24.75 18.3125 C-36.00849268 16.74423489 -45.18514644 20.07016713 -52.27734375 29.0234375 Z " fill="#FF7E27" transform="translate(2576.75,537.6875)"/>
<path d="M0 0 C8.13462031 5.86783017 12.28483912 13.53085654 14.25 23.3125 C16.14851523 39.66580499 12.31177513 56.94105572 2.109375 70.06640625 C-0.09519708 72.58216793 -2.36632357 74.96659309 -4.75 77.3125 C-5.3378125 77.89902344 -5.925625 78.48554687 -6.53125 79.08984375 C-16.4382075 88.27247181 -28.41267602 90.92813451 -41.5078125 90.62890625 C-48.73884504 90.24468731 -54.5787892 87.93481319 -60.40576172 83.72729492 C-61.03296112 83.27553391 -61.66016052 82.82377289 -62.30636597 82.35832214 C-62.7827652 82.01320084 -63.25916443 81.66807953 -63.75 81.3125 C-63.897006 82.1824057 -63.897006 82.1824057 -64.04698181 83.06988525 C-65.06712289 89.10468905 -66.08944557 95.13912036 -67.11303711 101.17333984 C-67.49478241 103.42552357 -67.87597096 105.67780175 -68.2565918 107.93017578 C-68.80371166 111.16724221 -69.35283143 114.40396396 -69.90234375 117.640625 C-70.0721727 118.64804749 -70.24200165 119.65546997 -70.41697693 120.69342041 C-70.57706741 121.63409363 -70.7371579 122.57476685 -70.90209961 123.54394531 C-71.04199814 124.37001282 -71.18189667 125.19608032 -71.32603455 126.04718018 C-71.72002324 128.15232906 -72.23056145 130.2347458 -72.75 132.3125 C-81.33 132.3125 -89.91 132.3125 -98.75 132.3125 C-97.62498856 118.81236275 -97.62498856 118.81236275 -96.8392334 114.34069824 C-96.57429329 112.81007751 -96.57429329 112.81007751 -96.30400085 111.24853516 C-96.11280167 110.17587402 -95.92160248 109.10321289 -95.72460938 107.99804688 C-95.52124466 106.83229126 -95.31787994 105.66653564 -95.10835266 104.4654541 C-94.44195297 100.65313237 -93.76797677 96.84219457 -93.09375 93.03125 C-92.62575809 90.36772731 -92.15929216 87.70393792 -91.69274902 85.04016113 C-90.71782819 79.47861852 -89.73896533 73.91778208 -88.75732422 68.35742188 C-87.49815524 61.22495334 -86.24530172 54.09139079 -84.99449921 46.95745087 C-83.91595036 40.80607634 -82.83484494 34.6551516 -81.75316048 28.50432777 C-81.40666947 26.53363579 -81.06047414 24.56289183 -80.71427917 22.59214783 C-80.06954661 18.92508648 -79.42280807 15.25838504 -78.77539062 11.59179688 C-78.58419144 10.50294189 -78.39299225 9.41408691 -78.19599915 8.29223633 C-78.01937241 7.2943811 -77.84274567 6.29652588 -77.6607666 5.26843262 C-77.50812599 4.40278435 -77.35548538 3.53713608 -77.1982193 2.64525604 C-76.78962738 0.51874058 -76.2751899 -1.58674039 -75.75 -3.6875 C-67.17 -3.6875 -58.59 -3.6875 -49.75 -3.6875 C-49.75 -1.0475 -49.75 1.5925 -49.75 4.3125 C-49.193125 3.91417969 -48.63625 3.51585937 -48.0625 3.10546875 C-33.50643501 -7.00017772 -15.62172435 -9.55528806 0 0 Z M-50.125 26.625 C-56.79136293 35.27427541 -58.5329776 43.51030906 -57.75 54.3125 C-55.79196358 60.29538905 -51.79120289 63.67492921 -46.3125 66.625 C-39.02508614 68.58015982 -33.25036375 66.64655753 -26.75 63.3125 C-19.40311912 58.94486609 -15.5732653 51.21065341 -13.1015625 43.21484375 C-11.89415186 36.68141062 -12.47810186 31.17935184 -15.75 25.3125 C-19.21578457 21.31351781 -22.10715268 18.68063856 -27.4140625 17.94140625 C-36.57263679 17.73600287 -43.78680223 19.71636443 -50.125 26.625 Z " fill="#FF7E27" transform="translate(2056.75,537.6875)"/>
<path d="M0 0 C5.0868441 4.31859639 8.94227 8.65119411 11.1015625 15.01171875 C11.45476563 16.04941406 11.80796875 17.08710937 12.171875 18.15625 C15.86295333 33.46336896 12.97156822 49.91459568 5.56640625 63.64453125 C-2.63605936 76.89971568 -13.04091036 84.72587637 -27.73828125 89.625 C-36.33289231 91.16363742 -48.17411312 91.52795679 -55.8984375 87.01171875 C-58.74694604 84.84646732 -61.36248371 82.53385263 -63.8984375 80.01171875 C-65.43835193 85.86154382 -66.60506786 91.68989643 -67.58984375 97.65625 C-67.7400145 98.54785324 -67.89018524 99.43945648 -68.04490662 100.358078 C-68.51990992 103.17963255 -68.99082341 106.00184578 -69.4609375 108.82421875 C-69.93490131 111.66439458 -70.40981477 114.50439572 -70.88768005 117.34391785 C-71.18385993 119.10419562 -71.47777878 120.86485568 -71.7691803 122.62593079 C-71.90279465 123.42073349 -72.036409 124.21553619 -72.17407227 125.03442383 C-72.29017349 125.73199295 -72.40627472 126.42956207 -72.52589417 127.14826965 C-72.8984375 129.01171875 -72.8984375 129.01171875 -73.8984375 132.01171875 C-82.4784375 132.01171875 -91.0584375 132.01171875 -99.8984375 132.01171875 C-98.7734375 120.76171875 -98.7734375 120.76171875 -97.94297791 116.02572632 C-97.75649185 114.95179626 -97.5700058 113.87786621 -97.37786865 112.77139282 C-97.17574768 111.62915253 -96.97362671 110.48691223 -96.76538086 109.31005859 C-96.55065628 108.07964844 -96.3359317 106.84923828 -96.11470032 105.58154297 C-95.5306183 102.23879623 -94.94334965 98.89664006 -94.35460353 95.55471373 C-93.73806252 92.05049384 -93.1256767 88.54554789 -92.51283264 85.04067993 C-91.35413177 78.41771474 -90.19174452 71.79540221 -89.02800137 65.17332137 C-87.70226734 57.6283929 -86.38069031 50.08273816 -85.05944622 42.53702235 C-82.34370474 27.02777946 -79.6222475 11.51954697 -76.8984375 -3.98828125 C-67.9884375 -3.98828125 -59.0784375 -3.98828125 -49.8984375 -3.98828125 C-49.8984375 -1.67828125 -49.8984375 0.63171875 -49.8984375 3.01171875 C-49.30417969 2.61339844 -48.70992187 2.21507812 -48.09765625 1.8046875 C-33.70857928 -7.39268518 -14.83642189 -10.17754547 0 0 Z M-52.13671875 27.79296875 C-57.43433742 34.46491421 -59.29150894 42.28136062 -59.1796875 50.66796875 C-58.55543675 55.87005832 -56.17719838 59.73295787 -52.5234375 63.38671875 C-46.22594488 67.28516656 -41.01554045 67.49260663 -33.8984375 66.01171875 C-26.80675461 63.86350824 -22.05131124 59.00214725 -17.8984375 53.01171875 C-14.01398211 45.72290919 -12.74085381 38.19665391 -13.8984375 30.01171875 C-15.54606085 25.11290281 -18.62693735 21.85938552 -22.8984375 19.01171875 C-34.72832459 15.06842305 -44.00975589 19.23490963 -52.13671875 27.79296875 Z " fill="#FF7E27" transform="translate(2463.8984375,537.98828125)"/>
<path d="M0 0 C7.18580222 -0.07661597 14.3714975 -0.12883556 21.55761719 -0.16479492 C23.9977614 -0.17979978 26.43787902 -0.20021015 28.87792969 -0.22631836 C32.40306192 -0.26306851 35.92783488 -0.27981002 39.453125 -0.29296875 C41.06637665 -0.31619453 41.06637665 -0.31619453 42.71221924 -0.33988953 C54.18249506 -0.34238823 65.10775944 1.57875538 73.71484375 9.59765625 C80.22865096 16.58924883 81.49796551 23.63615456 81.41967773 32.92773438 C81.0003899 44.50061786 76.23024184 52.54934866 68.34375 60.71484375 C63.50065153 65.20384775 56.75985902 70 50 70 C50.3623877 70.83023682 50.72477539 71.66047363 51.09814453 72.51586914 C52.47543863 75.67426787 53.8506617 78.83355305 55.22460938 81.9934082 C55.81333375 83.346293 56.40282047 84.69884637 56.99316406 86.05102539 C60.22542226 93.45598551 63.40279942 100.87947481 66.4296875 108.37109375 C66.68928253 109.00805679 66.94887756 109.64501984 67.21633911 110.30128479 C69 114.7612006 69 114.7612006 69 117 C59.1 117 49.2 117 39 117 C33.25364008 103.20873619 33.25364008 103.20873619 30.88671875 97.046875 C30.62744095 96.37577698 30.36816315 95.70467896 30.10102844 95.01324463 C29.29503201 92.92606645 28.49121523 90.83805751 27.6875 88.75 C27.13230769 87.31114148 26.57697 85.87233906 26.02148438 84.43359375 C24.67931851 80.95637201 23.339102 77.47840299 22 74 C19.36 73.67 16.72 73.34 14 73 C13.82871582 74.04865234 13.65743164 75.09730469 13.48095703 76.17773438 C12.83947029 80.09951619 12.19356793 84.02056048 11.54638672 87.94140625 C11.26785334 89.632617 10.99048885 91.32402073 10.71435547 93.015625 C10.31531279 95.45886104 9.91195398 97.90135282 9.5078125 100.34375 C9.3868924 101.08991577 9.26597229 101.83608154 9.14138794 102.6048584 C9.02141449 103.32500122 8.90144104 104.04514404 8.77783203 104.78710938 C8.6756839 105.40888062 8.57353577 106.03065186 8.46829224 106.67126465 C7.77042266 110.14164796 6.85854125 113.56583501 6 117 C-2.58 117 -11.16 117 -20 117 C-18.875 106.875 -18.875 106.875 -18.15843201 102.81761169 C-17.99718842 101.89651108 -17.83594482 100.97541046 -17.66981506 100.02639771 C-17.49574631 99.04887543 -17.32167755 98.07135315 -17.14233398 97.06420898 C-16.95687012 96.00950912 -16.77140625 94.95480927 -16.58032227 93.8681488 C-15.97159641 90.41031789 -15.35887477 86.95320812 -14.74609375 83.49609375 C-14.3212908 81.08761383 -13.89673902 78.67908959 -13.47242737 76.27052307 C-12.35867608 69.95234498 -11.24152672 63.63477236 -10.12365723 57.31732178 C-8.98206914 50.86230224 -7.84371157 44.40671313 -6.70507812 37.95117188 C-4.47320496 25.30022332 -2.23784955 12.64989268 0 0 Z M23 22 C21.56830151 27.51515157 20.36391578 33.0144166 19.375 38.625 C19.2409375 39.34945312 19.106875 40.07390625 18.96875 40.8203125 C18.2382493 44.93496952 17.85431302 48.80156621 18 53 C21.70920229 52.91870118 25.41681099 52.80589399 29.125 52.6875 C30.69507813 52.65366211 30.69507813 52.65366211 32.296875 52.61914062 C38.67869925 52.39698852 43.67950607 52.02229423 48.609375 47.53515625 C52.93659994 41.94829392 54.47215004 38.46015831 54.31640625 31.41015625 C53.85803877 27.91864097 52.6381823 26.28167118 50 24 C46.43477279 22.28492817 43.63896074 21.75860865 39.69921875 21.8046875 C38.72275391 21.81113281 37.74628906 21.81757812 36.74023438 21.82421875 C35.22913086 21.84935547 35.22913086 21.84935547 33.6875 21.875 C32.14739258 21.88853516 32.14739258 21.88853516 30.57617188 21.90234375 C28.05054101 21.92583799 25.5253919 21.95868869 23 22 Z " fill="#FF7E27" transform="translate(771,510)"/>
<path d="M0 0 C13.08262122 6.6252932 21.21336363 16.40907478 26.3125 30 C29.81082816 42.5895249 28.43812184 57.57845149 22.3125 69 C20.375 72.375 20.375 72.375 18.3125 75 C17.87164063 75.57105469 17.43078125 76.14210938 16.9765625 76.73046875 C8.85693176 86.80482541 -2.00659812 91.00495591 -14.640625 92.453125 C-28.02660975 92.8387295 -39.23717301 88.95363852 -49.03125 79.8125 C-60.59099047 67.79036992 -63.19869293 56.29640279 -62.95703125 40.2890625 C-62.48942989 27.21004516 -56.31661396 17.09765826 -46.9375 8.1875 C-34.24450911 -2.28484835 -15.58875968 -6.08043244 0 0 Z " fill="#FDFEFE" transform="translate(2292.6875,239)"/>
<path d="M0 0 C1.20970459 0.00523682 2.41940918 0.01047363 3.66577148 0.01586914 C4.97094727 0.0190918 6.27612305 0.02231445 7.62084961 0.02563477 C9.00952213 0.03399138 10.39819401 0.04245634 11.78686523 0.05102539 C13.17944179 0.05603873 14.57202005 0.06060193 15.96459961 0.06469727 C19.38456394 0.07653105 22.80444367 0.09301659 26.22436523 0.11352539 C30.5875758 21.31955273 34.5201179 42.60326732 38.4375 63.89526367 C39.36226078 68.92033019 40.29297517 73.94427555 41.22500324 78.9679985 C41.94775798 82.86903014 42.66651653 86.77079018 43.38414574 90.67276764 C43.72598049 92.52777017 44.06926566 94.38250606 44.41405678 96.23696136 C44.89190229 98.80931964 45.36412856 101.38264903 45.83496094 103.95629883 C45.97671753 104.71256058 46.11847412 105.46882233 46.26452637 106.2480011 C46.94292508 109.99022762 47.22436523 113.27588111 47.22436523 117.11352539 C38.31436523 117.11352539 29.40436523 117.11352539 20.22436523 117.11352539 C18.22436523 109.11352539 18.22436523 109.11352539 16.22436523 95.11352539 C2.03436523 95.11352539 -12.15563477 95.11352539 -26.77563477 95.11352539 C-27.43563477 97.09352539 -28.09563477 99.07352539 -28.77563477 101.11352539 C-29.39144068 102.49056625 -30.03753866 103.85469112 -30.72094727 105.19946289 C-31.20072021 106.15151611 -31.20072021 106.15151611 -31.69018555 107.12280273 C-32.08963379 107.90349121 -32.48908203 108.68417969 -32.90063477 109.48852539 C-34.17938477 112.00477539 -35.45813477 114.52102539 -36.77563477 117.11352539 C-46.01563477 117.11352539 -55.25563477 117.11352539 -64.77563477 117.11352539 C-63.37460047 112.91042251 -62.18395399 109.7415606 -60.11547852 105.96508789 C-59.57802002 104.97653809 -59.04056152 103.98798828 -58.48681641 102.96948242 C-57.90150146 101.9032666 -57.31618652 100.83705078 -56.71313477 99.73852539 C-55.43877172 97.39527178 -54.16533008 95.05153524 -52.89282227 92.70727539 C-52.55946365 92.09425568 -52.22610504 91.48123596 -51.88264465 90.84963989 C-48.34789933 84.34329442 -44.87665158 77.80363986 -41.40982056 71.26092529 C-39.61282394 67.86977668 -37.81349166 64.47986844 -36.01391602 61.09008789 C-35.48174721 60.08765549 -35.48174721 60.08765549 -34.93882751 59.06497192 C-28.91863764 47.72951752 -22.85489245 36.41740146 -16.77563477 25.11352539 C-16.46460815 24.53507874 -16.15358154 23.95663208 -15.83312988 23.36065674 C-13.6925871 19.38048647 -11.54769558 15.40268277 -9.40063477 11.42602539 C-8.84666016 10.39735352 -8.29268555 9.36868164 -7.72192383 8.30883789 C-7.21628906 7.37426758 -6.7106543 6.43969727 -6.18969727 5.47680664 C-5.74577637 4.6547876 -5.30185547 3.83276855 -4.84448242 2.98583984 C-3.21502432 0.13149673 -3.21502432 0.13149673 0 0 Z M5.22436523 34.11352539 C2.37323367 39.64796367 -0.47476838 45.18400374 -3.32055664 50.72119141 C-4.28988071 52.60633155 -5.25993184 54.49109802 -6.23071289 56.37548828 C-7.62258256 59.07756179 -9.01186773 61.78094997 -10.40063477 64.48461914 C-10.83811035 65.33253525 -11.27558594 66.18045135 -11.72631836 67.05406189 C-12.32694092 68.22516258 -12.32694092 68.22516258 -12.93969727 69.41992188 C-13.29499512 70.11053207 -13.65029297 70.80114227 -14.01635742 71.51268005 C-14.84705794 72.96881577 -14.84705794 72.96881577 -14.77563477 74.11352539 C-5.53563477 74.11352539 3.70436523 74.11352539 13.22436523 74.11352539 C12.41253117 69.05870951 11.59676637 64.0048635 10.77075195 58.95239258 C10.49105521 57.23402392 10.21369019 55.51527402 9.9387207 53.79614258 C9.54269475 51.32276746 9.13825723 48.85089225 8.73217773 46.37915039 C8.61125763 45.61233948 8.49033752 44.84552856 8.36575317 44.05548096 C7.75453763 40.3851093 6.98498411 37.37994639 5.22436523 34.11352539 Z " fill="#FF7E27" transform="translate(2308.775634765625,509.886474609375)"/>
<path d="M0 0 C1.65198324 1.39427386 3.21997832 2.88713853 4.765625 4.3984375 C5.425625 1.7584375 6.085625 -0.8815625 6.765625 -3.6015625 C15.675625 -3.6015625 24.585625 -3.6015625 33.765625 -3.6015625 C31.97543233 6.90004103 30.18472433 17.40155634 28.39312935 27.90292072 C27.56108561 32.78003443 26.72926059 37.65718523 25.89794922 42.53442383 C25.09446938 47.24832704 24.29039698 51.96212883 23.48592758 56.67586327 C23.18034996 58.46698658 22.87497961 60.25814526 22.56982803 62.0493412 C22.13972507 64.57376192 21.70885985 67.09805151 21.27783203 69.62231445 C21.15411224 70.34952698 21.03039246 71.0767395 20.90292358 71.82598877 C19.89996323 77.69230138 18.83044985 83.54190085 17.765625 89.3984375 C8.855625 89.3984375 -0.054375 89.3984375 -9.234375 89.3984375 C-8.904375 86.7584375 -8.574375 84.1184375 -8.234375 81.3984375 C-8.84023437 81.79675781 -9.44609375 82.19507813 -10.0703125 82.60546875 C-22.15094943 90.24414841 -34.37400053 92.49152785 -48.45703125 89.77734375 C-56.47589267 87.23972938 -62.67078126 82.55955492 -67.08984375 75.38671875 C-74.15542992 61.7422495 -73.99263893 46.48037357 -69.55859375 31.93359375 C-64.35145117 18.03251989 -56.27873536 6.78384741 -43.234375 -0.6015625 C-29.60674537 -6.62775894 -12.8626603 -9.21973902 0 0 Z M-38.171875 27.2734375 C-44.12218371 34.7078232 -46.08277818 42.98744665 -45.234375 52.3984375 C-43.92254141 58.61297119 -41.44701636 61.85384138 -36.234375 65.3984375 C-30.84527771 68.30025912 -25.56715041 67.94486111 -19.796875 66.3359375 C-10.71419305 62.96854861 -6.42442841 56.78628798 -2.36328125 48.265625 C0.00104634 42.2607238 1.07178611 35.43050005 -0.953125 29.1796875 C-2.95428225 24.85460571 -5.15057571 22.01625756 -9.234375 19.3984375 C-20.151668 15.75933983 -30.49436724 19.01770739 -38.171875 27.2734375 Z " fill="#FF7E27" transform="translate(1494.234375,537.6015625)"/>
<path d="M0 0 C2.02184224 1.57802321 3.85010395 3.09733772 5.5625 5 C6.2225 2.36 6.8825 -0.28 7.5625 -3 C16.1425 -3 24.7225 -3 33.5625 -3 C32.41335969 10.78968373 32.41335969 10.78968373 31.1796875 17.69018555 C30.97705292 18.86083305 30.97705292 18.86083305 30.77032471 20.05513 C30.33128451 22.58327238 29.88465857 25.11000079 29.4375 27.63671875 C29.1270906 29.41073069 28.81703816 31.18480511 28.50732422 32.9589386 C27.86178317 36.64990588 27.2125665 40.34020111 26.56054688 44.0300293 C25.72352421 48.76806562 24.89495039 53.50753348 24.06893921 58.24750042 C23.43198315 61.89814248 22.79111617 65.54808915 22.14898682 69.19782448 C21.84167011 70.94681233 21.53547445 72.69599755 21.23040771 74.44537926 C20.80595885 76.87534792 20.37637555 79.30435151 19.9453125 81.7331543 C19.81956848 82.45876556 19.69382446 83.18437683 19.56427002 83.93197632 C18.67684448 88.88565552 18.67684448 88.88565552 17.5625 90 C15.63582493 90.08748207 13.70598139 90.10697334 11.77734375 90.09765625 C10.02260742 90.09282227 10.02260742 90.09282227 8.23242188 90.08789062 C7.00072266 90.07951172 5.76902344 90.07113281 4.5 90.0625 C2.64665039 90.05573242 2.64665039 90.05573242 0.75585938 90.04882812 C-2.30864117 90.03699608 -5.37304721 90.02051173 -8.4375 90 C-8.4375 87.36 -8.4375 84.72 -8.4375 82 C-8.97117187 82.39832031 -9.50484375 82.79664063 -10.0546875 83.20703125 C-20.8143419 90.85792737 -31.49965563 92.29251103 -44.4375 91 C-53.18215893 89.39252593 -59.75248282 84.76056097 -65.4375 78 C-72.73172223 65.59143805 -73.45843237 50.41612436 -70.3125 36.5 C-65.934429 22.04218414 -57.33470764 9.12849221 -44.4375 1 C-30.05661992 -5.73789486 -14.30689576 -8.32401208 0 0 Z M-38.96484375 29.70703125 C-43.72379105 37.11685105 -45.74915382 45.25564117 -44.4375 54 C-42.42775624 60.40538652 -39.01124508 64.11908154 -33.0625 67.25 C-25.77999377 69.33071607 -19.9465064 67.33849038 -13.4375 64 C-6.55439479 59.90807525 -3.06084883 53.40503817 -0.4375 46 C1.04725632 38.73381826 1.56847998 32.40956797 -2.4375 26 C-5.90328457 22.00101781 -8.79465268 19.36813856 -14.1015625 18.62890625 C-24.5689908 18.39414862 -32.35373974 21.37672762 -38.96484375 29.70703125 Z " fill="#FF7E27" transform="translate(1035.4375,537)"/>
<path d="M0 0 C6.01701334 4.97057624 10.57849664 11.13757111 11.5 19.0625 C11.5 22.0325 11.5 25.0025 11.5 28.0625 C2.26 28.0625 -6.98 28.0625 -16.5 28.0625 C-17.16 25.0925 -17.82 22.1225 -18.5 19.0625 C-22.07452718 15.69823913 -26.67564327 14.91630737 -31.5 15.0625 C-35.69975731 15.88611529 -39.27613271 17.02406715 -42.5625 19.8125 C-43.93970569 23.11779366 -43.93533606 25.51762069 -43.5 29.0625 C-40.44922059 33.92977403 -36.60471578 35.95458229 -31.625 38.4375 C-30.873396 38.82615234 -30.12179199 39.21480469 -29.34741211 39.61523438 C-25.80238366 41.43884103 -22.23551145 43.20103249 -18.62109375 44.8828125 C-8.8635073 49.48847899 0.54953031 54.91765693 4.89453125 65.30078125 C7.87644005 73.97717396 6.97831735 82.66428131 3.5 91.0625 C-1.62896852 101.40507349 -10.18972145 106.66225439 -20.859375 110.3359375 C-35.78476601 114.44262793 -52.60140058 112.89510805 -66.2421875 105.5703125 C-72.71485368 101.24773612 -76.65594434 95.54719648 -78.5 88.0625 C-78.5 83.7725 -78.5 79.4825 -78.5 75.0625 C-69.59 75.0625 -60.68 75.0625 -51.5 75.0625 C-50.84 78.0325 -50.18 81.0025 -49.5 84.0625 C-47.20782334 87.0201473 -46.05208165 87.87847278 -42.5 89.0625 C-36.01554951 89.54906771 -30.00902115 89.9768045 -24.5 86.0625 C-22.38787496 82.89431244 -22.16843536 80.93030748 -21.94140625 77.1953125 C-22.83543446 73.78175026 -24.84085755 72.31390728 -27.5 70.0625 C-29.93336259 68.67240347 -32.28614337 67.43343767 -34.8125 66.25 C-35.50456543 65.91379639 -36.19663086 65.57759277 -36.90966797 65.23120117 C-39.1022691 64.16606097 -41.30063493 63.11359248 -43.5 62.0625 C-46.38086552 60.67841124 -49.25437313 59.28017606 -52.125 57.875 C-53.1001355 57.41226685 -53.1001355 57.41226685 -54.0949707 56.94018555 C-62.22257594 52.96338532 -68.0041502 47.57394972 -71.2890625 39.00390625 C-74.07076068 28.89706955 -72.39376269 18.84590549 -67.3515625 9.7890625 C-61.30969873 0.89197196 -52.55601983 -4.08439006 -42.14379883 -6.47949219 C-28.03710359 -8.92331528 -11.94871673 -8.39229288 0 0 Z " fill="#FF7E27" transform="translate(1834.5,515.9375)"/>
<path d="M0 0 C7.31712568 6.16421722 12.03329092 13.61959695 13.5 23.125 C13.64181447 25.30948835 13.72011764 27.49861724 13.75 29.6875 C13.77578125 30.80253906 13.8015625 31.91757812 13.828125 33.06640625 C13.38760314 38.51524215 11.82584872 43.82160511 10.5 49.125 C-11.28 49.125 -33.06 49.125 -55.5 49.125 C-53.31261815 59.56798583 -53.31261815 59.56798583 -46.5 65.125 C-40.30493742 67.19002086 -35.09185198 66.72372527 -29.1875 63.9375 C-26.16167472 62.40266109 -24.68426021 61.39790123 -22.76586914 58.55664062 C-20.5 56.125 -20.5 56.125 -17.47558594 55.55737305 C-16.32348633 55.58355713 -15.17138672 55.60974121 -13.984375 55.63671875 C-12.73398438 55.65283203 -11.48359375 55.66894531 -10.1953125 55.68554688 C-8.89335937 55.72744141 -7.59140625 55.76933594 -6.25 55.8125 C-4.27386719 55.84633789 -4.27386719 55.84633789 -2.2578125 55.88085938 C0.99593404 55.93980406 4.24739671 56.02204947 7.5 56.125 C3.17831104 69.52303757 -6.20115422 78.62992327 -18.5 85.125 C-30.43261502 90.60015399 -45.58519534 91.28517567 -58.1875 87.5625 C-68.27219938 83.49448304 -75.05747896 76.70115426 -79.53125 66.85546875 C-84.76988098 52.23095725 -81.11546293 35.53442701 -74.875 21.8125 C-67.58853881 8.37180969 -56.37028621 -0.18488528 -42.10546875 -5.1484375 C-28.40071861 -8.97015193 -11.89470722 -8.43281482 0 0 Z M-46.80078125 23.34765625 C-49.30072711 25.96254215 -51.5 28.39756088 -51.5 32.125 C-38.96 32.125 -26.42 32.125 -13.5 32.125 C-13.44683447 24.63232835 -13.44683447 24.63232835 -17.5 19.125 C-27.07455154 10.95847074 -38.82246719 15.93362373 -46.80078125 23.34765625 Z " fill="#FF7E27" transform="translate(2161.5,538.875)"/>
<path d="M0 0 C1.21505354 1.030877 2.40441308 2.09301511 3.5625 3.1875 C4.39201172 3.93966797 4.39201172 3.93966797 5.23828125 4.70703125 C13.12604171 12.75137257 14.00716291 23.30914063 13.99609375 34.03515625 C13.5625 38.1875 13.5625 38.1875 10.5625 49.1875 C-11.2175 49.1875 -32.9975 49.1875 -55.4375 49.1875 C-53.25011815 59.63048583 -53.25011815 59.63048583 -46.4375 65.1875 C-41.03998784 66.98667072 -36.08476739 66.70913467 -30.6875 65 C-27.28117143 63.10031676 -25.03247815 61.07904708 -22.4375 58.1875 C-20.4375 56.1875 -20.4375 56.1875 -17.64013672 55.96044922 C-16.47756348 55.97092285 -15.31499023 55.98139648 -14.1171875 55.9921875 C-12.23193359 56.00185547 -12.23193359 56.00185547 -10.30859375 56.01171875 C-8.98988281 56.02847656 -7.67117188 56.04523437 -6.3125 56.0625 C-4.97266279 56.07253017 -3.63281848 56.08165596 -2.29296875 56.08984375 C0.99236573 56.11347925 4.27734465 56.14642766 7.5625 56.1875 C4.62677338 67.84572204 -4.27755313 76.86381596 -14.46484375 83.015625 C-27.73822142 89.91175564 -43.59199499 91.9830311 -58.125 87.625 C-67.23203014 83.9513602 -74.03025084 77.98787252 -78.4375 69.1875 C-84.30967629 54.79621946 -81.70745656 39.4018343 -76.33984375 25.3046875 C-70.04682483 11.69470081 -59.29434026 1.422822 -45.29296875 -3.84765625 C-44.35066406 -4.16605469 -43.40835937 -4.48445312 -42.4375 -4.8125 C-41.71175781 -5.05871094 -40.98601562 -5.30492187 -40.23828125 -5.55859375 C-27.23734979 -9.1493272 -11.13806791 -7.8534959 0 0 Z M-48.4375 25.1875 C-50.83953972 28.40815204 -50.83953972 28.40815204 -51.4375 32.1875 C-38.8975 32.1875 -26.3575 32.1875 -13.4375 32.1875 C-13.16270134 25.26076777 -13.16270134 25.26076777 -16.4375 20.1875 C-28.17100791 11.38736907 -39.05714434 15.37586363 -48.4375 25.1875 Z " fill="#FF7E27" transform="translate(1683.4375,538.8125)"/>
<path d="M0 0 C7.11234666 6.00943804 11.52319039 13.39238464 12.96484375 22.66015625 C13.10665822 24.8446446 13.18496139 27.03377349 13.21484375 29.22265625 C13.240625 30.33769531 13.26640625 31.45273437 13.29296875 32.6015625 C12.85244689 38.0503984 11.29069247 43.35676136 9.96484375 48.66015625 C-11.81515625 48.66015625 -33.59515625 48.66015625 -56.03515625 48.66015625 C-53.8477744 59.10314208 -53.8477744 59.10314208 -47.03515625 64.66015625 C-40.84009367 66.72517711 -35.62700823 66.25888152 -29.72265625 63.47265625 C-26.69683097 61.93781734 -25.21941646 60.93305748 -23.30102539 58.09179688 C-21.03515625 55.66015625 -21.03515625 55.66015625 -18.01074219 55.0925293 C-16.85864258 55.11871338 -15.70654297 55.14489746 -14.51953125 55.171875 C-13.26914062 55.18798828 -12.01875 55.20410156 -10.73046875 55.22070312 C-9.42851563 55.26259766 -8.1265625 55.30449219 -6.78515625 55.34765625 C-4.80902344 55.38149414 -4.80902344 55.38149414 -2.79296875 55.41601562 C0.46077779 55.47496031 3.71224046 55.55720572 6.96484375 55.66015625 C2.64315479 69.05819382 -6.73631047 78.16507952 -19.03515625 84.66015625 C-30.99274146 90.14676755 -46.17661154 90.8384942 -58.78515625 87.03515625 C-68.46991001 83.13397375 -75.52852145 76.52458899 -79.84765625 66.97265625 C-85.2448712 51.91726717 -81.82564878 35.55340114 -75.41015625 21.41015625 C-68.16618913 7.92076384 -56.92207095 -0.64394302 -42.640625 -5.61328125 C-28.61979642 -9.5231375 -11.98392173 -8.81999303 0 0 Z M-47.03515625 21.66015625 C-50.65621298 26.23044211 -50.65621298 26.23044211 -52.03515625 31.66015625 C-39.49515625 31.66015625 -26.95515625 31.66015625 -14.03515625 31.66015625 C-13.98199072 24.1674846 -13.98199072 24.1674846 -18.03515625 18.66015625 C-26.86639987 11.12762493 -39.01504062 15.06583895 -47.03515625 21.66015625 Z " fill="#FF7E27" transform="translate(942.03515625,539.33984375)"/>
<path d="M0 0 C9.19311294 8.96410301 15.01839469 18.72883173 15.4375 31.75 C15.11592445 44.19765352 10.91369021 56.21481704 1.8984375 65.0625 C-7.57506164 72.82876078 -16.63582245 76.18006398 -28.6875 76.3125 C-29.54794922 76.34150391 -30.40839844 76.37050781 -31.29492188 76.40039062 C-42.40959075 76.50927585 -50.70997244 71.05424705 -59 64 C-67.41835924 55.02505503 -70.18331595 45.80729389 -70.25 33.8125 C-70.270625 32.90435547 -70.29125 31.99621094 -70.3125 31.06054688 C-70.38111748 19.0782187 -65.89421553 10.13745989 -57.875 1.375 C-41.5972909 -14.10690999 -17.13136391 -14.18200821 0 0 Z " fill="#2258A6" transform="translate(2099,311)"/>
<path d="M0 0 C22.77 0 45.54 0 69 0 C68 11 68 11 66 21 C51.81 21 37.62 21 23 21 C21.68 29.25 20.36 37.5 19 46 C37.315 46.495 37.315 46.495 56 47 C55 58 55 58 53 68 C40.13 68 27.26 68 14 68 C13.505 73.94 13.505 73.94 13 80 C12.52517547 82.94243598 12.03013781 85.83501592 11.4375 88.75 C11.29892578 89.45898438 11.16035156 90.16796875 11.01757812 90.8984375 C10.68414485 92.600097 10.34297239 94.30023745 10 96 C11.69962891 95.75443359 11.69962891 95.75443359 13.43359375 95.50390625 C20.9456496 94.66923338 28.51544801 94.89475192 36.0625 94.9375 C37.61132668 94.94252497 39.16015493 94.94708612 40.70898438 94.95117188 C44.47269576 94.96209862 48.23633015 94.97930825 52 95 C51.88372713 96.97969854 51.7564632 98.95875213 51.625 100.9375 C51.55539062 102.03964844 51.48578125 103.14179687 51.4140625 104.27734375 C50.93688487 108.56744079 49.93639185 112.78623667 49 117 C26.23 117 3.46 117 -20 117 C-17.70205734 98.61645869 -17.70205734 98.61645869 -16.22827148 90.34277344 C-16.06377502 89.40076584 -15.89927856 88.45875824 -15.72979736 87.48820496 C-15.19732634 84.44458736 -14.65934625 81.40197498 -14.12109375 78.359375 C-13.74490309 76.21711412 -13.36901856 74.07479946 -12.99342346 71.93243408 C-12.21162967 67.47780626 -11.42729321 63.0236369 -10.64086914 58.56982422 C-9.63288254 52.86093974 -8.62965192 47.15123256 -7.62808132 41.44121933 C-6.85467945 37.03330665 -6.07967707 32.6256767 -5.30409431 28.21814728 C-4.93340975 26.11144386 -4.56301959 24.00468861 -4.19293022 21.89788055 C-3.6775642 18.96648431 -3.16025444 16.03543804 -2.64233398 13.10449219 C-2.4901088 12.23698837 -2.33788361 11.36948456 -2.18104553 10.47569275 C-2.03952057 9.67714371 -1.89799561 8.87859467 -1.75218201 8.05584717 C-1.63033759 7.36500408 -1.50849318 6.674161 -1.3829565 5.96238327 C-0.99218114 3.95993381 -0.49482672 1.97930688 0 0 Z " fill="#FF7E27" transform="translate(1192,510)"/>
<path d="M0 0 C8.91 0 17.82 0 27 0 C26.33871094 3.70992187 25.67742187 7.41984375 24.99609375 11.2421875 C24.36081665 14.85915149 23.73012032 18.47688656 23.09985352 22.09472656 C22.6612739 24.59784739 22.21797846 27.10014691 21.76977539 29.6015625 C21.12428348 33.20884989 20.4961233 36.81880546 19.87109375 40.4296875 C19.66906845 41.53738495 19.46704315 42.6450824 19.25889587 43.78634644 C17.98030689 51.30730264 16.707669 59.20579696 20.8125 66 C25.1681644 69.98232173 28.71885496 70.38074217 34.46875 70.25390625 C40.17458527 69.68156166 45.00438966 67.1035998 49 63 C52.90569547 56.21659442 54.24730898 48.93189627 55.578125 41.30859375 C55.79442566 40.12274185 56.01072632 38.93688995 56.23358154 37.71510315 C56.91641417 33.95774244 57.58343287 30.19777665 58.25 26.4375 C58.71249677 23.87676419 59.17602786 21.31621495 59.640625 18.75585938 C60.7743388 12.50626205 61.8865878 6.25338186 63 0 C71.58 0 80.16 0 89 0 C88.39312453 6.67563013 87.76925651 13.10578808 86.6171875 19.66845703 C86.41455292 20.85351585 86.41455292 20.85351585 86.20782471 22.06251526 C85.76788068 24.62838183 85.32168142 27.19311097 84.875 29.7578125 C84.56467546 31.55568939 84.25462139 33.35361298 83.94482422 35.15158081 C83.29871685 38.89549353 82.64951895 42.6388531 81.99804688 46.38183594 C81.16169327 51.18841052 80.33295553 55.99626211 79.50643921 60.80453682 C78.86941178 64.50577341 78.22855006 68.20633792 77.58648682 71.90670395 C77.27911282 73.68080445 76.97291747 75.45510957 76.66790771 77.22961807 C76.2434298 79.69560267 75.8138398 82.16064126 75.3828125 84.62548828 C75.19419647 85.73028786 75.19419647 85.73028786 75.00177002 86.85740662 C74.11429076 91.88570924 74.11429076 91.88570924 73 93 C71.07332493 93.08748207 69.14348139 93.10697334 67.21484375 93.09765625 C65.46010742 93.09282227 65.46010742 93.09282227 63.66992188 93.08789062 C62.43822266 93.07951172 61.20652344 93.07113281 59.9375 93.0625 C58.08415039 93.05573242 58.08415039 93.05573242 56.19335938 93.04882812 C53.12885883 93.03699608 50.06445279 93.02051173 47 93 C47.33 90.69 47.66 88.38 48 86 C47.04738281 86.49371094 46.09476563 86.98742187 45.11328125 87.49609375 C43.84651829 88.14355037 42.57958199 88.79066794 41.3125 89.4375 C40.68666016 89.76298828 40.06082031 90.08847656 39.41601562 90.42382812 C30.28031949 95.0634225 19.53219636 95.48619904 9.625 92.875 C2.28023286 90.28201981 -3.20201941 85.93046556 -7.03515625 79.12890625 C-12.09874695 67.95620612 -9.90217295 55.9629663 -7.8125 44.3359375 C-7.59053955 43.06271637 -7.3685791 41.78949524 -7.13989258 40.47769165 C-6.55550194 37.12603661 -5.96106944 33.77624205 -5.36437988 30.42675781 C-4.75496036 26.99522572 -4.15516652 23.56201213 -3.5546875 20.12890625 C-2.38007009 13.41738542 -1.18967847 6.70893681 0 0 Z " fill="#FF7E27" transform="translate(1869,534)"/>
<path d="M0 0 C0.92538574 0.01240723 1.85077148 0.02481445 2.80419922 0.03759766 C14.59218 0.42561955 21.71083658 4.76876501 30.171875 12.8671875 C33.70153857 16.74532104 36.3509176 20.84793893 38.625 25.5625 C39.00011719 26.30371094 39.37523438 27.04492188 39.76171875 27.80859375 C40.97172477 31.66856771 40.9243623 35.29092466 40.875 39.3125 C40.86158569 40.52184204 40.86158569 40.52184204 40.84790039 41.75561523 C40.63812943 52.49523631 38.91342723 58.42276058 31.625 66.5625 C31.0990625 67.19285156 30.573125 67.82320313 30.03125 68.47265625 C23.67220547 75.56423777 14.44373088 80.12687309 4.97265625 80.8359375 C-6.5462265 81.22318353 -16.62989741 79.86276971 -25.8125 72.1875 C-27.02572074 71.00499371 -28.2146995 69.79697496 -29.375 68.5625 C-29.93960938 67.98242188 -30.50421875 67.40234375 -31.0859375 66.8046875 C-39.16691645 58.01415918 -40.84989614 46.64029762 -40.375 34.9375 C-38.9740409 23.76279092 -32.17676706 14.24935569 -23.5625 7.375 C-16.318645 1.82617509 -9.01022859 -0.15293872 0 0 Z " fill="#2258A6" transform="translate(2480.375,65.4375)"/>
<path d="M0 0 C5.711285 5.95960174 7.59668437 12.86035722 8 21 C7.505 22.485 7.505 22.485 7 24 C-0.92 24 -8.84 24 -17 24 C-17.99 21.03 -18.98 18.06 -20 15 C-23.87967686 13.06016157 -25.34784014 12.72718593 -29.5 12.75 C-30.90765625 12.74226562 -30.90765625 12.74226562 -32.34375 12.734375 C-35.09110191 13.00911019 -36.72108853 13.45655541 -39 15 C-40.17110449 17.8596006 -40.17110449 17.8596006 -40 21 C-37.34638938 24.23212472 -34.73386215 25.80685883 -30.89453125 27.3671875 C-29.41823242 27.98400391 -29.41823242 27.98400391 -27.91210938 28.61328125 C-26.37780273 29.23783203 -26.37780273 29.23783203 -24.8125 29.875 C-2.94199352 38.78052416 -2.94199352 38.78052416 2.1015625 49.296875 C4.37064519 56.12385421 3.97519274 63.81641944 1.0625 70.375 C-4.50589069 79.98320355 -13.62370033 83.62348881 -23.86987305 86.53051758 C-36.01505055 89.20732862 -50.54870339 87.88297137 -61.28515625 81.6796875 C-67.3354235 77.54062617 -72.20740627 72.17037493 -74 65 C-74 61.37 -74 57.74 -74 54 C-65.42 54 -56.84 54 -48 54 C-47.34 56.64 -46.68 59.28 -46 62 C-43.34804819 65.16194255 -40.20356605 65.63357526 -36.16015625 66.00390625 C-31.74651088 65.99592497 -27.70289802 65.08366238 -23.9375 62.6875 C-22.78495315 60.96668214 -22.78495315 60.96668214 -23.13671875 58.5703125 C-23.77227098 55.86494735 -23.77227098 55.86494735 -26.0546875 54.48046875 C-26.98539063 54.05378906 -27.91609375 53.62710938 -28.875 53.1875 C-29.9475 52.68734375 -31.02 52.1871875 -32.125 51.671875 C-35.00340253 50.40990022 -37.90483788 49.20845332 -40.8125 48.015625 C-41.64797363 47.67120361 -42.48344727 47.32678223 -43.34423828 46.97192383 C-44.99913564 46.2955009 -46.65886573 45.63075294 -48.32373047 44.97924805 C-54.88702818 42.32740372 -60.08745723 39.20404352 -63.8125 32.9375 C-64.40998047 31.96103516 -64.40998047 31.96103516 -65.01953125 30.96484375 C-67.88506346 25.22236286 -67.86662832 18.51349914 -66.3515625 12.37109375 C-63.42627828 4.18279817 -58.74535714 -0.74199867 -51.125 -4.8125 C-34.97700117 -12.16128988 -14.16038387 -11.30846768 0 0 Z " fill="#FF7E27" transform="translate(1336,541)"/>
<path d="M0 0 C8.58 0 17.16 0 26 0 C25.525625 3.42375 25.05125 6.8475 24.5625 10.375 C24.41498291 11.45313965 24.26746582 12.5312793 24.11547852 13.64208984 C23.99615967 14.48980957 23.87684082 15.3375293 23.75390625 16.2109375 C23.57323608 17.51490479 23.57323608 17.51490479 23.38891602 18.84521484 C23 21 23 21 22 23 C28.6 23 35.2 23 42 23 C41.55258379 26.48089814 41.09265502 29.95931581 40.625 33.4375 C40.49867187 34.43072266 40.37234375 35.42394531 40.2421875 36.44726562 C40.11328125 37.39150391 39.984375 38.33574219 39.8515625 39.30859375 C39.73635254 40.18314209 39.62114258 41.05769043 39.50244141 41.95874023 C39.33663574 42.63235596 39.17083008 43.30597168 39 44 C36.65147472 45.17426264 35.26225935 45.11508173 32.6484375 45.09765625 C31.37226562 45.09282227 31.37226562 45.09282227 30.0703125 45.08789062 C29.18085937 45.07951172 28.29140625 45.07113281 27.375 45.0625 C26.02921875 45.05573242 26.02921875 45.05573242 24.65625 45.04882812 C22.43743352 45.03702591 20.21874982 45.02056155 18 45 C17.92483154 45.54712646 17.84966309 46.09425293 17.7722168 46.65795898 C16.2648205 57.56977629 14.64924601 68.42311673 12.55078125 79.23828125 C11.95878781 83.28147051 11.8354478 86.92177393 12 91 C14.09939785 93.09939785 18.64318528 92.41925196 21.5625 92.5625 C24.346875 92.706875 27.13125 92.85125 30 93 C28.68 100.59 27.36 108.18 26 116 C22.535 116.04125 19.07 116.0825 15.5 116.125 C14.42427734 116.14320801 13.34855469 116.16141602 12.24023438 116.18017578 C3.48835206 116.23023267 -3.69793755 115.055274 -11 110 C-16.84925308 102.61146979 -16.67507801 95.12856884 -16 86 C-15.27445431 79.94833533 -14.17193571 73.95529027 -13.06420898 67.96386719 C-12.55602046 65.21495056 -12.06469455 62.46341106 -11.57617188 59.7109375 C-11.26136354 57.95816301 -10.94564301 56.20555204 -10.62890625 54.453125 C-10.48095108 53.63241516 -10.33299591 52.81170532 -10.18055725 51.96612549 C-9.11828536 46.23657073 -9.11828536 46.23657073 -8 44 C-8.99 44.495 -8.99 44.495 -10 45 C-11.54023996 45.06950541 -13.08334988 45.08452357 -14.625 45.0625 C-15.85089844 45.04896484 -15.85089844 45.04896484 -17.1015625 45.03515625 C-17.72804688 45.02355469 -18.35453125 45.01195312 -19 45 C-18.52639789 41.70750747 -18.04517553 38.41617362 -17.5625 35.125 C-17.42779297 34.18785156 -17.29308594 33.25070312 -17.15429688 32.28515625 C-17.02216797 31.38925781 -16.89003906 30.49335937 -16.75390625 29.5703125 C-16.63345947 28.74289551 -16.5130127 27.91547852 -16.38891602 27.06298828 C-16 25 -16 25 -15 23 C-11.37 23 -7.74 23 -4 23 C-3.87882812 21.92621094 -3.75765625 20.85242188 -3.6328125 19.74609375 C-3.46384385 18.30986025 -3.29455596 16.87366428 -3.125 15.4375 C-3.00705078 14.38079102 -3.00705078 14.38079102 -2.88671875 13.30273438 C-2.80292969 12.60341797 -2.71914062 11.90410156 -2.6328125 11.18359375 C-2.52283936 10.23311157 -2.52283936 10.23311157 -2.41064453 9.26342773 C-1.84107548 6.12402545 -0.87653932 3.06788762 0 0 Z " fill="#FF7E27" transform="translate(1378,511)"/>
<path d="M0 0 C8.58 0 17.16 0 26 0 C25.690625 2.68125 25.38125 5.3625 25.0625 8.125 C24.96718994 8.95789551 24.87187988 9.79079102 24.77368164 10.64892578 C24.65561157 11.66188721 24.65561157 11.66188721 24.53515625 12.6953125 C24.456604 13.37609863 24.37805176 14.05688477 24.29711914 14.75830078 C23.93170915 17.51523958 23.45720171 20.25678973 23 23 C29.27 23 35.54 23 42 23 C41.690625 25.536875 41.38125 28.07375 41.0625 30.6875 C40.96718994 31.47729248 40.87187988 32.26708496 40.77368164 33.08081055 C39.77494774 41.16575056 39.77494774 41.16575056 39 44 C36.65147472 45.17426264 35.26225935 45.11508173 32.6484375 45.09765625 C31.37226562 45.09282227 31.37226562 45.09282227 30.0703125 45.08789062 C29.18085937 45.07951172 28.29140625 45.07113281 27.375 45.0625 C26.02921875 45.05573242 26.02921875 45.05573242 24.65625 45.04882812 C22.43743352 45.03702591 20.21874982 45.02056155 18 45 C17.93631226 45.93332153 17.93631226 45.93332153 17.87133789 46.88549805 C17.13387192 56.27476138 15.41620544 65.44444896 13.72851562 74.70117188 C13.50744141 75.94060547 13.28636719 77.18003906 13.05859375 78.45703125 C12.85548584 79.57053955 12.65237793 80.68404785 12.44311523 81.83129883 C12.00745411 84.94669591 11.84771426 87.85921493 12 91 C14.11925604 93.11925604 18.6196093 92.41831017 21.5625 92.5625 C22.77196289 92.62727539 22.77196289 92.62727539 24.00585938 92.69335938 C26.00368805 92.79975262 28.0018207 92.90040888 30 93 C29.52651786 96.45913666 29.04525236 99.91714589 28.5625 103.375 C28.42779297 104.35984375 28.29308594 105.3446875 28.15429688 106.359375 C28.02216797 107.30039062 27.89003906 108.24140625 27.75390625 109.2109375 C27.57323608 110.51490479 27.57323608 110.51490479 27.38891602 111.84521484 C27 114 27 114 26 116 C22.54183314 116.08847317 19.08396421 116.14087725 15.625 116.1875 C14.65949219 116.21263672 13.69398437 116.23777344 12.69921875 116.26367188 C3.70858788 116.35418158 -4.8863048 115.18499725 -11.59375 108.71484375 C-16.81026191 102.35359728 -16.51954372 94.8591696 -16 87 C-15.12908724 80.10328979 -13.81756263 73.27224741 -12.5625 66.4375 C-12.23282779 64.59065454 -11.90404501 62.74365008 -11.57617188 60.89648438 C-11.26119823 59.13788067 -10.94547079 57.37941177 -10.62890625 55.62109375 C-10.48095108 54.79927109 -10.33299591 53.97744843 -10.18055725 53.13072205 C-9.60602381 50.00570378 -9.00619082 47.01857245 -8 44 C-8.99 44.495 -8.99 44.495 -10 45 C-12.6723621 45.13415472 -15.32250488 45.04318541 -18 45 C-17.51060037 37.5044583 -16.61855599 30.33745381 -15 23 C-11.37 23 -7.74 23 -4 23 C-3.81824219 21.64068359 -3.81824219 21.64068359 -3.6328125 20.25390625 C-3.46523437 19.03574219 -3.29765625 17.81757812 -3.125 16.5625 C-2.96257812 15.36753906 -2.80015625 14.17257812 -2.6328125 12.94140625 C-1.93495986 8.5949043 -0.95496418 4.29733882 0 0 Z " fill="#FF7E27" transform="translate(1558,511)"/>
<path d="M0 0 C1.7058082 0.0115022 3.41161898 0.02262675 5.11743164 0.03344727 C5.95641495 0.03893082 6.79539825 0.04441437 7.6598053 0.05006409 C8.60163918 0.05621986 8.60163918 0.05621986 9.5625 0.0625 C5.41776002 25.20062732 1.13208562 50.31275022 -3.24389648 75.41162109 C-4.09869607 80.31536167 -4.94925462 85.21982888 -5.79897022 90.12445259 C-6.46167644 93.94563632 -7.12719256 97.76632661 -7.79352379 101.58687973 C-8.10913516 103.39925145 -8.42371306 105.21180347 -8.73722267 107.02453995 C-9.16926015 109.52095702 -9.60523015 112.01665568 -10.04223633 114.51220703 C-10.16947586 115.25262238 -10.29671539 115.99303772 -10.42781067 116.75588989 C-11.32333551 121.83417103 -11.32333551 121.83417103 -12.4375 124.0625 C-21.0175 124.0625 -29.5975 124.0625 -38.4375 124.0625 C-37.31249349 112.8124349 -37.31249349 112.8124349 -36.60266113 108.79350281 C-36.4428627 107.87825333 -36.28306427 106.96300385 -36.11842346 106.02001953 C-35.94592575 105.05394775 -35.77342804 104.08787598 -35.59570312 103.0925293 C-35.41184555 102.04571487 -35.22798798 100.99890045 -35.03855896 99.92036438 C-34.43547867 96.49185097 -33.82717887 93.06428667 -33.21875 89.63671875 C-32.79628445 87.24165649 -32.37412945 84.84653943 -31.95227051 82.45137024 C-30.84463002 76.1678603 -29.7324703 69.88515824 -28.6194458 63.6026001 C-27.71067709 58.4685815 -26.80510127 53.33400218 -25.89969635 48.19938946 C-24.81957039 42.07415189 -23.73814956 35.94914327 -22.65625 29.82421875 C-22.45004532 28.65682348 -22.24384064 27.48942822 -22.03138733 26.28665733 C-21.44804181 22.9861493 -20.86383794 19.68579453 -20.27929688 16.38549805 C-20.02055031 14.92120865 -20.02055031 14.92120865 -19.75657654 13.42733765 C-19.59677811 12.52618729 -19.43697968 11.62503693 -19.27233887 10.69657898 C-19.06550098 9.528331 -19.06550098 9.528331 -18.85448456 8.33648205 C-18.40882245 5.90610998 -17.92812993 3.48415935 -17.4375 1.0625 C-11.58908333 0.04364003 -5.92675936 -0.05503524 0 0 Z " fill="#FF7E27" transform="translate(1114.4375,502.9375)"/>
<path d="M0 0 C-0.49862725 9.23320113 -2.04172794 17.98455884 -4 27 C-5.00160156 27.10957031 -6.00320312 27.21914063 -7.03515625 27.33203125 C-16.84171761 28.47023987 -16.84171761 28.47023987 -26 32 C-26.99 32.33 -27.98 32.66 -29 33 C-36.06948112 44.42749079 -37.03881295 60.36198875 -39.25 73.3125 C-39.61641947 75.42135755 -39.98360105 77.53008283 -40.3515625 79.63867188 C-41.24458244 84.75744606 -42.121916 89.87855375 -43 95 C-51.91 95 -60.82 95 -70 95 C-64.91890949 63.95577625 -59.46553143 32.97854575 -54 2 C-45.09 2 -36.18 2 -27 2 C-27.33 4.97 -27.66 7.94 -28 11 C-27.33355469 10.45730469 -26.66710938 9.91460938 -25.98046875 9.35546875 C-17.70004802 2.9280093 -10.55010427 -0.24642579 0 0 Z " fill="#FF7E27" transform="translate(2252,532)"/>
</svg>
