<?xml version="1.0" encoding="UTF-8"?>
<svg version="1.1" xmlns="http://www.w3.org/2000/svg" width="3105" height="676">
<path d="M0 0 C1.17757398 -0.00327219 2.35514795 -0.00654439 3.56840599 -0.00991574 C5.50684818 -0.0076903 5.50684818 -0.0076903 7.48445082 -0.00541991 C8.87797409 -0.00737325 10.27149682 -0.00976225 11.66501868 -0.01254788 C15.51097017 -0.01895331 19.35690079 -0.01910907 23.20285661 -0.01827047 C27.38081548 -0.01843986 31.55876685 -0.0243448 35.73672199 -0.02951133 C44.03072528 -0.0388438 52.32472323 -0.04276047 60.61873112 -0.0450303 C70.55031657 -0.04799068 80.48189493 -0.05668712 90.41347667 -0.06544458 C114.42007062 -0.08629651 138.42666581 -0.09675987 162.4332667 -0.10557419 C173.78787552 -0.10977954 185.14248382 -0.11500167 196.49709219 -0.12025872 C235.35753172 -0.13814936 274.2179714 -0.15314593 313.07841444 -0.16057891 C315.51843956 -0.16105367 317.95846468 -0.16152955 320.3984898 -0.16200657 C321.60853438 -0.16224294 322.81857895 -0.16247932 324.06529154 -0.16272286 C330.19607728 -0.16392407 336.32686302 -0.16513952 342.45764875 -0.16636485 C344.28266476 -0.16672507 344.28266476 -0.16672507 346.14454978 -0.16709258 C385.59775829 -0.17498662 425.05093674 -0.19842039 464.50413213 -0.23092079 C506.20644255 -0.2652113 547.90873539 -0.28492931 589.61106014 -0.28822315 C594.18821383 -0.28864069 598.76536751 -0.28912026 603.34252119 -0.28964633 C604.46956298 -0.28976952 605.59660477 -0.28989271 606.75779935 -0.29001964 C624.90252612 -0.29235261 643.04721802 -0.30801796 661.19193236 -0.32848817 C679.42741518 -0.34873454 697.66285606 -0.35422909 715.89834803 -0.34471754 C726.73356039 -0.339498 737.56863323 -0.3454015 748.40382554 -0.36725221 C755.64268567 -0.38074787 762.88144964 -0.3796942 770.12031071 -0.36685025 C774.24414594 -0.35994546 778.36771419 -0.35931183 782.49152571 -0.37641034 C786.24864434 -0.39186129 790.00528245 -0.38864387 793.7623872 -0.37100006 C795.73880868 -0.36640106 797.71524681 -0.38129667 799.69160998 -0.39715984 C815.61936996 -0.27419874 829.62165076 5.231053 841.03675032 16.44130117 C852.8122868 28.87762315 857.3269375 43.13313547 857.29597139 60.06647569 C857.29832362 60.94771337 857.30067585 61.82895105 857.30309936 62.73689291 C857.30976142 65.6926503 857.30933199 68.64836345 857.30892134 71.60412771 C857.3122217 73.74366288 857.31594763 75.88319743 857.32006282 78.02273118 C857.33007127 83.90484523 857.33379775 89.78694907 857.33645213 95.66907042 C857.34035857 102.01219369 857.34993664 108.3553089 857.35866499 114.69842702 C857.37748557 129.29389986 857.38768377 143.88937172 857.39612567 158.48485367 C857.40033534 165.70110044 857.4055569 172.91734638 857.4108102 180.13359245 C857.42869878 204.84688265 857.44369365 229.56017309 857.45113039 254.27346879 C857.45160514 255.82436476 857.45208103 257.37526073 857.45255805 258.9261567 C857.45291262 260.07978561 857.45291262 260.07978561 857.45327434 261.25672015 C857.45447551 265.15312672 857.45569097 269.04953328 857.45691633 272.94593984 C857.45715648 273.71918569 857.45739663 274.49243154 857.45764406 275.28910909 C857.46553445 300.35145485 857.48896175 325.41375325 857.52147228 350.47607834 C857.55579987 376.9877009 857.57548424 403.49929576 857.57877463 430.01094091 C857.57919215 432.92352441 857.57967171 435.8361079 857.58019781 438.74869138 C857.580321 439.46582536 857.58044419 440.18295934 857.58057112 440.92182465 C857.58289948 452.44358663 857.59853904 463.96529344 857.61903966 475.48703578 C857.63933431 487.07726662 857.64442536 498.66741594 857.63526902 510.25766294 C857.6307273 516.53201202 857.63260353 522.80618256 857.65203047 529.0805071 C857.66968337 534.83166437 857.66864683 540.58251314 857.65313318 546.33367378 C857.65076038 548.40709054 857.65506345 550.48052878 857.66696183 552.55391275 C857.77930735 573.43522234 854.82016425 590.90356028 839.86878157 606.61708242 C826.24669087 619.25633828 810.33710206 622.44573394 792.35154295 622.38327676 C790.96613716 622.38567005 789.58073266 622.38893745 788.19533074 622.39299336 C784.39519729 622.40158993 780.59516298 622.39779668 776.79502808 622.39193764 C772.65805584 622.38776019 768.52110146 622.39517334 764.38413358 622.40109015 C757.1356737 622.40984956 749.88724207 622.41116517 742.63877821 622.40758687 C731.85985691 622.40227976 721.08096296 622.40837528 710.30204463 622.41666981 C689.9306674 622.43191475 669.55930258 622.43361435 649.18792084 622.43114678 C633.45696426 622.42931445 617.72601175 622.43107246 601.99505568 622.43537122 C599.7353639 622.43597362 597.47567212 622.43657482 595.21598034 622.43717482 C591.81087278 622.43808207 588.40576522 622.43899074 585.00065766 622.43990717 C553.33892254 622.44833755 521.67718895 622.45267183 490.01545286 622.44850045 C488.82171499 622.44834408 487.62797712 622.4481877 486.39806537 622.44802659 C480.34767329 622.4472208 474.29728122 622.44637503 468.24688914 622.44551329 C467.04525406 622.4453422 465.84361897 622.44517111 464.60557069 622.44499484 C462.17557212 622.44464818 459.74557355 622.44429965 457.31557498 622.44394925 C419.50485077 622.43859205 381.69414987 622.44652209 343.88343 622.46498281 C301.40592152 622.48569774 258.92842749 622.49642647 216.45091367 622.49240732 C211.92184512 622.49201197 207.39277657 622.49165043 202.86370802 622.49130994 C201.19094303 622.49117384 201.19094303 622.49117384 199.4843848 622.491035 C182.64779184 622.4898689 165.81121347 622.49651829 148.97462416 622.50712186 C129.82655432 622.51916886 110.67851663 622.5207386 91.53044632 622.50833169 C80.81542055 622.5016997 70.10047161 622.50334202 59.38545197 622.51692021 C52.22559967 622.52516143 45.06580493 622.52247139 37.90595731 622.51094494 C33.82819388 622.50468531 29.7505804 622.50309601 25.6728256 622.51480827 C21.95643063 622.52538419 18.24031198 622.52192553 14.52393158 622.50770375 C12.57168852 622.50372755 10.61943193 622.51432591 8.66721785 622.52568081 C-9.14938683 622.41680419 -23.63935329 617.91639527 -36.62340593 605.43739492 C-47.52005303 594.07951408 -53.1773594 580.73774435 -53.09272528 564.96320134 C-53.09593176 564.06948119 -53.09913823 563.17576103 -53.10244188 562.25495845 C-53.11073764 559.26274672 -53.10481901 556.27073538 -53.09894609 553.27852041 C-53.10196697 551.11052194 -53.10585613 548.94252455 -53.11053866 546.77452904 C-53.12083571 540.81852504 -53.11863247 534.86258113 -53.11435807 528.90657216 C-53.11189393 522.48242206 -53.12090117 516.05828653 -53.12839556 509.63414174 C-53.14115359 497.04868587 -53.14294066 484.46325197 -53.14059529 471.87779078 C-53.1387622 461.6482948 -53.14052258 451.41880509 -53.14481974 441.1893099 C-53.14542214 439.71931856 -53.14602334 438.24932723 -53.14662334 436.7793359 C-53.1475306 434.56414865 -53.14843927 432.34896141 -53.14935569 430.13377416 C-53.15778501 409.53846411 -53.16212111 388.94315643 -53.15794897 368.3478449 C-53.15779259 367.57149115 -53.15763622 366.7951374 -53.1574751 365.99525779 C-53.15666933 362.06045502 -53.15582356 358.12565227 -53.1549618 354.19084951 C-53.15479071 353.40939634 -53.15461963 352.62794316 -53.15444335 351.82280958 C-53.1540967 350.24252105 -53.15374817 348.66223252 -53.15339777 347.08194399 C-53.14804143 322.4966374 -53.15596858 297.91136669 -53.17443132 273.32606679 C-53.19515434 245.69865147 -53.20587339 218.07125837 -53.20185584 190.44383484 C-53.2014605 187.49707506 -53.20109895 184.55031528 -53.20075846 181.6035555 C-53.20066773 180.87799943 -53.20057699 180.15244335 -53.20048351 179.40490073 C-53.19931823 168.45862286 -53.20596066 157.51236744 -53.21657038 146.56609517 C-53.22862752 134.11384673 -53.22989751 121.66165124 -53.21778021 109.20940194 C-53.21188609 102.85658948 -53.21080693 96.50387361 -53.22278261 90.15106755 C-53.2336228 84.33296726 -53.23056004 78.51504442 -53.21652093 72.69695249 C-53.21386887 70.59470409 -53.21625647 68.49244187 -53.22425679 66.39020702 C-53.29413285 46.65562643 -50.61931852 30.31319392 -36.34996843 15.41395742 C-26.15542472 6.13898374 -13.92412007 0.01014202 0 0 Z " fill="#2157A6" transform="translate(2230.83824968338,28.87119883298874)"/>
<path d="M0 0 C3.59703296 3.12239213 7.05748995 6.3481108 10.45703125 9.68359375 C11.03662598 10.24900879 11.6162207 10.81442383 12.21337891 11.39697266 C16.38706333 15.61925893 18.7452671 19.3822711 22.01953125 24.62109375 C22.34953125 11.42109375 22.67953125 -1.77890625 23.01953125 -15.37890625 C57.66953125 -15.37890625 92.31953125 -15.37890625 128.01953125 -15.37890625 C128.01953125 79.00109375 128.01953125 173.38109375 128.01953125 270.62109375 C93.69953125 270.62109375 59.37953125 270.62109375 24.01953125 270.62109375 C23.68953125 256.10109375 23.35953125 241.58109375 23.01953125 226.62109375 C21.03953125 229.59109375 19.05953125 232.56109375 17.01953125 235.62109375 C-2.12300876 259.10921037 -28.96375987 274.57050061 -58.98046875 278.62109375 C-59.94082031 278.75257813 -60.90117187 278.8840625 -61.890625 279.01953125 C-94.85219854 282.88507236 -129.10283541 273.59510137 -155.47265625 253.640625 C-159.81594337 250.14299347 -163.93330755 246.4559039 -167.98046875 242.62109375 C-168.87765625 241.78835938 -169.77484375 240.955625 -170.69921875 240.09765625 C-187.19023054 224.30149046 -198.11350559 204.2549615 -205.27832031 182.72363281 C-205.89170713 180.88688481 -206.53876998 179.06145226 -207.19140625 177.23828125 C-210.46473154 167.61519712 -211.71389046 157.66675433 -212.98046875 147.62109375 C-213.1815625 146.07228516 -213.1815625 146.07228516 -213.38671875 144.4921875 C-216.02730779 120.47016218 -213.28529995 93.36051251 -204.98046875 70.62109375 C-204.51253906 69.33912109 -204.51253906 69.33912109 -204.03515625 68.03125 C-189.64998428 31.36415081 -163.29745319 1.56708033 -126.98046875 -14.37890625 C-116.81781013 -18.37875478 -106.73344317 -20.67864961 -95.98046875 -22.37890625 C-94.44519531 -22.65734375 -94.44519531 -22.65734375 -92.87890625 -22.94140625 C-60.47456416 -26.57796568 -26.08512699 -20.58976508 0 0 Z " fill="#FEFEFE" transform="translate(2673.98046875,296.37890625)"/>
<path d="M0 0 C31.35 0 62.7 0 95 0 C95.33 66.33 95.66 132.66 96 201 C99.465 196.545 99.465 196.545 103 192 C120.80124723 172.51938983 147.60288226 163.43108923 173.39746094 162.12548828 C204.88061703 161.03922734 235.64329221 171.03259687 259.26953125 192.015625 C279.10416127 210.77341871 287.28648533 236.30936468 288.17764664 263.14215279 C288.26518993 267.39257689 288.24847464 271.64180235 288.22705078 275.89282227 C288.22648465 277.50122063 288.22680716 279.10961951 288.22793579 280.71801758 C288.22850243 285.02477172 288.21686168 289.33141119 288.20278788 293.63813901 C288.19016375 298.16109186 288.18910092 302.68404824 288.18673706 307.20701599 C288.18055624 315.74526452 288.16419213 324.28346095 288.14403808 332.82168669 C288.11735995 344.37820861 288.10667894 355.93474508 288.09503365 367.49129009 C288.07630853 385.66089897 288.03644043 403.830398 288 422 C256.98 422 225.96 422 194 422 C193.95101563 412.10257812 193.90203125 402.20515625 193.8515625 392.0078125 C193.81614599 385.70962705 193.78024645 379.41145037 193.7421875 373.11328125 C193.68196679 363.13299629 193.62362773 353.15272765 193.578125 343.17236328 C193.54496377 335.90092645 193.50500377 328.62956252 193.45720994 321.35820663 C193.43218202 317.51566506 193.41033396 313.67317034 193.39665604 309.83057022 C194.69953364 272.87030034 194.69953364 272.87030034 178.34375 241.32421875 C168.92502382 232.69752182 158.20815992 230.4714611 145.69140625 230.6875 C131.28497653 231.90709193 118.78217477 238.45416103 109 249 C98.80484759 262.62040124 95.7087557 275.44798402 95.68115234 292.24047852 C95.67183844 293.66051291 95.66166762 295.0805419 95.65071106 296.50056458 C95.62356164 300.3304766 95.60830668 304.16035215 95.59528303 307.99033475 C95.57958612 312.00221994 95.55281703 316.01403139 95.5272522 320.02586365 C95.48058004 327.61163623 95.4437802 335.19742286 95.41057932 342.78326505 C95.36510503 353.04192952 95.30427467 363.3005024 95.24433136 373.55909061 C95.15038371 389.70601435 95.07686175 405.85296495 95 422 C63.65 422 32.3 422 0 422 C0 282.74 0 143.48 0 0 Z " fill="#565656" transform="translate(1240,31)"/>
<path d="M0 0 C8.71102354 8.76189083 8.71102354 8.76189083 10.67578125 12.69140625 C11.00578125 1.80140625 11.33578125 -9.08859375 11.67578125 -20.30859375 C42.36578125 -20.30859375 73.05578125 -20.30859375 104.67578125 -20.30859375 C104.67578125 62.85140625 104.67578125 146.01140625 104.67578125 231.69140625 C74.31578125 231.69140625 43.95578125 231.69140625 12.67578125 231.69140625 C12.34578125 219.48140625 12.01578125 207.27140625 11.67578125 194.69140625 C8.21078125 199.14640625 8.21078125 199.14640625 4.67578125 203.69140625 C-10.60646537 222.99052797 -35.09429204 236.37925244 -59.50390625 239.22265625 C-93.33602253 242.83529094 -124.85989124 234.02874154 -151.32421875 212.69140625 C-158.28758431 207.07145527 -163.88649457 200.78758605 -169.32421875 193.69140625 C-169.90816406 192.94632813 -170.49210937 192.20125 -171.09375 191.43359375 C-194.20057939 160.37195425 -200.89046836 120.14189211 -195.73828125 82.37060547 C-190.27013315 46.98885003 -173.03374235 14.58335288 -143.8984375 -6.82421875 C-101.56623379 -36.83839703 -38.25485626 -36.949318 0 0 Z M-89.32421875 64.69140625 C-102.14204523 79.88142768 -105.39626526 96.38224667 -104.32421875 115.69140625 C-102.37602808 131.50928461 -92.96244409 144.52863878 -80.94921875 154.50390625 C-68.45765051 163.64145617 -53.31611201 166.84806311 -38.0546875 165.3203125 C-26.53629429 163.3784682 -17.24347241 159.32380241 -8.32421875 151.69140625 C-7.68097656 151.170625 -7.03773438 150.64984375 -6.375 150.11328125 C3.34931164 141.45973651 9.82718857 127.03196809 10.87841797 114.22216797 C11.88045739 94.79829349 8.26954623 78.39741106 -4.7109375 63.30078125 C-16.0717012 51.95699926 -29.55956454 46.49440814 -45.44921875 46.44140625 C-62.46923905 46.46398564 -77.15286225 52.53829766 -89.32421875 64.69140625 Z " fill="#565656" transform="translate(1771.32421875,221.30859375)"/>
<path d="M0 0 C94.05 0 188.1 0 285 0 C285 26.73 285 53.46 285 81 C253.32 81 221.64 81 189 81 C189 187.92 189 294.84 189 405 C158.31 405 127.62 405 96 405 C96 298.08 96 191.16 96 81 C64.32 81 32.64 81 0 81 C0 54.27 0 27.54 0 0 Z " fill="#565656" transform="translate(902,48)"/>
<path d="M0 0 C94.05 0 188.1 0 285 0 C285 26.73 285 53.46 285 81 C253.32 81 221.64 81 189 81 C189 187.92 189 294.84 189 405 C158.31 405 127.62 405 96 405 C96 298.08 96 191.16 96 81 C64.32 81 32.64 81 0 81 C0 54.27 0 27.54 0 0 Z " fill="#565656" transform="translate(12,48)"/>
<path d="M0 0 C31.02 0 62.04 0 94 0 C97.34125 9.44625 100.6825 18.8925 104.125 28.625 C106.24062758 34.60425807 108.35631763 40.58349362 110.47265625 46.5625 C110.73704058 47.30943115 111.0014249 48.0563623 111.27382088 48.82592773 C129.22530927 99.56210724 129.22530927 99.56210724 147.3125 150.25 C147.75301193 151.48040009 147.75301193 151.48040009 148.2024231 152.73565674 C149.00464091 154.97531907 149.80859251 157.21434946 150.61328125 159.453125 C151.05454346 160.68192383 151.49580566 161.91072266 151.95043945 163.17675781 C152.90535949 165.90031463 152.90535949 165.90031463 154 168 C154.23783203 167.37512695 154.47566406 166.75025391 154.72070312 166.10644531 C164.42982085 140.67141775 174.59876648 115.41888342 184.73054504 90.15023804 C188.87460221 79.8139572 193.01009543 69.47426897 197.14228821 59.13323975 C198.1854552 56.52270505 199.22875201 53.91222228 200.27209473 51.30175781 C200.61419605 50.44580772 200.95629738 49.58985764 201.30876541 48.70796967 C201.99648582 46.98727129 202.68420706 45.26657325 203.37192917 43.54587555 C205.072736 39.29028189 206.77328642 35.0345861 208.47332764 30.77868652 C210.07650826 26.7653719 211.6805185 22.75238982 213.28513908 18.73965073 C213.88006159 17.25146605 214.47467674 15.76315847 215.06897163 14.27472305 C215.88300041 12.23605452 216.69808116 10.19780974 217.51342773 8.15966797 C217.97176498 7.01271454 218.43010223 5.86576111 218.90232849 4.68405151 C220 2 220 2 221 0 C251.69 0 282.38 0 314 0 C306.13076462 17.98682372 306.13076462 17.98682372 303.34375 24.05859375 C303.03953125 24.72258682 302.7353125 25.3865799 302.421875 26.07069397 C301.77946952 27.47252525 301.13648353 28.87409065 300.49291992 30.27539062 C298.74238948 34.08721693 296.99653301 37.90118465 295.25 41.71484375 C294.89377563 42.49238007 294.53755127 43.26991638 294.17053223 44.0710144 C290.59718917 51.87319288 287.04720147 59.68591087 283.5 67.5 C278.01587988 79.57819924 272.50874164 91.64570821 266.98974609 103.70800781 C262.14458594 114.29844497 257.31520057 124.895909 252.5 135.5 C247.01550097 147.57802788 241.50874221 159.64570697 235.98974609 171.70800781 C231.14458594 182.29844497 226.31520057 192.895909 221.5 203.5 C216.01550097 215.57802788 210.50874221 227.64570697 204.98974609 239.70800781 C200.14458594 250.29844497 195.31520057 260.895909 190.5 271.5 C185.01717819 283.57433429 179.51224056 295.63838655 173.99478149 307.69692993 C168.47198223 319.7680688 162.9701081 331.84858451 157.48632812 343.9375 C152.02294456 355.97332769 146.5074144 367.98382313 141 380 C109.65 380 78.3 380 46 380 C51.50225259 367.16141062 57.02681108 354.42239 62.94107056 341.78118896 C65.0162559 337.34453416 67.07985186 332.90248869 69.14453125 328.4609375 C69.55807358 327.57185699 69.97161591 326.68277649 70.39768982 325.76675415 C74.85941116 316.16651212 79.25934712 306.53843473 83.61181641 296.88818359 C84.20598695 295.5712585 84.80022496 294.25436384 85.39453125 292.9375 C85.68585938 292.29173004 85.9771875 291.64596008 86.27734375 290.98062134 C88.16729336 286.80393389 90.09528137 282.64665198 92.04704285 278.49850464 C93.38773598 275.64528213 94.71552696 272.78614782 96.04208374 269.92633057 C96.67256653 268.57618268 97.30915659 267.22886718 97.95230103 265.88470459 C98.83833045 264.03170035 99.7023924 262.16983393 100.5625 260.3046875 C101.05878906 259.25265137 101.55507813 258.20061523 102.06640625 257.11669922 C104.13913327 250.19712987 101.0838131 244.2019044 98.34375 237.9140625 C97.78293983 236.59870514 97.78293983 236.59870514 97.21080017 235.2567749 C96.40342716 233.36549283 95.59229825 231.47581057 94.77780151 229.58758545 C93.03445141 225.54562464 91.30941637 221.49593236 89.58335876 217.44656372 C88.69304103 215.35818428 87.80180753 213.27019501 86.90968323 211.18258667 C82.67923449 201.27667633 78.5478644 191.3311998 74.4375 181.375 C73.03725505 177.98795138 71.63603234 174.6013081 70.234375 171.21484375 C69.88706833 170.37563889 69.53976166 169.53643402 69.18193054 168.67179871 C65.21046755 159.08253561 61.19971868 149.50976509 57.1875 139.9375 C50.7729974 124.63274026 44.3785147 109.31979387 38 94 C31.85659885 79.24556722 25.70236416 64.4957635 19.52825928 49.75415039 C18.3934329 47.04402043 17.25934907 44.33358094 16.12548828 41.62304688 C11.79600048 31.27416076 11.79600048 31.27416076 7.43685913 20.93774414 C6.6902233 19.17400343 5.94588668 17.40928994 5.20166016 15.64453125 C4.35158865 13.62963964 3.4974643 11.61645021 2.63818359 9.60546875 C2.28062988 8.75597656 1.92307617 7.90648437 1.5546875 7.03125 C1.25030762 6.31517578 0.94592773 5.59910156 0.63232422 4.86132812 C0 3 0 3 0 0 Z " fill="#565656" transform="translate(575,201)"/>
<path d="M0 0 C30.69 0 61.38 0 93 0 C93 33.99 93 67.98 93 103 C111.48 103 129.96 103 149 103 C149 128.41 149 153.82 149 180 C130.52 180 112.04 180 93 180 C93.09104524 193.92593308 93.09104524 193.92593308 93.20898438 207.8515625 C93.26310962 213.53936219 93.31422649 219.22706753 93.34643555 224.91503906 C93.3726316 229.50583718 93.41314656 234.09631461 93.46318626 238.68691254 C93.47974556 240.42975597 93.49132739 242.17265473 93.49761391 243.91556549 C93.299941 263.55426206 93.299941 263.55426206 102.25 280.25 C108.65411563 284.32534631 114.75931771 284.58637797 122 283 C126.49630352 281.30328169 130.2028423 278.92089054 134 276 C134.66 276 135.32 276 136 276 C138.80918391 281.73857351 141.61656953 287.47802444 144.42285156 293.21801758 C145.3726575 295.16026533 146.32283756 297.10233019 147.2734375 299.04418945 C149.59047254 303.77766623 151.90186697 308.51372787 154.20214844 313.25537109 C156.09768877 317.16147201 158.02135591 321.05211944 159.96191406 324.93603516 C160.89421033 326.82828791 161.82618884 328.72069726 162.7578125 330.61328125 C163.42126175 331.92041328 163.42126175 331.92041328 164.09811401 333.25395203 C164.49515533 334.06773819 164.89219666 334.88152435 165.30126953 335.7199707 C165.83133102 336.78257866 165.83133102 336.78257866 166.37210083 337.86665344 C167.17337592 340.58906102 166.82760328 342.31041793 166 345 C164.30786133 346.29858398 164.30786133 346.29858398 162.08203125 347.24609375 C160.83474243 347.78544556 160.83474243 347.78544556 159.56225586 348.33569336 C158.20112671 348.88108765 158.20112671 348.88108765 156.8125 349.4375 C155.41173218 350.01673218 155.41173218 350.01673218 153.98266602 350.60766602 C120.13057544 364.17616426 79.57603429 369.25055612 45.10693359 355.22998047 C28.28791128 347.97096343 14.87994805 335.58632967 7 319 C1.93707084 306.21823252 -0.32622461 293.16860823 -0.22705078 279.44824219 C-0.22734283 278.36384354 -0.22763489 277.27944489 -0.22793579 276.16218567 C-0.22655675 272.62366368 -0.21106336 269.08535962 -0.1953125 265.546875 C-0.1915773 263.07537959 -0.18873272 260.60388268 -0.18673706 258.13238525 C-0.17914058 251.66176182 -0.15952666 245.19122971 -0.1373291 238.72064209 C-0.11678443 232.10413854 -0.10771698 225.48762008 -0.09765625 218.87109375 C-0.07627671 205.91401614 -0.0411274 192.95702999 0 180 C-14.19 180 -28.38 180 -43 180 C-43 154.59 -43 129.18 -43 103 C-28.81 103 -14.62 103 0 103 C0 69.01 0 35.02 0 0 Z " fill="#565656" transform="translate(1962,98)"/>
<path d="M0 0 C-0.63603002 4.83702013 -2.6429208 8.72698347 -4.796875 13.03515625 C-5.37511017 14.21048668 -5.37511017 14.21048668 -5.96502686 15.40956116 C-6.79254512 17.09074084 -7.62256199 18.77069252 -8.45483398 20.44952393 C-10.63323866 24.84441942 -12.79359255 29.24815122 -14.953125 33.65234375 C-15.38463867 34.53168579 -15.81615234 35.41102783 -16.26074219 36.3170166 C-20.6769485 45.3398551 -24.90796101 54.44297769 -29.07714844 63.58227539 C-29.55700195 64.63020264 -30.03685547 65.67812988 -30.53125 66.7578125 C-30.93923828 67.6564502 -31.34722656 68.55508789 -31.76757812 69.48095703 C-33.04175954 72.08535557 -34.47376585 74.5362062 -36 77 C-36.41507813 76.64808594 -36.83015625 76.29617188 -37.2578125 75.93359375 C-50.78445011 65.09530462 -66.70975724 59.80604462 -84 61 C-98.82902451 62.99296685 -109.32854468 68.54068762 -119 80 C-129.80613646 94.62146095 -132.28554768 111.4958056 -132.31884766 129.22583008 C-132.32889328 130.47618546 -132.3389389 131.72654083 -132.34928894 133.01478577 C-132.37463692 136.39824127 -132.39163878 139.78153393 -132.40471697 143.16504502 C-132.42049392 146.71779886 -132.44723651 150.27047102 -132.4727478 153.82316589 C-132.5192806 160.53048607 -132.55614691 167.23782206 -132.58942068 173.9452197 C-132.63502392 183.02320808 -132.69580241 192.10109457 -132.75566864 201.17899799 C-132.84940431 215.4526139 -132.92307444 229.72626066 -133 244 C-164.02 244 -195.04 244 -227 244 C-227 160.84 -227 77.68 -227 -8 C-195.98 -8 -164.96 -8 -133 -8 C-132.67 2.56 -132.34 13.12 -132 24 C-129.36 20.37 -126.72 16.74 -124 13 C-108.81310669 -4.3183871 -86.86309865 -13.61865047 -64.25 -15.75 C-41.61645572 -16.93857719 -18.89364564 -13.2342587 0 0 Z " fill="#565656" transform="translate(571,209)"/>
<path d="M0 0 C34.65 0 69.3 0 105 0 C105 94.38 105 188.76 105 286 C70.35 286 35.7 286 0 286 C0 191.62 0 97.24 0 0 Z " fill="#FEFEFE" transform="translate(2880,281)"/>
<path d="M0 0 C13.00724706 11.05408216 22.02634326 27.18409172 23.75 44.25 C25.04651788 67.32346901 21.15295706 85.33220239 5.91796875 103.42578125 C-4.78202431 115.02682636 -19.98448722 121.83106338 -35.68359375 122.48828125 C-56.17392685 122.94066523 -72.654948 117.94540543 -87.875 103.8125 C-88.65875 102.966875 -89.4425 102.12125 -90.25 101.25 C-90.79269531 100.70085937 -91.33539062 100.15171875 -91.89453125 99.5859375 C-97.06697736 94.10922986 -100.19801608 88.09835417 -103.25 81.25 C-103.5696875 80.54875 -103.889375 79.8475 -104.21875 79.125 C-110.41909465 64.24417285 -110.13797118 45.167996 -104.45166016 30.14013672 C-96.38113557 11.21267879 -82.99924888 -2.3096491 -63.92578125 -10.109375 C-41.85979496 -17.7507956 -18.66650873 -14.09221968 0 0 Z " fill="#2157A6" transform="translate(2672.25,369.75)"/>
<path d="M0 0 C9.36361441 7.25779448 18.11809621 16.08955311 23 27 C23.39316406 27.85078125 23.78632813 28.7015625 24.19140625 29.578125 C29.48529087 43.37542706 29.22347007 62.01531501 24.3984375 75.92578125 C16.54756069 93.18455233 4.58619575 105.61249026 -13 113 C-13.63566895 113.26997803 -14.27133789 113.53995605 -14.92626953 113.81811523 C-21.50156022 116.33597774 -27.7640161 116.50170755 -34.75 116.4375 C-35.90580566 116.42920166 -37.06161133 116.42090332 -38.25244141 116.41235352 C-55.04594933 116.07923367 -68.40404369 110.0744209 -80.68359375 98.4453125 C-93.51989102 84.89468502 -99.5668683 68.81272126 -99.48974609 50.28686523 C-98.94553051 33.44790036 -91.22862286 17.53998028 -79 6 C-56.42403323 -13.25597166 -25.26466766 -16.39819939 0 0 Z " fill="#FEFEFE" transform="translate(2365,459)"/>
<path d="M0 0 C12.05688865 9.57561591 21.44110383 20.76587611 25 36 C25.185625 36.74121094 25.37125 37.48242188 25.5625 38.24609375 C27.06067227 47.67655315 27.09617003 58.92501887 24 68 C23.63261719 69.17175781 23.63261719 69.17175781 23.2578125 70.3671875 C17.78081558 85.92573628 5.42151164 98.04571399 -9.18701172 105.17041016 C-22.38988253 111.2117992 -38.16950977 112.25111397 -52.13671875 108.09765625 C-62.28966444 104.20546288 -70.39071588 98.71683584 -78 91 C-78.64710938 90.36320312 -79.29421875 89.72640625 -79.9609375 89.0703125 C-90.80472367 77.65829299 -94.51632142 62.98138222 -94.34936523 47.64526367 C-93.8293419 30.94281942 -86.80751416 17.6630166 -75 6 C-74.38640625 5.36449219 -73.7728125 4.72898437 -73.140625 4.07421875 C-53.51926521 -14.83439933 -21.84406387 -14.64913482 0 0 Z " fill="#FEFEFE" transform="translate(2968,113)"/>
<path d="M0 0 C9.19875 -0.061875 18.3975 -0.12375 27.875 -0.1875 C30.75976074 -0.21481201 33.64452148 -0.24212402 36.61669922 -0.27026367 C38.92935773 -0.27903392 41.24202092 -0.28667658 43.5546875 -0.29296875 C44.73426025 -0.30831665 45.91383301 -0.32366455 47.12915039 -0.33947754 C59.37807061 -0.34331893 68.96988154 2.40670444 78.01171875 10.88671875 C85.23818859 18.59798321 86.98648248 26.55095915 87 37 C86.2731309 46.05282425 82.88612556 53.62712865 76.1875 59.8125 C72.39121367 62.92183928 68.47097341 65.00402973 64 67 C68.63947749 77.04160881 74.30892946 86.44137652 79.9765625 95.92578125 C80.98489191 97.6168794 81.99274633 99.3082609 83 101 C83.42506836 101.71075684 83.85013672 102.42151367 84.28808594 103.15380859 C87 107.76787874 87 107.76787874 87 110 C60.55867163 112.6547036 60.55867163 112.6547036 53.74365234 108.68603516 C50.25726287 105.00260271 48.69486171 100.42445431 47.05029297 95.70166016 C45.04651431 90.54735642 42.11332585 85.85407809 39.375 81.0625 C38.33266467 79.18306411 37.29812994 77.29926916 36.2734375 75.41015625 C35.83435059 74.60715088 35.39526367 73.80414551 34.94287109 72.97680664 C34 71 34 71 34 69 C32.02 69 30.04 69 28 69 C28 82.53 28 96.06 28 110 C18.76 110 9.52 110 0 110 C0 73.7 0 37.4 0 0 Z M28 23 C28 31.58 28 40.16 28 49 C33.011875 49.0928125 33.011875 49.0928125 38.125 49.1875 C39.16672363 49.21481201 40.20844727 49.24212402 41.28173828 49.27026367 C46.61704568 49.31798281 50.40926431 49.04577656 55 46 C58.42704357 42.23025207 58.51190884 38.33196954 58.3515625 33.44140625 C57.82500498 29.78475677 56.48643739 27.68804042 54 25 C50.52670073 23.29232186 47.76807645 22.75744691 43.91796875 22.8046875 C43.0777417 22.80968262 42.23751465 22.81467773 41.37182617 22.81982422 C39.79558472 22.84713623 39.79558472 22.84713623 38.1875 22.875 C33.1446875 22.936875 33.1446875 22.936875 28 23 Z " fill="#FF7E27" transform="translate(1256,540)"/>
<path d="M0 0 C2.52827361 1.87448857 4.71764009 3.81687313 7 6 C7.33 3.03 7.66 0.06 8 -3 C17.24 -3 26.48 -3 36 -3 C36 26.04 36 55.08 36 85 C26.76 85 17.52 85 8 85 C7.505 81.04 7.505 81.04 7 77 C6.50371094 77.39832031 6.00742188 77.79664063 5.49609375 78.20703125 C-3.40312115 85.14740567 -11.67605025 87.86983398 -23 87 C-33.52478142 85.25327116 -41.65068322 80.50030203 -48.43359375 72.26953125 C-54.80258956 63.04163458 -57.39128569 52.81488683 -57.3125 41.75 C-57.30686035 40.91734619 -57.3012207 40.08469238 -57.29541016 39.22680664 C-57.03144371 25.73968924 -52.91596166 15.18502189 -44 5 C-41.44921875 3.05078125 -41.44921875 3.05078125 -38.6875 1.3125 C-37.78386719 0.73113281 -36.88023438 0.14976562 -35.94921875 -0.44921875 C-25.30662516 -6.04539048 -10.4113599 -6.30412618 0 0 Z M-24.375 26.25 C-28.67455162 31.82306012 -29.78446624 38.06840483 -29 45 C-27.67935623 52.57081923 -24.17851873 56.59239428 -18 61 C-14.04474536 62.97762732 -9.31019688 62.42863836 -5 62 C-0.12171802 60.36203671 3.1926918 57.2629495 6 53 C9.00756786 46.70256549 9.19402808 39.25372504 7.3125 32.55078125 C4.75059886 26.9466225 0.95050388 23.54901454 -4.5 20.6875 C-11.99203216 18.62719116 -19.12129273 20.54780553 -24.375 26.25 Z " fill="#FF7E27" transform="translate(1928,565)"/>
<path d="M0 0 C2.52827361 1.87448857 4.71764009 3.81687313 7 6 C7.33 3.03 7.66 0.06 8 -3 C17.24 -3 26.48 -3 36 -3 C36 26.04 36 55.08 36 85 C26.76 85 17.52 85 8 85 C7.505 81.04 7.505 81.04 7 77 C6.50371094 77.39832031 6.00742188 77.79664063 5.49609375 78.20703125 C-3.40312115 85.14740567 -11.67605025 87.86983398 -23 87 C-33.52478142 85.25327116 -41.65068322 80.50030203 -48.43359375 72.26953125 C-54.80258956 63.04163458 -57.39128569 52.81488683 -57.3125 41.75 C-57.30686035 40.91734619 -57.3012207 40.08469238 -57.29541016 39.22680664 C-57.03144371 25.73968924 -52.91596166 15.18502189 -44 5 C-41.44921875 3.05078125 -41.44921875 3.05078125 -38.6875 1.3125 C-37.78386719 0.73113281 -36.88023438 0.14976562 -35.94921875 -0.44921875 C-25.30662516 -6.04539048 -10.4113599 -6.30412618 0 0 Z M-24.375 26.25 C-28.67455162 31.82306012 -29.78446624 38.06840483 -29 45 C-27.67935623 52.57081923 -24.17851873 56.59239428 -18 61 C-14.04474536 62.97762732 -9.31019688 62.42863836 -5 62 C-0.12171802 60.36203671 3.1926918 57.2629495 6 53 C9.00756786 46.70256549 9.19402808 39.25372504 7.3125 32.55078125 C4.75059886 26.9466225 0.95050388 23.54901454 -4.5 20.6875 C-11.99203216 18.62719116 -19.12129273 20.54780553 -24.375 26.25 Z " fill="#FF7E27" transform="translate(1507,565)"/>
<path d="M0 0 C22.77 0 45.54 0 69 0 C69 7.26 69 14.52 69 22 C55.47 22 41.94 22 28 22 C28 28.93 28 35.86 28 43 C39.88 43 51.76 43 64 43 C64 50.26 64 57.52 64 65 C52.12 65 40.24 65 28 65 C28 72.59 28 80.18 28 88 C41.53 88 55.06 88 69 88 C69 95.26 69 102.52 69 110 C46.23 110 23.46 110 0 110 C0 73.7 0 37.4 0 0 Z " fill="#FF7E27" transform="translate(1640,540)"/>
<path d="M0 0 C8.33164081 7.64635434 12.11445236 18.45264117 12.6796875 29.53125 C12.72673828 30.23378906 12.77378906 30.93632813 12.82226562 31.66015625 C13.02869294 35.24048576 12.8721421 37.88643159 11.9921875 41.40625 C-7.8078125 41.40625 -27.6078125 41.40625 -48.0078125 41.40625 C-45.33280156 50.32869515 -45.33280156 50.32869515 -39.0078125 55.40625 C-35.28433516 56.64740911 -31.87567078 56.9483362 -28.0078125 56.40625 C-25.08330903 54.80604999 -22.80526238 53.4474742 -20.76831055 50.7878418 C-18.02319175 48.63354596 -15.58538264 49.06982506 -12.15234375 49.11328125 C-11.49070724 49.11752609 -10.82907074 49.12177094 -10.14738464 49.12614441 C-8.0379434 49.14291307 -5.92946404 49.18055901 -3.8203125 49.21875 C-2.38868569 49.23379932 -0.95704388 49.2474873 0.47460938 49.25976562 C3.98078038 49.2928097 7.48639004 49.34457833 10.9921875 49.40625 C6.97961484 61.64318327 0.6367282 70.33258628 -11.0078125 76.40625 C-23.65648355 81.73421426 -37.6976656 82.10926888 -50.46484375 77.03125 C-62.12011953 71.84904873 -69.29550161 64.31103541 -74.0078125 52.40625 C-78.5730256 40.16861069 -77.19525447 24.10627487 -72.0078125 12.40625 C-66.71573291 2.04728569 -57.98914581 -5.32439436 -47.140625 -9.2734375 C-30.62233511 -13.96540311 -13.32018107 -10.57321766 0 0 Z M-44.9453125 17.28125 C-47.35355318 20.50360572 -47.35355318 20.50360572 -48.0078125 25.40625 C-37.4478125 25.40625 -26.8878125 25.40625 -16.0078125 25.40625 C-17.05284349 19.13606407 -17.33483631 18.16494824 -22.0078125 14.40625 C-30.0391343 10.24717264 -38.55479724 10.09423574 -44.9453125 17.28125 Z " fill="#FF7E27" transform="translate(2117.0078125,571.59375)"/>
<path d="M0 0 C8.33164081 7.64635434 12.11445236 18.45264117 12.6796875 29.53125 C12.72673828 30.23378906 12.77378906 30.93632813 12.82226562 31.66015625 C13.02869294 35.24048576 12.8721421 37.88643159 11.9921875 41.40625 C-7.8078125 41.40625 -27.6078125 41.40625 -48.0078125 41.40625 C-45.33280156 50.32869515 -45.33280156 50.32869515 -39.0078125 55.40625 C-35.28433516 56.64740911 -31.87567078 56.9483362 -28.0078125 56.40625 C-25.08330903 54.80604999 -22.80526238 53.4474742 -20.76831055 50.7878418 C-18.02319175 48.63354596 -15.58538264 49.06982506 -12.15234375 49.11328125 C-11.49070724 49.11752609 -10.82907074 49.12177094 -10.14738464 49.12614441 C-8.0379434 49.14291307 -5.92946404 49.18055901 -3.8203125 49.21875 C-2.38868569 49.23379932 -0.95704388 49.2474873 0.47460938 49.25976562 C3.98078038 49.2928097 7.48639004 49.34457833 10.9921875 49.40625 C6.97961484 61.64318327 0.6367282 70.33258628 -11.0078125 76.40625 C-23.65648355 81.73421426 -37.6976656 82.10926888 -50.46484375 77.03125 C-62.12011953 71.84904873 -69.29550161 64.31103541 -74.0078125 52.40625 C-78.5730256 40.16861069 -77.19525447 24.10627487 -72.0078125 12.40625 C-66.71573291 2.04728569 -57.98914581 -5.32439436 -47.140625 -9.2734375 C-30.62233511 -13.96540311 -13.32018107 -10.57321766 0 0 Z M-44.9453125 17.28125 C-47.35355318 20.50360572 -47.35355318 20.50360572 -48.0078125 25.40625 C-37.4478125 25.40625 -26.8878125 25.40625 -16.0078125 25.40625 C-17.05284349 19.13606407 -17.33483631 18.16494824 -22.0078125 14.40625 C-30.0391343 10.24717264 -38.55479724 10.09423574 -44.9453125 17.28125 Z " fill="#FF7E27" transform="translate(1429.0078125,571.59375)"/>
<path d="M0 0 C8.71049725 7.21617441 11.83487722 13.94854898 13.2265625 25.08203125 C4.6465625 25.08203125 -3.9334375 25.08203125 -12.7734375 25.08203125 C-13.7634375 23.10203125 -14.7534375 21.12203125 -15.7734375 19.08203125 C-19.43578583 15.85054743 -22.96668172 15.57740234 -27.6796875 15.7109375 C-30.68232262 16.24312096 -32.02927427 17.65536937 -33.7734375 20.08203125 C-33.29946927 22.56446931 -33.29946927 22.56446931 -31.7734375 25.08203125 C-29.29571034 26.18188548 -27.17852346 26.91398619 -24.5859375 27.58203125 C-23.13635564 27.99612682 -21.68714517 28.41152441 -20.23828125 28.828125 C-19.49819824 29.03421387 -18.75811523 29.24030273 -17.99560547 29.45263672 C-14.52006822 30.43702861 -11.08300285 31.52672451 -7.6484375 32.64453125 C-6.47023438 33.01707031 -5.29203125 33.38960937 -4.078125 33.7734375 C0.91550954 35.75082234 5.01185835 38.39805625 8.4765625 42.51953125 C8.95609375 43.07511719 9.435625 43.63070312 9.9296875 44.203125 C14.14377203 50.30847036 14.01701839 56.92632532 13.2265625 64.08203125 C11.03797889 71.53339497 6.96174949 76.33895695 0.2265625 80.08203125 C-13.20943762 86.63155482 -27.64932782 86.62709732 -41.7734375 82.08203125 C-51.27619598 77.94235652 -57.2109894 72.33416704 -61.7734375 63.08203125 C-62.1034375 62.42203125 -62.4334375 61.76203125 -62.7734375 61.08203125 C-62.7734375 58.77203125 -62.7734375 56.46203125 -62.7734375 54.08203125 C-53.8634375 54.08203125 -44.9534375 54.08203125 -35.7734375 54.08203125 C-34.7834375 56.06203125 -33.7934375 58.04203125 -32.7734375 60.08203125 C-28.05702255 63.37255331 -24.32531183 63.52976305 -18.7734375 63.08203125 C-16.33181183 62.57369887 -16.33181183 62.57369887 -14.7734375 61.08203125 C-13.69319092 58.68092908 -13.69319092 58.68092908 -13.7734375 56.08203125 C-16.22153354 52.53366733 -20.08699601 51.83166213 -24.0234375 50.70703125 C-25.46638025 50.27160942 -26.90908307 49.83539178 -28.3515625 49.3984375 C-30.52079364 48.75138194 -32.69064539 48.10652424 -34.86132812 47.46435547 C-52.95636787 42.04895589 -52.95636787 42.04895589 -58.2109375 33.51953125 C-61.57019589 26.12916279 -61.68309145 18.96391896 -58.859375 11.34765625 C-54.70176659 2.67350921 -47.49552805 -1.48379413 -38.7734375 -4.91796875 C-26.54153743 -8.32379492 -10.46188729 -7.23491079 0 0 Z " fill="#FF7E27" transform="translate(1783.7734375,566.91796875)"/>
<path d="M0 0 C9.24 0 18.48 0 28 0 C28 6.93 28 13.86 28 21 C33.94 21 39.88 21 46 21 C46 28.59 46 36.18 46 44 C40.06 44 34.12 44 28 44 C28.05105555 49.19745481 28.11398512 54.39191546 28.20751953 59.58837891 C28.23572397 61.35553311 28.25694118 63.12281334 28.27099609 64.89013672 C28.29243358 67.43262222 28.33908503 69.97359338 28.390625 72.515625 C28.39185364 73.30430969 28.39308228 74.09299438 28.39434814 74.90557861 C28.48896448 78.45857172 28.70059934 80.59357953 30.8359375 83.4921875 C33.81518212 85.56797888 36.15050084 85.60602003 39.75 85.75 C41.8125 85.8325 43.875 85.915 46 86 C46 93.59 46 101.18 46 109 C42.04091356 109.10879932 38.08487175 109.18770988 34.125 109.25 C33.01640625 109.28351563 31.9078125 109.31703125 30.765625 109.3515625 C22.1996447 109.45233874 15.14144435 108.34969764 8.34375 102.8515625 C0.63848466 93.54647511 -0.17427619 84.63261347 -0.09765625 72.90625 C-0.0962413 72.07411987 -0.09482635 71.24198975 -0.09336853 70.38464355 C-0.08782167 67.7563907 -0.07527945 65.12822662 -0.0625 62.5 C-0.05747812 60.70573041 -0.05291642 58.91145946 -0.04882812 57.1171875 C-0.03786972 52.74475805 -0.02064248 48.37239402 0 44 C-3.3 44 -6.6 44 -10 44 C-10 36.41 -10 28.82 -10 21 C-6.7 21 -3.4 21 0 21 C0 14.07 0 7.14 0 0 Z " fill="#FF7E27" transform="translate(1986,541)"/>
<path d="M0 0 C9.24 0 18.48 0 28 0 C28 6.93 28 13.86 28 21 C33.94 21 39.88 21 46 21 C46 28.59 46 36.18 46 44 C40.06 44 34.12 44 28 44 C28.05105555 49.19745481 28.11398512 54.39191546 28.20751953 59.58837891 C28.23572397 61.35553311 28.25694118 63.12281334 28.27099609 64.89013672 C28.29243358 67.43262222 28.33908503 69.97359338 28.390625 72.515625 C28.39185364 73.30430969 28.39308228 74.09299438 28.39434814 74.90557861 C28.48896448 78.45857172 28.70059934 80.59357953 30.8359375 83.4921875 C33.81518212 85.56797888 36.15050084 85.60602003 39.75 85.75 C41.8125 85.8325 43.875 85.915 46 86 C46 93.59 46 101.18 46 109 C42.04091356 109.10879932 38.08487175 109.18770988 34.125 109.25 C33.01640625 109.28351563 31.9078125 109.31703125 30.765625 109.3515625 C22.1996447 109.45233874 15.14144435 108.34969764 8.34375 102.8515625 C0.63848466 93.54647511 -0.17427619 84.63261347 -0.09765625 72.90625 C-0.0962413 72.07411987 -0.09482635 71.24198975 -0.09336853 70.38464355 C-0.08782167 67.7563907 -0.07527945 65.12822662 -0.0625 62.5 C-0.05747812 60.70573041 -0.05291642 58.91145946 -0.04882812 57.1171875 C-0.03786972 52.74475805 -0.02064248 48.37239402 0 44 C-3.3 44 -6.6 44 -10 44 C-10 36.41 -10 28.82 -10 21 C-6.7 21 -3.4 21 0 21 C0 14.07 0 7.14 0 0 Z " fill="#FF7E27" transform="translate(1817,541)"/>
<path d="M0 0 C9.24 0 18.48 0 28 0 C28 38.28 28 76.56 28 116 C18.76 116 9.52 116 0 116 C0 77.72 0 39.44 0 0 Z " fill="#FF7E27" transform="translate(1561,534)"/>
<path d="M0 0 C-0.645477 7.90709331 -2.86997139 15.39133967 -5 23 C-6.98 23 -8.96 23 -11 23 C-10.90460938 22.31292969 -10.80921875 21.62585938 -10.7109375 20.91796875 C-10.60007812 20.01691406 -10.48921875 19.11585938 -10.375 18.1875 C-10.25898437 17.29417969 -10.14296875 16.40085937 -10.0234375 15.48046875 C-9.76499257 12.74309609 -9.76499257 12.74309609 -12 10 C-15.03135788 9.40452096 -15.03135788 9.40452096 -18.625 9.3125 C-19.81351563 9.24675781 -21.00203125 9.18101562 -22.2265625 9.11328125 C-29.14659479 8.88738071 -36.0772703 8.97627397 -43 9 C-43.2673999 10.04978027 -43.5347998 11.09956055 -43.81030273 12.18115234 C-44.801326 16.06927532 -45.79534667 19.95662672 -46.7902832 23.84375 C-47.22079188 25.52745952 -47.65048319 27.21137825 -48.0793457 28.89550781 C-48.69528787 31.31370389 -49.31414844 33.73113675 -49.93359375 36.1484375 C-50.12529648 36.9036972 -50.31699921 37.65895691 -50.51451111 38.43710327 C-51.88612829 43.77225659 -51.88612829 43.77225659 -53 46 C-40.625 45.01 -40.625 45.01 -28 44 C-27.01 41.03 -27.01 41.03 -26 38 C-24.02 38 -22.04 38 -20 38 C-20.64098149 41.45925102 -21.28860591 44.91722524 -21.9375 48.375 C-22.11990234 49.35984375 -22.30230469 50.3446875 -22.49023438 51.359375 C-22.75610352 52.77089844 -22.75610352 52.77089844 -23.02734375 54.2109375 C-23.27085571 55.51490479 -23.27085571 55.51490479 -23.51928711 56.84521484 C-24 59 -24 59 -25 61 C-26.98 61 -28.96 61 -31 61 C-30.979375 59.865625 -30.95875 58.73125 -30.9375 57.5625 C-30.58422523 54.18424326 -30.58422523 54.18424326 -32 53 C-37.01781141 52.08592735 -41.8449614 51.89243329 -46.9375 51.9375 C-47.96327148 51.94426758 -47.96327148 51.94426758 -49.00976562 51.95117188 C-50.67321604 51.9628044 -52.3366205 51.98073306 -54 52 C-54.21092285 52.85005615 -54.4218457 53.7001123 -54.63916016 54.57592773 C-58.47806069 69.96589876 -62.344288 85.15375599 -68 100 C-61.73 100 -55.46 100 -49 100 C-49.33 101.98 -49.66 103.96 -50 106 C-50.74870361 106.02505615 -51.49740723 106.0501123 -52.26879883 106.07592773 C-67.18798295 106.57974581 -82.09691102 107.13738278 -97 108 C-96.67 105.69 -96.34 103.38 -96 101 C-95.31292969 100.79503906 -94.62585938 100.59007812 -93.91796875 100.37890625 C-93.01691406 100.10949219 -92.11585938 99.84007812 -91.1875 99.5625 C-90.29417969 99.29566406 -89.40085937 99.02882813 -88.48046875 98.75390625 C-86.64526945 98.19612127 -84.81966274 97.60655425 -83 97 C-82.08871274 95.27363637 -82.08871274 95.27363637 -81.5234375 93.1171875 C-81.14977051 91.88500488 -81.14977051 91.88500488 -80.76855469 90.62792969 C-80.51493164 89.76071289 -80.26130859 88.89349609 -80 88 C-79.47221866 86.33566311 -78.9435399 84.6716106 -78.4140625 83.0078125 C-71.02419628 58.92596057 -65.12181268 34.42712882 -59 10 C-68.68490964 9.87908977 -76.0082366 12.58488064 -83.44140625 18.828125 C-85 20 -85 20 -87 20 C-87.2784375 20.58136719 -87.556875 21.16273438 -87.84375 21.76171875 C-88.94388632 23.89137453 -90.16970143 25.82110794 -91.5 27.8125 C-95.65282802 34.46437497 -96.98449795 41.23983972 -96 49 C-95.12984358 51.63803078 -94.08850449 54.1287354 -92.96484375 56.66796875 C-91.6401786 59.86968977 -91.14412335 62.5410395 -91 66 C-93 68 -93 68 -96.875 68.5 C-99.02734375 68.45703125 -99.02734375 68.45703125 -101 68 C-107.2431503 60.79636504 -106.54191031 52.24039836 -106.17480469 43.24267578 C-105.19538899 30.67715538 -97.30169009 20.51733744 -88.52734375 12.04296875 C-79.16979926 4.47883309 -68.77328931 1.73107889 -57.03515625 1.62109375 C-55.60870033 1.59560204 -55.60870033 1.59560204 -54.15342712 1.56959534 C-51.12318513 1.51676327 -48.09295012 1.47639839 -45.0625 1.4375 C-41.09496104 1.37868594 -37.12754468 1.31428575 -33.16015625 1.24609375 C-32.19993561 1.23017181 -31.23971497 1.21424988 -30.25039673 1.19784546 C-23.23945974 1.06537933 -16.26777485 0.71807512 -9.27514648 0.20336914 C-6.17304316 0.01074506 -3.10704056 -0.03576067 0 0 Z " fill="#FF7E27" transform="translate(1093,544)"/>
<path d="M0 0 C0.68578125 -0.02449219 1.3715625 -0.04898438 2.078125 -0.07421875 C8.67463837 -0.11198505 12.12175812 2.54043817 16.6875 7 C22.30942722 14.25409963 22.80773293 23.55724886 22 32.375 C19.65658961 47.41188333 12.36232671 60.39718009 0.0859375 69.546875 C-6.98029336 74.15611453 -12.40160097 76.72712813 -20.9375 76.6875 C-21.97293945 76.71166992 -21.97293945 76.71166992 -23.02929688 76.73632812 C-28.64220485 76.74164842 -32.60770643 75.48614796 -36.828125 71.76171875 C-37.53195312 70.92060547 -37.53195312 70.92060547 -38.25 70.0625 C-38.72953125 69.50949219 -39.2090625 68.95648437 -39.703125 68.38671875 C-44.77313821 60.52208982 -43.79755459 50.01820136 -42.53515625 41.0859375 C-39.35866457 26.83871448 -31.64263904 13.42090665 -19.3125 5.3125 C-12.99446981 1.48424171 -7.36975455 0.01385292 0 0 Z M-17.56640625 14.0703125 C-27.30409593 26.12649973 -28.19550653 40.47619393 -27 55.375 C-25.96110511 60.10116433 -24.72967668 63.80903757 -21.1015625 67.09375 C-17.83724842 69.08388944 -14.6571558 68.98452597 -11 68.375 C-4.17884572 65.23726903 -0.53180412 59.11941007 2.23046875 52.3671875 C6.21514202 40.88787606 8.09409511 28.13122842 4 16.375 C1.90521501 12.65844599 0.5492457 10.7411638 -3 8.375 C-9.53318262 7.63539442 -13.12465069 9.26302593 -17.56640625 14.0703125 Z " fill="#FF7E27" transform="translate(1130,575.625)"/>
<path d="M0 0 C2 1.125 2 1.125 3 3 C3.6471733 6.72124645 3.39820063 8.39532496 1.3125 11.5625 C-1.5193386 14.10306377 -4.77117592 15.14750492 -8.3125 16.4375 C-19.35260819 20.48595362 -25.96483385 26.82146017 -32 37 C-34.21386391 42.21082329 -35.65856909 47.5169928 -37 53 C-37.25410645 54.03705078 -37.50821289 55.07410156 -37.77001953 56.14257812 C-38.8784913 60.70202662 -39.97887716 65.26257808 -41.03393555 69.8347168 C-41.27539307 70.87797119 -41.51685059 71.92122559 -41.765625 72.99609375 C-42.08708496 74.40652954 -42.08708496 74.40652954 -42.41503906 75.84545898 C-43 78 -43 78 -44 79 C-46.35313555 79.07271741 -48.70833668 79.08370868 -51.0625 79.0625 C-52.99802734 79.04896484 -52.99802734 79.04896484 -54.97265625 79.03515625 C-55.97167969 79.02355469 -56.97070312 79.01195312 -58 79 C-55.28199949 66.12526074 -52.13449792 53.36567976 -48.90625 40.61132812 C-46.83808667 32.42913743 -44.85968975 24.23226172 -43 16 C-48.52056135 17.9152968 -51.53318235 20.22034777 -55.32421875 24.671875 C-56.15373047 25.32929687 -56.15373047 25.32929687 -57 26 C-59.20703125 25.703125 -59.20703125 25.703125 -61 25 C-61 21 -61 21 -59.453125 19.10546875 C-51.92377789 12.5506648 -42.73573056 4.78643869 -32.3125 4.9375 C-31.10013672 4.95103516 -31.10013672 4.95103516 -29.86328125 4.96484375 C-28.94095703 4.98224609 -28.94095703 4.98224609 -28 5 C-26.70867215 8.87398355 -27.58886428 11.81988786 -28.4375 15.6875 C-28.58509766 16.38939453 -28.73269531 17.09128906 -28.88476562 17.81445312 C-29.2495932 19.54444194 -29.62388689 21.27242963 -30 23 C-29.38125 22.18208984 -29.38125 22.18208984 -28.75 21.34765625 C-11.2527143 -1.50036191 -11.2527143 -1.50036191 0 0 Z " fill="#FF7E27" transform="translate(1220,571)"/>
</svg>
