<?xml version="1.0" encoding="UTF-8"?>
<svg version="1.1" xmlns="http://www.w3.org/2000/svg" width="3106" height="677">
<path d="M0 0 C1.36710116 -0.00283388 2.7342001 -0.00698152 4.10129383 -0.01230523 C7.83198112 -0.02307715 11.5624285 -0.01538135 15.29310676 -0.00447119 C19.36165595 0.00408568 23.43017435 -0.00486898 27.4987219 -0.01153535 C34.6207643 -0.02080946 41.74273603 -0.01899066 48.86477757 -0.00980282 C59.45547686 0.00382216 70.04612209 0.00022331 80.63682534 -0.00676142 C99.55280003 -0.01867864 118.46874135 -0.01360994 137.38471419 -0.00148315 C153.93659069 0.00905577 170.48845583 0.01359199 187.04033566 0.01222134 C188.68763658 0.01209529 188.68763658 0.01209529 190.36821631 0.0119667 C194.82621042 0.01161445 199.28420452 0.01123044 203.74219862 0.01080112 C245.55263754 0.00683694 287.36305638 0.0195503 329.17348955 0.04032768 C366.32022314 0.05870069 403.46693747 0.0645089 440.61367512 0.05905628 C442.99930837 0.05870985 445.38494163 0.05836375 447.77057489 0.05801799 C448.94998718 0.057847 450.12939948 0.057676 451.34455154 0.05749982 C457.28155293 0.05664628 463.21855432 0.0558225 469.15555573 0.05503082 C470.32683553 0.05487374 471.49811534 0.05471666 472.70488847 0.05455482 C503.74662978 0.05056526 534.78836923 0.0560396 565.83010942 0.06454211 C569.16995779 0.06544915 572.50980616 0.0663548 575.84965454 0.06725735 C578.06521038 0.06785846 580.28076622 0.06846708 582.49632207 0.06908325 C597.94368057 0.07330507 613.39103543 0.07388271 628.83839432 0.07197776 C648.74272063 0.06953541 668.64702743 0.07360179 688.55134841 0.08918776 C699.07815629 0.09724066 709.60493166 0.09983756 720.13174148 0.09454541 C727.16216485 0.09156979 734.19255948 0.09586589 741.22297598 0.10609398 C745.22917974 0.11172312 749.23531721 0.11422169 753.2415215 0.1079274 C756.88940149 0.10226517 760.53715297 0.10587252 764.18502014 0.11672618 C766.10791688 0.12010459 768.0308233 0.11374431 769.95371094 0.10693184 C787.58581396 0.18698452 801.96969787 4.97081446 814.90786457 17.37473011 C829.80037356 33.2481828 831.36249196 51.67914882 831.2888155 72.28806019 C831.29227617 74.40191514 831.29704347 76.51576829 831.30299723 78.62961769 C831.31548055 84.41280349 831.30934894 90.1958401 831.30003858 95.97902632 C831.29323751 102.22587706 831.30373457 108.47270254 831.31197834 114.71954823 C831.324537 126.24105908 831.32346345 137.76250371 831.31524394 149.2840142 C831.3076873 159.92905486 831.30573181 170.57407818 831.30931187 181.21912098 C831.3096556 182.27966495 831.3096556 182.27966495 831.31000628 183.36163405 C831.31094034 186.23193787 831.31189555 189.10224167 831.31288557 191.97254546 C831.32205567 218.87981111 831.31375313 245.78704664 831.29759488 272.69430764 C831.28335883 296.58226408 831.28463274 320.47017253 831.29897785 344.35812855 C831.3150534 371.21723351 831.32140525 398.07631188 831.31214106 424.93542099 C831.31117896 427.80039373 831.31024043 430.66536649 831.30931187 433.53033924 C831.30895602 434.5884273 831.30895602 434.5884273 831.30859298 435.66789088 C831.30518537 446.30435966 831.30916241 456.94080917 831.31675053 467.57727528 C831.3253386 479.67547951 831.32287393 491.77361475 831.30690829 503.87181687 C831.29903296 510.04251235 831.29592154 516.21311055 831.30585575 522.38380527 C831.31481823 528.03646003 831.30984402 533.68892763 831.29392309 539.34156549 C831.2905819 541.38244263 831.2922544 543.42333569 831.29955046 545.46420252 C831.36407908 565.01983485 828.89977554 582.4313692 814.90786457 597.37473011 C805.9269643 606.12619132 793.03023943 613.49411383 780.25793368 613.50353128 C779.09694117 613.50680347 777.93594866 613.51007567 776.73977455 613.51344702 C775.4608962 613.51196339 774.18201785 613.51047977 772.8643856 613.50895119 C771.4890821 613.51090396 770.11377915 613.51329274 768.73847708 613.51607916 C764.93845133 613.52249172 761.13844668 613.52263978 757.33841654 613.52180175 C753.21198031 613.521971 749.0855517 613.52787437 744.95911926 613.53304261 C736.76539392 613.54237946 728.57167398 613.54629248 720.37794399 613.54856158 C710.56718482 613.55152084 700.75643285 613.56021665 690.94567745 613.56897586 C667.22980157 613.58983294 643.51392443 613.60029216 619.79804151 613.60910546 C608.58119757 613.6133103 597.36435416 613.61853252 586.14751067 613.62378999 C547.75995705 613.64168155 509.37240328 613.65667798 470.98484612 613.66411018 C468.57425634 613.66458494 466.16366656 613.66506083 463.75307679 613.66553785 C462.55762565 613.66577422 461.3621745 613.6660106 460.13049757 613.66625414 C454.07362055 613.66745535 448.01674354 613.6686708 441.95986652 613.66989613 C440.75785473 613.67013628 439.55584293 613.67037643 438.31740653 613.67062385 C399.34253289 613.67851734 360.36768967 613.70194949 321.39282932 613.73445207 C280.19818362 613.76874316 239.00355573 613.78846068 197.80889553 613.79175442 C193.2873344 613.79217197 188.76577327 613.79265154 184.24421215 613.7931776 C183.13085536 613.7933008 182.01749858 613.79342399 180.87040371 613.79355091 C162.94599223 613.79588388 145.02161606 613.81154931 127.09721717 613.83201945 C109.08229304 613.85226666 91.06741136 613.85775998 73.05247796 613.84824882 C62.34835538 613.84302951 51.64437404 613.84893168 40.94027176 613.87078349 C33.78875699 613.88428018 26.63733956 613.88322456 19.48582385 613.87038153 C15.41185772 613.86347739 11.33816183 613.86284084 7.26421971 613.87994162 C3.55233803 613.89539541 -0.15905733 613.8921722 -3.87092498 613.87453134 C-5.82317244 613.86993356 -7.77543676 613.88482568 -9.72762516 613.90069112 C-21.85955124 613.80591951 -32.54455591 611.02645752 -42.09213543 603.37473011 C-42.92615887 602.71473011 -43.7601823 602.05473011 -44.61947918 601.37473011 C-55.43992854 592.26277276 -64.01784289 578.64007915 -65.27865379 564.24522381 C-65.34925897 561.94125083 -65.36115962 559.64468618 -65.34940434 557.33965588 C-65.35466345 556.02023492 -65.35466345 556.02023492 -65.3600288 554.67415899 C-65.36932455 551.72991535 -65.36442416 548.78587031 -65.35956097 545.84161854 C-65.36329815 543.70804357 -65.36789994 541.57446997 -65.37329161 539.44089854 C-65.38552873 533.579971 -65.38526029 527.71910052 -65.38290286 521.85816312 C-65.38249487 515.53622288 -65.39353218 509.21430098 -65.403018 502.89236927 C-65.41963322 490.50677231 -65.42515371 478.12119825 -65.42624275 465.73559158 C-65.42716225 455.66724897 -65.43128106 445.59891254 -65.437644 435.53057194 C-65.43943913 432.63115999 -65.44121876 429.73174803 -65.44299376 426.83233607 C-65.44343586 426.11150461 -65.44387795 425.39067315 -65.44433345 424.64799832 C-65.4566406 404.37420267 -65.46453471 384.10040916 -65.46364689 363.82660961 C-65.46361573 363.06236918 -65.46358457 362.29812876 -65.46355247 361.51072953 C-65.46338626 357.63735509 -65.46318818 353.76398065 -65.46298306 349.89060621 C-65.46294317 349.12135894 -65.46290328 348.35211168 -65.46286218 347.55955389 C-65.4627813 346.00394794 -65.46269771 344.448342 -65.46261139 342.89273605 C-65.46138622 318.69676862 -65.4763933 294.50085727 -65.50375652 270.30490589 C-65.53449664 243.11182351 -65.55168783 215.91877798 -65.54983008 188.72567713 C-65.54968082 185.82437905 -65.54958341 182.92308096 -65.54952145 180.02178288 C-65.54949814 179.30742685 -65.54947483 178.59307083 -65.54945081 177.85706765 C-65.54938934 166.37495231 -65.56214614 154.89288576 -65.57938598 143.41078491 C-65.59636338 131.86439199 -65.59795757 120.31809525 -65.58516733 108.77169196 C-65.57863809 102.519865 -65.5785192 96.26821434 -65.59587383 90.01640415 C-65.61161117 84.28820715 -65.60873375 78.56032615 -65.59130557 72.83213682 C-65.58823716 70.76484438 -65.59186196 68.69752831 -65.60302572 66.63026373 C-65.70446789 46.50547278 -62.26323937 31.84185635 -48.33822918 16.60129261 C-42.05704771 10.37473011 -42.05704771 10.37473011 -39.09213543 10.37473011 C-39.09213543 9.71473011 -39.09213543 9.05473011 -39.09213543 8.37473011 C-26.47788391 1.86165739 -14.09023723 -0.08346552 0 0 Z " fill="#FEFEFE" transform="translate(2251.0921354293823,54.62526988983154)"/>
<path d="M0 0 C4.8125 4.6875 4.8125 4.6875 13.8125 16.6875 C14.1425 3.8175 14.4725 -9.0525 14.8125 -22.3125 C48.4725 -22.3125 82.1325 -22.3125 116.8125 -22.3125 C116.8125 70.7475 116.8125 163.8075 116.8125 259.6875 C83.4825 259.6875 50.1525 259.6875 15.8125 259.6875 C15.4825 245.8275 15.1525 231.9675 14.8125 217.6875 C13.4925 219.6675 12.1725 221.6475 10.8125 223.6875 C9.18321264 225.39072584 7.51472341 227.05716536 5.8125 228.6875 C4.51505859 230.05455078 4.51505859 230.05455078 3.19140625 231.44921875 C-3.96235197 238.93502941 -11.5496932 245.00090344 -20.1875 250.6875 C-21.28320312 251.42097656 -22.37890625 252.15445312 -23.5078125 252.91015625 C-30.76461712 257.58773513 -37.94716467 261.10607946 -46.1875 263.6875 C-47.39535156 264.08066406 -48.60320313 264.47382812 -49.84765625 264.87890625 C-80.31001056 273.6920321 -117.56413796 268.18330462 -145.12963867 253.28662109 C-155.01201114 247.69684983 -163.55585914 240.517935 -171.86328125 232.8125 C-173.3444365 231.45830091 -174.8604635 230.14064349 -176.41796875 228.875 C-193.97562643 214.45596785 -204.31305806 191.81320859 -211.1875 170.6875 C-211.51363281 169.70652344 -211.83976562 168.72554687 -212.17578125 167.71484375 C-216.89242142 152.06527354 -217.74058208 135.79221055 -217.625 119.5625 C-217.62129395 118.62483795 -217.61758789 117.6871759 -217.61376953 116.72109985 C-217.3973212 78.13877456 -207.38927719 45.55449167 -182.1875 15.6875 C-181.17429687 14.47126953 -181.17429687 14.47126953 -180.140625 13.23046875 C-163.18606926 -6.41577741 -139.05486769 -22.8826144 -113.1875 -27.3125 C-112.20007812 -27.498125 -111.21265625 -27.68375 -110.1953125 -27.875 C-68.92945166 -34.37640477 -32.14187059 -27.47210887 0 0 Z " fill="#2157A6" transform="translate(2682.1875,326.3125)"/>
<path d="M0 0 C29.7 0 59.4 0 90 0 C90.33 65.01 90.66 130.02 91 197 C93.31 193.7 95.62 190.4 98 187 C98.99 186.67 99.98 186.34 101 186 C101.28875 185.41089844 101.5775 184.82179687 101.875 184.21484375 C105.88636505 176.31746881 116.18873615 171.40947673 124 168 C124.75023437 167.65453125 125.50046875 167.3090625 126.2734375 166.953125 C128.50278977 165.93622747 130.74940928 164.96889916 133 164 C133.72840088 163.66983887 134.45680176 163.33967773 135.20727539 162.99951172 C141.71683982 160.18268289 147.90851033 158.95566268 154.9375 158.1875 C156.57404541 158.00151245 156.57404541 158.00151245 158.24365234 157.81176758 C167.96465551 156.81293699 177.3003346 156.97663056 187 158 C187.68271973 158.06348633 188.36543945 158.12697266 189.06884766 158.19238281 C197.86429424 159.02435569 205.74889087 160.88428267 214 164 C214.65742187 164.21269531 215.31484375 164.42539063 215.9921875 164.64453125 C220.79952929 166.24353979 225.21638369 168.58286619 229.6875 170.9375 C230.32985596 171.27362305 230.97221191 171.60974609 231.6340332 171.95605469 C235.41908464 173.98957862 238.71458434 176.20005813 242 179 C242.62261719 179.50660156 243.24523438 180.01320312 243.88671875 180.53515625 C249.751797 185.50965863 255.16019142 191.01966276 260 197 C260 197.66 260 198.32 260 199 C260.66 199 261.32 199 262 199 C266.76227865 204.63309531 269.50333356 211.14551578 272 218 C272.32355469 218.72445312 272.64710938 219.44890625 272.98046875 220.1953125 C274.45519737 224.25222877 275.23119427 228.39577159 276.0625 232.625 C276.23587891 233.46417969 276.40925781 234.30335938 276.58789062 235.16796875 C278.86273074 246.58574862 279.14389185 257.860983 279.11352539 269.47729492 C279.11324274 271.0059916 279.11340278 272.53468841 279.1139679 274.06338501 C279.11425281 278.18038303 279.10840578 282.29735145 279.10139394 286.41434264 C279.09510923 290.72913316 279.09455257 295.04392448 279.09336853 299.35871887 C279.09027023 307.5146563 279.0820772 315.67058019 279.07201904 323.82651168 C279.05871219 334.85804094 279.05334586 345.88957393 279.04751682 356.9211092 C279.0381362 374.28074959 279.01820729 391.64036143 279 409 C248.97 409 218.94 409 188 409 C187.96132812 393.82902344 187.96132812 393.82902344 187.921875 378.3515625 C187.89668733 371.9166477 187.87050033 365.48176223 187.83984375 359.046875 C187.79144491 348.84928642 187.74694627 338.65179532 187.72900391 328.45410156 C187.71591284 321.02439845 187.68876073 313.59489569 187.64538693 306.1653055 C187.62293791 302.23886442 187.60707921 298.31266892 187.60811615 294.38615799 C188.42938056 261.85302805 188.42938056 261.85302805 173.9453125 233.8203125 C164.59973177 225.32112398 153.99305029 222.28422397 141.421875 222.66015625 C126.99838399 224.09262625 116.03060814 229.64193215 106 240 C105.13375 240.804375 105.13375 240.804375 104.25 241.625 C102.74340914 243.09616618 102.74340914 243.09616618 102 246 C101.34 246 100.68 246 100 246 C99.62875 246.9590625 99.62875 246.9590625 99.25 247.9375 C98.22348601 250.45245928 97.13080602 252.90663612 96 255.375 C91.1975044 266.17615181 90.84936059 276.57746835 90.79467773 288.20898438 C90.78477814 289.51713104 90.77487854 290.82527771 90.76467896 292.17306519 C90.73780227 295.73857436 90.71670018 299.30409653 90.69667697 302.86964989 C90.67471021 306.60391951 90.64737415 310.33814985 90.62062073 314.0723877 C90.57083763 321.13404359 90.52584585 328.19572145 90.48259836 335.25742006 C90.42383723 344.80672067 90.35762822 354.35596949 90.29184818 363.90522385 C90.18849867 378.93678093 90.09506001 393.96838291 90 409 C60.3 409 30.6 409 0 409 C0 274.03 0 139.06 0 0 Z " fill="#FFFFFF" transform="translate(1264,61)"/>
<path d="M0 0 C1.60198242 0.16435547 1.60198242 0.16435547 3.23632812 0.33203125 C10.27159391 1.14858623 16.11309989 2.88486324 22.5625 5.75 C24.16318586 6.34281806 25.7670089 6.9272932 27.375 7.5 C34.75324372 10.43958599 43.1836706 14.80846229 48.5625 20.75 C49.34625 21.53375 50.13 22.3175 50.9375 23.125 C51.80375 23.99125 52.67 24.8575 53.5625 25.75 C54.366875 26.53375 55.17125 27.3175 56 28.125 C63.6875 36 63.6875 36 65.5625 39.75 C65.8925 28.86 66.2225 17.97 66.5625 6.75 C95.9325 6.75 125.3025 6.75 155.5625 6.75 C155.5625 87.27 155.5625 167.79 155.5625 250.75 C126.5225 250.75 97.4825 250.75 67.5625 250.75 C67.2325 239.2 66.9025 227.65 66.5625 215.75 C61.73635833 221.26559048 57.14967885 226.75021488 52.67578125 232.52734375 C50.40337832 234.91735718 49.62921001 235.07859012 46.5625 235.75 C45.20445635 237.05815633 43.87355381 238.39475336 42.5625 239.75 C40.80175923 240.96283654 39.0076721 242.12832532 37.1875 243.25 C34.30456231 245.03660927 31.46718225 246.81726784 28.6953125 248.7734375 C25.17098344 250.99701668 21.71079235 252.45265009 17.8125 253.875 C17.16023438 254.12636719 16.50796875 254.37773437 15.8359375 254.63671875 C4.9168293 258.69420837 -5.84488927 259.18948117 -17.375 259.1875 C-18.1524054 259.18889984 -18.92981079 259.19029968 -19.73077393 259.19174194 C-31.96498948 259.17362021 -42.90362593 258.07897103 -54.4375 253.75 C-55.63632813 253.34265625 -56.83515625 252.9353125 -58.0703125 252.515625 C-65.25946603 249.94687873 -71.83190912 246.55212517 -78.4375 242.75 C-79.0975 242.42 -79.7575 242.09 -80.4375 241.75 C-80.4375 241.09 -80.4375 240.43 -80.4375 239.75 C-81.241875 239.481875 -82.04625 239.21375 -82.875 238.9375 C-83.720625 238.545625 -84.56625 238.15375 -85.4375 237.75 C-85.7675 236.76 -86.0975 235.77 -86.4375 234.75 C-87.12199219 234.71777344 -87.80648438 234.68554688 -88.51171875 234.65234375 C-92.81823246 233.32416662 -95.17976403 230.5128017 -98.25 227.3125 C-98.84748047 226.71373047 -99.44496094 226.11496094 -100.06054688 225.49804688 C-104.4375 221.03105357 -104.4375 221.03105357 -104.4375 218.75 C-104.99953125 218.55664062 -105.5615625 218.36328125 -106.140625 218.1640625 C-109.40725653 216.15297302 -111.14424409 213.28352145 -113.1875 210.125 C-113.62360596 209.45549316 -114.05971191 208.78598633 -114.5090332 208.09619141 C-136.11100071 174.26899955 -141.36516601 133.88771398 -133.4375 94.75 C-132.13900324 89.60591343 -130.34053757 84.7003853 -128.4375 79.75 C-127.88687754 78.04453219 -127.3438681 76.33656463 -126.8125 74.625 C-125.72752705 71.35789044 -124.28117693 68.66915513 -122.4375 65.75 C-122.004375 64.698125 -121.57125 63.64625 -121.125 62.5625 C-116.927528 52.50605667 -110.31983585 43.2281135 -102.4375 35.75 C-101.57125 34.88375 -100.705 34.0175 -99.8125 33.125 C-99.02875 32.34125 -98.245 31.5575 -97.4375 30.75 C-96.880625 30.151875 -96.32375 29.55375 -95.75 28.9375 C-94.4375 27.75 -94.4375 27.75 -92.4375 27.75 C-91.9425 26.265 -91.9425 26.265 -91.4375 24.75 C-81.24060841 15.94968081 -69.01426493 9.40451883 -56.4375 4.75 C-55.80763184 4.50338623 -55.17776367 4.25677246 -54.52880859 4.00268555 C-47.95096067 1.58341096 -41.38130917 0.79112218 -34.4375 0.0625 C-32.75140625 -0.13182617 -32.75140625 -0.13182617 -31.03125 -0.33007812 C-20.40544574 -1.50313712 -10.61252062 -1.23802105 0 0 Z M-20.4375 78.75 C-21.406875 79.3275 -22.37625 79.905 -23.375 80.5 C-27.82983894 83.77294289 -31.8107041 87.57515494 -35.4375 91.75 C-35.4375 92.41 -35.4375 93.07 -35.4375 93.75 C-36.0975 93.75 -36.7575 93.75 -37.4375 93.75 C-47.03594169 112.00018777 -50.35122164 127.37121696 -45.4375 147.75 C-45.128125 149.06677734 -45.128125 149.06677734 -44.8125 150.41015625 C-42.45140345 158.77729215 -36.83092551 165.99591704 -30.4375 171.75 C-29.96183594 172.20632813 -29.48617188 172.66265625 -28.99609375 173.1328125 C-14.95129641 186.06079463 -0.80644009 188.15150689 17.5625 187.75 C18.40167969 187.74484375 19.24085938 187.7396875 20.10546875 187.734375 C28.92633568 187.28449472 37.6949785 182.09140561 44.5625 176.75 C44.5625 176.09 44.5625 175.43 44.5625 174.75 C45.366875 174.440625 45.366875 174.440625 46.1875 174.125 C49.48228009 172.21749574 52.15613628 169.70180616 54.5625 166.75 C54.5625 166.09 54.5625 165.43 54.5625 164.75 C55.2225 164.75 55.8825 164.75 56.5625 164.75 C66.24275121 147.64509009 68.71576282 127.5464218 63.55078125 108.453125 C62.0864346 104.44787645 60.03702497 101.19019325 57.5625 97.75 C57.09972656 96.95335937 56.63695312 96.15671875 56.16015625 95.3359375 C50.98266168 86.95573847 43.78426424 80.97393684 35.5625 75.75 C34.5725 75.09 33.5825 74.43 32.5625 73.75 C14.62513428 68.75524572 -4.66346509 66.75394382 -20.4375 78.75 Z " fill="#FFFFFF" transform="translate(1724.4375,219.25)"/>
<path d="M0 0 C91.08 0 182.16 0 276 0 C276 25.74 276 51.48 276 78 C244.98 78 213.96 78 182 78 C182 181.95 182 285.9 182 393 C152.63 393 123.26 393 93 393 C93 289.05 93 185.1 93 78 C62.31 78 31.62 78 0 78 C0 52.26 0 26.52 0 0 Z " fill="#FFFFFF" transform="translate(937,77)"/>
<path d="M0 0 C91.08 0 182.16 0 276 0 C276 25.74 276 51.48 276 78 C244.98 78 213.96 78 182 78 C182 181.95 182 285.9 182 393 C152.63 393 123.26 393 93 393 C93 289.05 93 185.1 93 78 C62.31 78 31.62 78 0 78 C0 52.26 0 26.52 0 0 Z " fill="#FFFFFF" transform="translate(75,77)"/>
<path d="M0 0 C30.03 0 60.06 0 91 0 C94.3729966 7.8703254 94.3729966 7.8703254 95.5 11.36328125 C95.7475 12.12334473 95.995 12.8834082 96.25 13.66650391 C96.4975 14.43655762 96.745 15.20661133 97 16 C97.74784919 18.29953889 98.49768661 20.59840206 99.25 22.89648438 C99.75346626 24.43441646 100.25342133 25.97350208 100.75 27.51367188 C102.19086496 31.89255054 103.90126299 35.88414354 106 40 C106.544702 41.63158423 107.04809283 43.27781712 107.5 44.9375 C108.70051213 49.1267871 110.25545102 53.00207526 112 57 C112.48378604 58.37631707 112.95145106 59.75836549 113.40625 61.14453125 C113.66728516 61.93690186 113.92832031 62.72927246 114.19726562 63.5456543 C114.46216797 64.35558838 114.72707031 65.16552246 115 66 C115.74895179 68.28289989 116.49845127 70.56560986 117.25 72.84765625 C117.75232173 74.37293526 118.2523015 75.89898743 118.75 77.42578125 C120.28476952 82.07005777 122.0461512 86.51700248 124 91 C124.52319294 92.49206875 125.02710378 93.99123588 125.5 95.5 C126.38803836 98.24274348 127.34251313 100.78492593 128.5 103.4375 C129.65806009 106.18789271 130.55340759 108.74356284 131.375 111.59375 C132.91803608 116.81292667 134.6756385 121.93596452 136.5 127.0625 C137.0944247 128.74064658 137.68817919 130.41903072 138.28125 132.09765625 C138.56887207 132.91129639 138.85649414 133.72493652 139.15283203 134.56323242 C139.98932211 136.96928645 140.79162716 139.38442137 141.5859375 141.8046875 C142.62965138 144.96112498 143.79632812 148.01283186 145.125 151.0625 C146.91742644 155.43410495 147.65172994 159.29835414 148 164 C148.99 164 149.98 164 151 164 C151.37125 162.2984375 151.37125 162.2984375 151.75 160.5625 C152.71902336 156.65891655 154.15499753 153.18136139 155.90234375 149.56640625 C156.85965121 147.32814645 157.63744644 145.1282776 158.390625 142.81640625 C159.99479822 137.91518583 161.8725062 133.15156031 163.8125 128.375 C164.52608934 126.60548798 165.23963064 124.83595657 165.953125 123.06640625 C166.30181641 122.20418457 166.65050781 121.34196289 167.00976562 120.45361328 C168.37219079 117.07778169 169.71673272 113.69500646 171.0625 110.3125 C173.1915896 104.98399042 175.36745836 99.67663365 177.5625 94.375 C180.0974318 88.24972066 182.53434665 82.09514355 184.890625 75.8984375 C185.87906706 73.3159586 186.89884542 70.75008221 187.9375 68.1875 C189.97559342 63.1293977 191.87421947 58.02186914 193.77783203 52.91210938 C195.53043919 48.21910387 197.34603392 43.55676917 199.23828125 38.91796875 C199.88101498 37.29959818 200.44934312 35.65197063 201 34 C201.66 34 202.32 34 203 34 C203.19142578 32.92298828 203.19142578 32.92298828 203.38671875 31.82421875 C205.77267292 20.83667184 211.00750805 9.9849839 216 0 C245.04 0 274.08 0 304 0 C300.66666667 10 300.66666667 10 297.96484375 14.98046875 C296.90945575 17.07475046 296.90945575 17.07475046 296.12109375 19.71875 C294.7462788 23.74259865 292.96750595 27.4854297 291.125 31.3125 C290.40284253 32.82644 289.68147976 34.34075934 288.9609375 35.85546875 C288.44805176 36.93320557 288.44805176 36.93320557 287.92480469 38.03271484 C286.82220754 40.37820792 285.77734162 42.74567681 284.75 45.125 C283.37877642 48.27039444 281.74776187 51.1727309 280 54.12890625 C278.39693166 57.1283974 277.22851101 60.28587006 276 63.453125 C273.92526303 68.73722071 271.59083358 73.8873986 269 78.9375 C267.57226825 81.74354201 266.36980648 84.55805228 265.25 87.5 C263.44772393 92.12322993 261.30194772 96.51550897 259.0625 100.9375 C254.4223234 110.10059626 250.20049216 119.37526828 246.30859375 128.8828125 C244.93247154 132.16085884 243.49585414 135.40732287 242.04614258 138.65332031 C241.04597385 140.89687266 240.05641122 143.14476527 239.0703125 145.39453125 C235.66247521 153.14433382 232.154314 160.78884419 228.3046875 168.33203125 C226.65758656 171.70020473 225.28182414 175.13946743 223.92578125 178.6328125 C221.78867613 184.09730914 219.42075479 189.34627605 216.5 194.4375 C214.27046597 198.35793445 212.57727511 202.34470883 210.953125 206.546875 C208.56729046 212.68746553 205.73006756 218.56521267 202.75 224.4375 C196.89716164 235.99629698 191.62261251 247.89605408 187 260 C186.34 260 185.68 260 185 260 C184.87496094 260.71800781 184.74992188 261.43601562 184.62109375 262.17578125 C184.00047024 264.99786175 183.13673699 267.50798812 182.0625 270.1875 C181.55396484 271.47720703 181.55396484 271.47720703 181.03515625 272.79296875 C180 275 180 275 178 277 C177.30762248 278.80018154 176.62263081 280.6034495 175.96875 282.41796875 C172.80990216 290.83731722 169.03266282 299.03250059 165.25 307.1875 C164.95641602 307.82308838 164.66283203 308.45867676 164.36035156 309.11352539 C163.05455021 311.90288314 161.71318944 314.43021585 160 317 C159.29187186 319.32108669 158.61975848 321.65377147 158 324 C157.34 324 156.68 324 156 324 C155.84144531 324.60585938 155.68289063 325.21171875 155.51953125 325.8359375 C153.96649805 331.41312856 151.9524812 336.34601777 149.26953125 341.46875 C147.55524086 344.88678129 146.17317877 348.40389762 144.796875 351.96875 C144 354 144 354 143 356 C142.34 356 141.68 356 141 356 C140.9175 357.03125 140.835 358.0625 140.75 359.125 C139.89606074 363.53701953 138.99036968 365.64746129 136 369 C132.83728961 369.58545874 130.44320607 369.76353464 127.28417969 369.68115234 C126.40577423 369.6820285 125.52736877 369.68290466 124.62234497 369.68380737 C121.72128102 369.67962986 118.8225345 369.63297108 115.921875 369.5859375 C113.90978254 369.57474592 111.89767373 369.56620556 109.88555908 369.56021118 C104.59149985 369.53730993 99.29842946 369.47837497 94.00476074 369.4119873 C88.60226825 369.35059304 83.19961584 369.32320224 77.796875 369.29296875 C67.19748237 369.22863346 56.59882343 369.12623781 46 369 C47.12260536 365.58677738 48.2363802 362.28145602 49.8046875 359.046875 C50.13879639 358.35037842 50.47290527 357.65388184 50.81713867 356.9362793 C51.16623291 356.21480713 51.51532715 355.49333496 51.875 354.75 C54.44432307 349.36701232 56.91367448 343.99487659 59.05859375 338.42578125 C60.94013831 333.57748594 62.98935535 328.7958819 65 324 C65.66 324 66.32 324 67 324 C67.12955078 323.1646875 67.12955078 323.1646875 67.26171875 322.3125 C68.23002854 317.05342298 69.79746238 313.36647701 72.77734375 308.953125 C74.33143401 306.47055271 75.23326904 303.95453987 76.19140625 301.19921875 C78.64449604 294.52728854 81.89919336 288.14840674 85.10546875 281.8125 C86.99573558 277.98243971 88.58338683 274.02445861 90.19140625 270.0703125 C90.62324219 269.01585937 91.05507813 267.96140625 91.5 266.875 C91.9021875 265.88242187 92.304375 264.88984375 92.71875 263.8671875 C93.96159861 261.08593481 95.41940132 258.59966888 97 256 C100.42231071 248.98870761 101.60955711 244.88667337 99.1328125 237.3671875 C97.82390407 233.56222113 96.58376561 229.96586674 94.49609375 226.51171875 C92.91385376 223.85537329 91.9320167 221.29815436 90.9375 218.375 C89.84195711 215.16316743 88.89801188 212.84701782 87 210 C86.21431972 207.80338602 85.55058467 205.58537301 84.87890625 203.3515625 C83.87837675 200.67459024 82.47259306 198.44548873 81 196 C80.32891482 194.35134981 79.70478927 192.68292816 79.125 191 C78.78339844 190.03578125 78.44179688 189.0715625 78.08984375 188.078125 C77.55037109 186.55445313 77.55037109 186.55445313 77 185 C74.21274746 177.3471951 71.10336692 169.94915263 67.59545898 162.60668945 C65.1629494 157.47079985 63.09204353 152.24125993 61.140625 146.90234375 C59.93359083 143.8310205 58.48649577 140.94432633 57 138 C56.690625 137.05125 56.38125 136.1025 56.0625 135.125 C55.20668693 132.60790274 54.28382504 130.52374676 53.0625 128.1875 C51.63796645 125.41699173 50.50715112 122.71813675 49.5625 119.75 C47.18334101 112.31040762 44.01107979 105.20555682 40.78125 98.1015625 C40.38566895 97.23055908 39.99008789 96.35955566 39.58251953 95.4621582 C38.79642698 93.73723656 38.00595757 92.01430068 37.21044922 90.29370117 C35.0705011 85.60913825 33.23588492 80.94309636 31.66601562 76.03833008 C29.60337064 69.72563837 26.87150095 63.57721825 23.8125 57.6875 C22.02371963 54.23109172 21.06989401 50.74462904 20 47 C19.08077692 45.02491258 18.08122414 43.10352847 17.07421875 41.171875 C15.49544314 37.97987776 14.22888715 34.68065016 12.9296875 31.3671875 C11.35603178 27.36031621 9.6577861 23.41557347 7.84375 19.51171875 C7.20953125 18.14466797 7.20953125 18.14466797 6.5625 16.75 C6.17191406 15.91984375 5.78132812 15.0896875 5.37890625 14.234375 C3.38969155 9.56845497 1.73340844 4.7668732 0 0 Z " fill="#FFFFFF" transform="translate(619,226)"/>
<path d="M0 0 C29.37 0 58.74 0 89 0 C89 33 89 66 89 100 C106.82 100 124.64 100 143 100 C143 124.42 143 148.84 143 174 C125.18 174 107.36 174 89 174 C89.14915603 187.82134018 89.14915603 187.82134018 89.30664062 201.64257812 C89.37277362 207.28456156 89.43795792 212.92654419 89.49731445 218.56860352 C89.54526218 223.12036224 89.5976131 227.67205148 89.65294075 232.22372627 C89.67322742 233.95511697 89.69196179 235.68652661 89.70907402 237.41795158 C89.73342418 239.85414301 89.7634325 242.29020689 89.79467773 244.72631836 C89.8004332 245.43266922 89.80618866 246.13902008 89.81211853 246.86677551 C89.95276098 256.59497893 90.35119417 265.50490317 97.72265625 272.67578125 C103.12923181 276.61691949 108.50424017 276.88078099 115 276 C118.10084948 275.21134464 121.04576183 274.22546176 124 273 C124 272.34 124 271.68 124 271 C126.31 270.01 128.62 269.02 131 268 C136.94715206 279.54786809 136.94715206 279.54786809 138.375 283.8125 C139.79806518 287.93507669 141.95543019 291.63656619 144.0625 295.4375 C147.08920809 300.92145471 149.11970735 305.72791486 150 312 C150.66 312 151.32 312 152 312 C153.0044134 314.2898234 154.00367612 316.5816599 155 318.875 C155.28617188 319.52597656 155.57234375 320.17695313 155.8671875 320.84765625 C158 325.7734375 158 325.7734375 158 328 C158.66 328 159.32 328 160 328 C160.33 329.65 160.66 331.3 161 333 C157.24572773 336.19512534 152.96732943 338.02274085 148.5 340 C147.69264404 340.35739258 146.88528809 340.71478516 146.0534668 341.08300781 C140.78285533 343.36008858 135.63382596 345.14486881 130.0078125 346.3515625 C126.36156161 347.13763737 122.78070772 348.12980829 119.1875 349.125 C111.50945967 351.248188 104.20797853 352.16249753 96.27734375 352.23828125 C95.45480606 352.246353 94.63226837 352.25442474 93.7848053 352.26274109 C92.04934751 352.2765065 90.31386352 352.28726201 88.57836914 352.29516602 C86.83023963 352.30664029 85.08214388 352.32701932 83.33422852 352.35668945 C72.1199544 352.54647437 62.63246227 351.90996805 52 348 C50.78654907 347.56675415 50.78654907 347.56675415 49.54858398 347.12475586 C47.59876621 346.39796694 45.67273211 345.60818382 43.75 344.8125 C43.11449219 344.55275391 42.47898437 344.29300781 41.82421875 344.02539062 C39.51553168 343.07691727 37.23307532 342.11653766 35 341 C35 340.34 35 339.68 35 339 C33.9790625 338.6596875 33.9790625 338.6596875 32.9375 338.3125 C28.02481676 336.11747132 24.00085439 333.50128159 21 329 C20.01 328.67 19.02 328.34 18 328 C14.24590287 323.90373256 9 317.7328028 9 312 C8.34 312 7.68 312 7 312 C0.57484497 294.94901316 -0.9622884 279.71004308 -0.68359375 261.59765625 C-0.67049676 259.05221435 -0.66055207 256.5067545 -0.65357971 253.96128845 C-0.62985535 248.01526219 -0.57506189 242.07020013 -0.50413328 236.12456363 C-0.42499134 229.33831983 -0.38718151 222.55202338 -0.35226524 215.76543057 C-0.27973985 201.84301204 -0.15174045 187.92176905 0 174 C-13.86 174 -27.72 174 -42 174 C-42 149.58 -42 125.16 -42 100 C-28.14 100 -14.28 100 0 100 C0 67 0 34 0 0 Z " fill="#FFFFFF" transform="translate(1965,126)"/>
<path d="M0 0 C0.969375 0.28875 1.93875 0.5775 2.9375 0.875 C7.42825495 2.52466508 11.11020822 5.25121381 15 8 C13.75237881 10.83440155 12.50197335 13.66752129 11.25 16.5 C10.90195312 17.29148438 10.55390625 18.08296875 10.1953125 18.8984375 C8.19252904 23.42324458 6.09487049 27.8757061 3.85742188 32.2890625 C2.87567246 34.24808867 1.98513219 36.23483315 1.125 38.25 C-0.38703998 41.70631512 -2.02603255 45.07416455 -3.734375 48.4375 C-7.10000164 55.14004857 -10.25137672 61.93201733 -13.375 68.75 C-13.92027344 69.9359375 -14.46554687 71.121875 -15.02734375 72.34375 C-16.35333342 75.22835911 -17.6775231 78.11377919 -19 81 C-23.28295345 80.20148326 -24.94857705 78.05142295 -28 75 C-30.17346568 74.13880866 -30.17346568 74.13880866 -32 74 C-32 73.34 -32 72.68 -32 72 C-47.08889296 65.62790809 -65.59588658 63.32205438 -81.328125 68.8125 C-89.25444851 72.55721977 -95.71363642 78.06706416 -101 85 C-101.49242187 85.598125 -101.98484375 86.19625 -102.4921875 86.8125 C-114.39988747 102.60716939 -113.89233442 121.64979055 -113.81029272 140.47973108 C-113.8007865 144.13126658 -113.82547775 147.78258517 -113.84622192 151.43405151 C-113.88029965 158.31840473 -113.88453924 165.20242461 -113.87749684 172.08684528 C-113.86973424 181.41103359 -113.90920438 190.73502185 -113.94573593 200.05912209 C-114.00190228 214.70621024 -113.99594816 229.35258976 -114 244 C-143.7 244 -173.4 244 -204 244 C-204 163.48 -204 82.96 -204 0 C-174.3 0 -144.6 0 -114 0 C-113.67 9.9 -113.34 19.8 -113 30 C-109.99451839 27.25763579 -109.99451839 27.25763579 -108.5 24.375 C-107 22 -107 22 -104 21 C-103.5359375 19.7934375 -103.5359375 19.7934375 -103.0625 18.5625 C-101.76323943 15.42898921 -100.98676401 15.36537783 -98 14 C-96.86498047 12.8553125 -96.86498047 12.8553125 -95.70703125 11.6875 C-85.87661486 1.92801014 -72.59615701 -3.88005948 -59 -6 C-57.77925781 -6.1959375 -56.55851563 -6.391875 -55.30078125 -6.59375 C-37.4924666 -9.20045911 -15.98363854 -9.1757925 0 0 Z " fill="#FFFFFF" transform="translate(601,226)"/>
<path d="M0 0 C33.99 0 67.98 0 103 0 C103 93.06 103 186.12 103 282 C69.01 282 35.02 282 0 282 C0 188.94 0 95.88 0 0 Z " fill="#2257A6" transform="translate(2876,304)"/>
<path d="M0 0 C0.92353271 0.00563965 1.84706543 0.0112793 2.79858398 0.01708984 C20.29640328 0.32754742 34.35050561 7.27567242 46.83984375 19.40234375 C60.55525016 33.96015516 66.55245777 52.0888201 65.97265625 71.8125 C65.40014161 83.02324697 62.45796318 93.17526574 57.6875 103.3125 C57.1925 104.446875 56.6975 105.58125 56.1875 106.75 C54.40321699 109.79815015 52.2059912 111.83793597 49.6875 114.3125 C48.9553125 115.10269531 48.223125 115.89289063 47.46875 116.70703125 C34.38488274 130.57503439 19.32929549 136.57046824 0.37109375 137.33984375 C-16.76286974 137.21265632 -30.84998137 132.05150521 -43.3125 120.3125 C-44.34481284 119.39426221 -45.37737362 118.47630311 -46.41015625 117.55859375 C-58.14136736 106.8233947 -65.46540775 92.40725279 -66.3125 76.3125 C-67.16213198 53.37243646 -61.58539273 35.74272617 -45.85546875 18.80078125 C-32.88280023 6.10709485 -18.02159127 -0.11561831 0 0 Z " fill="#FEFEFE" transform="translate(2631.3125,376.6875)"/>
<path d="M0 0 C9.48415003 6.6230098 16.09324204 13.72687478 21.3125 24 C21.65039551 24.66451172 21.98829102 25.32902344 22.33642578 26.01367188 C28.74546369 39.21466743 29.81579624 56.91112719 25.20507812 70.88696289 C22.48579662 77.92993658 18.75591175 84.14237474 14 90 C13.54109375 90.62003906 13.0821875 91.24007812 12.609375 91.87890625 C6.17750283 100.14053515 -3.41129415 106.04430939 -13 110 C-13.61286865 110.25966553 -14.2257373 110.51933105 -14.85717773 110.78686523 C-21.49031304 113.3283224 -27.76657929 113.48248266 -34.8125 113.4375 C-35.91142578 113.45748047 -37.01035156 113.47746094 -38.14257812 113.49804688 C-53.74424792 113.4888532 -67.5822088 106.83544512 -78.90234375 96.234375 C-92.64577431 81.59519013 -96.92265902 65.67820408 -96.34375 45.9765625 C-95.54332354 31.14008624 -90.43902945 17.24292739 -79.36328125 6.94140625 C-71.98831714 0.88296466 -64.09910282 -4.87521914 -55 -8 C-53.99066406 -8.35578125 -52.98132812 -8.7115625 -51.94140625 -9.078125 C-34.35358979 -13.97222806 -15.01375781 -9.4307524 0 0 Z " fill="#2157A6" transform="translate(2370,481)"/>
<path d="M0 0 C13.4499898 9.23579095 22.56522181 21.60941555 26.29516602 37.6472168 C29.3007897 55.2617069 25.495971 71.99588992 15.66796875 86.83203125 C6.53650796 98.11390431 -6.21116434 104.80206048 -20.33203125 107.83203125 C-24.18249161 108.10655026 -28.03532451 108.10938365 -31.89453125 108.14453125 C-33.44624023 108.18803711 -33.44624023 108.18803711 -35.02929688 108.23242188 C-44.56752436 108.31006556 -52.64381816 105.92943724 -60.70703125 100.76953125 C-61.47789062 100.28355469 -62.24875 99.79757813 -63.04296875 99.296875 C-63.79835938 98.81347656 -64.55375 98.33007812 -65.33203125 97.83203125 C-66.1828125 97.33832031 -67.03359375 96.84460938 -67.91015625 96.3359375 C-78.77136523 89.59147709 -84.62151826 77.63481881 -88.33203125 65.83203125 C-88.74453125 64.73890625 -89.15703125 63.64578125 -89.58203125 62.51953125 C-92.80807096 46.65816935 -89.00771942 31.23377524 -80.33203125 17.83203125 C-61.76260438 -8.86589946 -28.16905512 -16.43541621 0 0 Z " fill="#2157A6" transform="translate(2960.33203125,137.16796875)"/>
<path d="M0 0 C9.19875 -0.061875 18.3975 -0.12375 27.875 -0.1875 C30.75976074 -0.21481201 33.64452148 -0.24212402 36.61669922 -0.27026367 C38.92935773 -0.27903392 41.24202092 -0.28667658 43.5546875 -0.29296875 C44.73426025 -0.30831665 45.91383301 -0.32366455 47.12915039 -0.33947754 C59.37807061 -0.34331893 68.96988154 2.40670444 78.01171875 10.88671875 C85.23818859 18.59798321 86.98648248 26.55095915 87 37 C86.2731309 46.05282425 82.88612556 53.62712865 76.1875 59.8125 C72.39121367 62.92183928 68.47097341 65.00402973 64 67 C68.63947749 77.04160881 74.30892946 86.44137652 79.9765625 95.92578125 C80.98489191 97.6168794 81.99274633 99.3082609 83 101 C83.42506836 101.71075684 83.85013672 102.42151367 84.28808594 103.15380859 C87 107.76787874 87 107.76787874 87 110 C60.55867163 112.6547036 60.55867163 112.6547036 53.74365234 108.68603516 C50.25726287 105.00260271 48.69486171 100.42445431 47.05029297 95.70166016 C45.04651431 90.54735642 42.11332585 85.85407809 39.375 81.0625 C38.33266467 79.18306411 37.29812994 77.29926916 36.2734375 75.41015625 C35.83435059 74.60715088 35.39526367 73.80414551 34.94287109 72.97680664 C34 71 34 71 34 69 C32.02 69 30.04 69 28 69 C28 82.53 28 96.06 28 110 C18.76 110 9.52 110 0 110 C0 73.7 0 37.4 0 0 Z M28 23 C28 31.58 28 40.16 28 49 C33.011875 49.0928125 33.011875 49.0928125 38.125 49.1875 C39.16672363 49.21481201 40.20844727 49.24212402 41.28173828 49.27026367 C46.61704568 49.31798281 50.40926431 49.04577656 55 46 C58.42704357 42.23025207 58.51190884 38.33196954 58.3515625 33.44140625 C57.82500498 29.78475677 56.48643739 27.68804042 54 25 C50.52670073 23.29232186 47.76807645 22.75744691 43.91796875 22.8046875 C43.0777417 22.80968262 42.23751465 22.81467773 41.37182617 22.81982422 C39.79558472 22.84713623 39.79558472 22.84713623 38.1875 22.875 C33.1446875 22.936875 33.1446875 22.936875 28 23 Z " fill="#FF7E27" transform="translate(1254,553)"/>
<path d="M0 0 C2.52827361 1.87448857 4.71764009 3.81687313 7 6 C7.33 3.03 7.66 0.06 8 -3 C17.24 -3 26.48 -3 36 -3 C36 26.04 36 55.08 36 85 C26.76 85 17.52 85 8 85 C7.505 81.04 7.505 81.04 7 77 C6.50371094 77.39832031 6.00742188 77.79664063 5.49609375 78.20703125 C-3.40312115 85.14740567 -11.67605025 87.86983398 -23 87 C-33.52478142 85.25327116 -41.65068322 80.50030203 -48.43359375 72.26953125 C-54.80258956 63.04163458 -57.39128569 52.81488683 -57.3125 41.75 C-57.30686035 40.91734619 -57.3012207 40.08469238 -57.29541016 39.22680664 C-57.03144371 25.73968924 -52.91596166 15.18502189 -44 5 C-41.44921875 3.05078125 -41.44921875 3.05078125 -38.6875 1.3125 C-37.78386719 0.73113281 -36.88023438 0.14976562 -35.94921875 -0.44921875 C-25.30662516 -6.04539048 -10.4113599 -6.30412618 0 0 Z M-24.375 26.25 C-28.67455162 31.82306012 -29.78446624 38.06840483 -29 45 C-27.67935623 52.57081923 -24.17851873 56.59239428 -18 61 C-14.04474536 62.97762732 -9.31019688 62.42863836 -5 62 C-0.12171802 60.36203671 3.1926918 57.2629495 6 53 C9.00756786 46.70256549 9.19402808 39.25372504 7.3125 32.55078125 C4.75059886 26.9466225 0.95050388 23.54901454 -4.5 20.6875 C-11.99203216 18.62719116 -19.12129273 20.54780553 -24.375 26.25 Z " fill="#FF7E27" transform="translate(1926,578)"/>
<path d="M0 0 C2.52827361 1.87448857 4.71764009 3.81687313 7 6 C7.33 3.03 7.66 0.06 8 -3 C17.24 -3 26.48 -3 36 -3 C36 26.04 36 55.08 36 85 C26.76 85 17.52 85 8 85 C7.505 81.04 7.505 81.04 7 77 C6.50371094 77.39832031 6.00742188 77.79664063 5.49609375 78.20703125 C-3.40312115 85.14740567 -11.67605025 87.86983398 -23 87 C-33.52478142 85.25327116 -41.65068322 80.50030203 -48.43359375 72.26953125 C-54.80258956 63.04163458 -57.39128569 52.81488683 -57.3125 41.75 C-57.30686035 40.91734619 -57.3012207 40.08469238 -57.29541016 39.22680664 C-57.03144371 25.73968924 -52.91596166 15.18502189 -44 5 C-41.44921875 3.05078125 -41.44921875 3.05078125 -38.6875 1.3125 C-37.78386719 0.73113281 -36.88023438 0.14976562 -35.94921875 -0.44921875 C-25.30662516 -6.04539048 -10.4113599 -6.30412618 0 0 Z M-24.375 26.25 C-28.67455162 31.82306012 -29.78446624 38.06840483 -29 45 C-27.67935623 52.57081923 -24.17851873 56.59239428 -18 61 C-14.04474536 62.97762732 -9.31019688 62.42863836 -5 62 C-0.12171802 60.36203671 3.1926918 57.2629495 6 53 C9.00756786 46.70256549 9.19402808 39.25372504 7.3125 32.55078125 C4.75059886 26.9466225 0.95050388 23.54901454 -4.5 20.6875 C-11.99203216 18.62719116 -19.12129273 20.54780553 -24.375 26.25 Z " fill="#FF7E27" transform="translate(1505,578)"/>
<path d="M0 0 C22.77 0 45.54 0 69 0 C69 7.26 69 14.52 69 22 C55.47 22 41.94 22 28 22 C28 28.93 28 35.86 28 43 C39.88 43 51.76 43 64 43 C64 50.26 64 57.52 64 65 C52.12 65 40.24 65 28 65 C28 72.59 28 80.18 28 88 C41.53 88 55.06 88 69 88 C69 95.26 69 102.52 69 110 C46.23 110 23.46 110 0 110 C0 73.7 0 37.4 0 0 Z " fill="#FF7E27" transform="translate(1638,553)"/>
<path d="M0 0 C8.33164081 7.64635434 12.11445236 18.45264117 12.6796875 29.53125 C12.72673828 30.23378906 12.77378906 30.93632813 12.82226562 31.66015625 C13.02869294 35.24048576 12.8721421 37.88643159 11.9921875 41.40625 C-7.8078125 41.40625 -27.6078125 41.40625 -48.0078125 41.40625 C-45.33280156 50.32869515 -45.33280156 50.32869515 -39.0078125 55.40625 C-35.28433516 56.64740911 -31.87567078 56.9483362 -28.0078125 56.40625 C-25.08330903 54.80604999 -22.80526238 53.4474742 -20.76831055 50.7878418 C-18.02319175 48.63354596 -15.58538264 49.06982506 -12.15234375 49.11328125 C-11.49070724 49.11752609 -10.82907074 49.12177094 -10.14738464 49.12614441 C-8.0379434 49.14291307 -5.92946404 49.18055901 -3.8203125 49.21875 C-2.38868569 49.23379932 -0.95704388 49.2474873 0.47460938 49.25976562 C3.98078038 49.2928097 7.48639004 49.34457833 10.9921875 49.40625 C6.97961484 61.64318327 0.6367282 70.33258628 -11.0078125 76.40625 C-23.65648355 81.73421426 -37.6976656 82.10926888 -50.46484375 77.03125 C-62.12011953 71.84904873 -69.29550161 64.31103541 -74.0078125 52.40625 C-78.5730256 40.16861069 -77.19525447 24.10627487 -72.0078125 12.40625 C-66.71573291 2.04728569 -57.98914581 -5.32439436 -47.140625 -9.2734375 C-30.62233511 -13.96540311 -13.32018107 -10.57321766 0 0 Z M-44.9453125 17.28125 C-47.35355318 20.50360572 -47.35355318 20.50360572 -48.0078125 25.40625 C-37.4478125 25.40625 -26.8878125 25.40625 -16.0078125 25.40625 C-17.05284349 19.13606407 -17.33483631 18.16494824 -22.0078125 14.40625 C-30.0391343 10.24717264 -38.55479724 10.09423574 -44.9453125 17.28125 Z " fill="#FF7E27" transform="translate(2115.0078125,584.59375)"/>
<path d="M0 0 C8.33164081 7.64635434 12.11445236 18.45264117 12.6796875 29.53125 C12.72673828 30.23378906 12.77378906 30.93632813 12.82226562 31.66015625 C13.02869294 35.24048576 12.8721421 37.88643159 11.9921875 41.40625 C-7.8078125 41.40625 -27.6078125 41.40625 -48.0078125 41.40625 C-45.33280156 50.32869515 -45.33280156 50.32869515 -39.0078125 55.40625 C-35.28433516 56.64740911 -31.87567078 56.9483362 -28.0078125 56.40625 C-25.08330903 54.80604999 -22.80526238 53.4474742 -20.76831055 50.7878418 C-18.02319175 48.63354596 -15.58538264 49.06982506 -12.15234375 49.11328125 C-11.49070724 49.11752609 -10.82907074 49.12177094 -10.14738464 49.12614441 C-8.0379434 49.14291307 -5.92946404 49.18055901 -3.8203125 49.21875 C-2.38868569 49.23379932 -0.95704388 49.2474873 0.47460938 49.25976562 C3.98078038 49.2928097 7.48639004 49.34457833 10.9921875 49.40625 C6.97961484 61.64318327 0.6367282 70.33258628 -11.0078125 76.40625 C-23.65648355 81.73421426 -37.6976656 82.10926888 -50.46484375 77.03125 C-62.12011953 71.84904873 -69.29550161 64.31103541 -74.0078125 52.40625 C-78.5730256 40.16861069 -77.19525447 24.10627487 -72.0078125 12.40625 C-66.71573291 2.04728569 -57.98914581 -5.32439436 -47.140625 -9.2734375 C-30.62233511 -13.96540311 -13.32018107 -10.57321766 0 0 Z M-44.9453125 17.28125 C-47.35355318 20.50360572 -47.35355318 20.50360572 -48.0078125 25.40625 C-37.4478125 25.40625 -26.8878125 25.40625 -16.0078125 25.40625 C-17.05284349 19.13606407 -17.33483631 18.16494824 -22.0078125 14.40625 C-30.0391343 10.24717264 -38.55479724 10.09423574 -44.9453125 17.28125 Z " fill="#FF7E27" transform="translate(1427.0078125,584.59375)"/>
<path d="M0 0 C8.71049725 7.21617441 11.83487722 13.94854898 13.2265625 25.08203125 C4.6465625 25.08203125 -3.9334375 25.08203125 -12.7734375 25.08203125 C-13.7634375 23.10203125 -14.7534375 21.12203125 -15.7734375 19.08203125 C-19.43578583 15.85054743 -22.96668172 15.57740234 -27.6796875 15.7109375 C-30.68232262 16.24312096 -32.02927427 17.65536937 -33.7734375 20.08203125 C-33.29946927 22.56446931 -33.29946927 22.56446931 -31.7734375 25.08203125 C-29.29571034 26.18188548 -27.17852346 26.91398619 -24.5859375 27.58203125 C-23.13635564 27.99612682 -21.68714517 28.41152441 -20.23828125 28.828125 C-19.49819824 29.03421387 -18.75811523 29.24030273 -17.99560547 29.45263672 C-14.52006822 30.43702861 -11.08300285 31.52672451 -7.6484375 32.64453125 C-6.47023438 33.01707031 -5.29203125 33.38960937 -4.078125 33.7734375 C0.91550954 35.75082234 5.01185835 38.39805625 8.4765625 42.51953125 C8.95609375 43.07511719 9.435625 43.63070312 9.9296875 44.203125 C14.14377203 50.30847036 14.01701839 56.92632532 13.2265625 64.08203125 C11.03797889 71.53339497 6.96174949 76.33895695 0.2265625 80.08203125 C-13.20943762 86.63155482 -27.64932782 86.62709732 -41.7734375 82.08203125 C-51.27619598 77.94235652 -57.2109894 72.33416704 -61.7734375 63.08203125 C-62.1034375 62.42203125 -62.4334375 61.76203125 -62.7734375 61.08203125 C-62.7734375 58.77203125 -62.7734375 56.46203125 -62.7734375 54.08203125 C-53.8634375 54.08203125 -44.9534375 54.08203125 -35.7734375 54.08203125 C-34.7834375 56.06203125 -33.7934375 58.04203125 -32.7734375 60.08203125 C-28.05702255 63.37255331 -24.32531183 63.52976305 -18.7734375 63.08203125 C-16.33181183 62.57369887 -16.33181183 62.57369887 -14.7734375 61.08203125 C-13.69319092 58.68092908 -13.69319092 58.68092908 -13.7734375 56.08203125 C-16.22153354 52.53366733 -20.08699601 51.83166213 -24.0234375 50.70703125 C-25.46638025 50.27160942 -26.90908307 49.83539178 -28.3515625 49.3984375 C-30.52079364 48.75138194 -32.69064539 48.10652424 -34.86132812 47.46435547 C-52.95636787 42.04895589 -52.95636787 42.04895589 -58.2109375 33.51953125 C-61.57019589 26.12916279 -61.68309145 18.96391896 -58.859375 11.34765625 C-54.70176659 2.67350921 -47.49552805 -1.48379413 -38.7734375 -4.91796875 C-26.54153743 -8.32379492 -10.46188729 -7.23491079 0 0 Z " fill="#FF7E27" transform="translate(1781.7734375,579.91796875)"/>
<path d="M0 0 C9.24 0 18.48 0 28 0 C28 6.93 28 13.86 28 21 C33.94 21 39.88 21 46 21 C46 28.59 46 36.18 46 44 C40.06 44 34.12 44 28 44 C28.05105555 49.19745481 28.11398512 54.39191546 28.20751953 59.58837891 C28.23572397 61.35553311 28.25694118 63.12281334 28.27099609 64.89013672 C28.29243358 67.43262222 28.33908503 69.97359338 28.390625 72.515625 C28.39185364 73.30430969 28.39308228 74.09299438 28.39434814 74.90557861 C28.48896448 78.45857172 28.70059934 80.59357953 30.8359375 83.4921875 C33.81518212 85.56797888 36.15050084 85.60602003 39.75 85.75 C41.8125 85.8325 43.875 85.915 46 86 C46 93.59 46 101.18 46 109 C42.04091356 109.10879932 38.08487175 109.18770988 34.125 109.25 C33.01640625 109.28351563 31.9078125 109.31703125 30.765625 109.3515625 C22.1996447 109.45233874 15.14144435 108.34969764 8.34375 102.8515625 C0.63848466 93.54647511 -0.17427619 84.63261347 -0.09765625 72.90625 C-0.0962413 72.07411987 -0.09482635 71.24198975 -0.09336853 70.38464355 C-0.08782167 67.7563907 -0.07527945 65.12822662 -0.0625 62.5 C-0.05747812 60.70573041 -0.05291642 58.91145946 -0.04882812 57.1171875 C-0.03786972 52.74475805 -0.02064248 48.37239402 0 44 C-3.3 44 -6.6 44 -10 44 C-10 36.41 -10 28.82 -10 21 C-6.7 21 -3.4 21 0 21 C0 14.07 0 7.14 0 0 Z " fill="#FF7E27" transform="translate(1984,554)"/>
<path d="M0 0 C9.24 0 18.48 0 28 0 C28 6.93 28 13.86 28 21 C33.94 21 39.88 21 46 21 C46 28.59 46 36.18 46 44 C40.06 44 34.12 44 28 44 C28.05105555 49.19745481 28.11398512 54.39191546 28.20751953 59.58837891 C28.23572397 61.35553311 28.25694118 63.12281334 28.27099609 64.89013672 C28.29243358 67.43262222 28.33908503 69.97359338 28.390625 72.515625 C28.39185364 73.30430969 28.39308228 74.09299438 28.39434814 74.90557861 C28.48896448 78.45857172 28.70059934 80.59357953 30.8359375 83.4921875 C33.81518212 85.56797888 36.15050084 85.60602003 39.75 85.75 C41.8125 85.8325 43.875 85.915 46 86 C46 93.59 46 101.18 46 109 C42.04091356 109.10879932 38.08487175 109.18770988 34.125 109.25 C33.01640625 109.28351563 31.9078125 109.31703125 30.765625 109.3515625 C22.1996447 109.45233874 15.14144435 108.34969764 8.34375 102.8515625 C0.63848466 93.54647511 -0.17427619 84.63261347 -0.09765625 72.90625 C-0.0962413 72.07411987 -0.09482635 71.24198975 -0.09336853 70.38464355 C-0.08782167 67.7563907 -0.07527945 65.12822662 -0.0625 62.5 C-0.05747812 60.70573041 -0.05291642 58.91145946 -0.04882812 57.1171875 C-0.03786972 52.74475805 -0.02064248 48.37239402 0 44 C-3.3 44 -6.6 44 -10 44 C-10 36.41 -10 28.82 -10 21 C-6.7 21 -3.4 21 0 21 C0 14.07 0 7.14 0 0 Z " fill="#FF7E27" transform="translate(1815,554)"/>
<path d="M0 0 C9.24 0 18.48 0 28 0 C28 38.28 28 76.56 28 116 C18.76 116 9.52 116 0 116 C0 77.72 0 39.44 0 0 Z " fill="#FF7E27" transform="translate(1559,547)"/>
<path d="M0 0 C-0.645477 7.90709331 -2.86997139 15.39133967 -5 23 C-6.98 23 -8.96 23 -11 23 C-10.90460938 22.31292969 -10.80921875 21.62585938 -10.7109375 20.91796875 C-10.60007812 20.01691406 -10.48921875 19.11585938 -10.375 18.1875 C-10.25898437 17.29417969 -10.14296875 16.40085937 -10.0234375 15.48046875 C-9.76499257 12.74309609 -9.76499257 12.74309609 -12 10 C-15.03135788 9.40452096 -15.03135788 9.40452096 -18.625 9.3125 C-19.81351563 9.24675781 -21.00203125 9.18101562 -22.2265625 9.11328125 C-29.14659479 8.88738071 -36.0772703 8.97627397 -43 9 C-43.2673999 10.04978027 -43.5347998 11.09956055 -43.81030273 12.18115234 C-44.801326 16.06927532 -45.79534667 19.95662672 -46.7902832 23.84375 C-47.22079188 25.52745952 -47.65048319 27.21137825 -48.0793457 28.89550781 C-48.69528787 31.31370389 -49.31414844 33.73113675 -49.93359375 36.1484375 C-50.12529648 36.9036972 -50.31699921 37.65895691 -50.51451111 38.43710327 C-51.88612829 43.77225659 -51.88612829 43.77225659 -53 46 C-40.625 45.01 -40.625 45.01 -28 44 C-27.01 41.03 -27.01 41.03 -26 38 C-24.02 38 -22.04 38 -20 38 C-20.64098149 41.45925102 -21.28860591 44.91722524 -21.9375 48.375 C-22.11990234 49.35984375 -22.30230469 50.3446875 -22.49023438 51.359375 C-22.75610352 52.77089844 -22.75610352 52.77089844 -23.02734375 54.2109375 C-23.27085571 55.51490479 -23.27085571 55.51490479 -23.51928711 56.84521484 C-24 59 -24 59 -25 61 C-26.98 61 -28.96 61 -31 61 C-30.979375 59.865625 -30.95875 58.73125 -30.9375 57.5625 C-30.58422523 54.18424326 -30.58422523 54.18424326 -32 53 C-37.01781141 52.08592735 -41.8449614 51.89243329 -46.9375 51.9375 C-47.96327148 51.94426758 -47.96327148 51.94426758 -49.00976562 51.95117188 C-50.67321604 51.9628044 -52.3366205 51.98073306 -54 52 C-54.21092285 52.85005615 -54.4218457 53.7001123 -54.63916016 54.57592773 C-58.47806069 69.96589876 -62.344288 85.15375599 -68 100 C-61.73 100 -55.46 100 -49 100 C-49.33 101.98 -49.66 103.96 -50 106 C-50.74870361 106.02505615 -51.49740723 106.0501123 -52.26879883 106.07592773 C-67.18798295 106.57974581 -82.09691102 107.13738278 -97 108 C-96.67 105.69 -96.34 103.38 -96 101 C-95.31292969 100.79503906 -94.62585938 100.59007812 -93.91796875 100.37890625 C-93.01691406 100.10949219 -92.11585938 99.84007812 -91.1875 99.5625 C-90.29417969 99.29566406 -89.40085937 99.02882813 -88.48046875 98.75390625 C-86.64526945 98.19612127 -84.81966274 97.60655425 -83 97 C-82.08871274 95.27363637 -82.08871274 95.27363637 -81.5234375 93.1171875 C-81.14977051 91.88500488 -81.14977051 91.88500488 -80.76855469 90.62792969 C-80.51493164 89.76071289 -80.26130859 88.89349609 -80 88 C-79.47221866 86.33566311 -78.9435399 84.6716106 -78.4140625 83.0078125 C-71.02419628 58.92596057 -65.12181268 34.42712882 -59 10 C-68.68490964 9.87908977 -76.0082366 12.58488064 -83.44140625 18.828125 C-85 20 -85 20 -87 20 C-87.2784375 20.58136719 -87.556875 21.16273438 -87.84375 21.76171875 C-88.94388632 23.89137453 -90.16970143 25.82110794 -91.5 27.8125 C-95.65282802 34.46437497 -96.98449795 41.23983972 -96 49 C-95.12984358 51.63803078 -94.08850449 54.1287354 -92.96484375 56.66796875 C-91.6401786 59.86968977 -91.14412335 62.5410395 -91 66 C-93 68 -93 68 -96.875 68.5 C-99.02734375 68.45703125 -99.02734375 68.45703125 -101 68 C-107.2431503 60.79636504 -106.54191031 52.24039836 -106.17480469 43.24267578 C-105.19538899 30.67715538 -97.30169009 20.51733744 -88.52734375 12.04296875 C-79.16979926 4.47883309 -68.77328931 1.73107889 -57.03515625 1.62109375 C-55.60870033 1.59560204 -55.60870033 1.59560204 -54.15342712 1.56959534 C-51.12318513 1.51676327 -48.09295012 1.47639839 -45.0625 1.4375 C-41.09496104 1.37868594 -37.12754468 1.31428575 -33.16015625 1.24609375 C-32.19993561 1.23017181 -31.23971497 1.21424988 -30.25039673 1.19784546 C-23.23945974 1.06537933 -16.26777485 0.71807512 -9.27514648 0.20336914 C-6.17304316 0.01074506 -3.10704056 -0.03576067 0 0 Z " fill="#FF7E27" transform="translate(1091,557)"/>
<path d="M0 0 C0.68578125 -0.02449219 1.3715625 -0.04898438 2.078125 -0.07421875 C8.67463837 -0.11198505 12.12175812 2.54043817 16.6875 7 C22.30942722 14.25409963 22.80773293 23.55724886 22 32.375 C19.65658961 47.41188333 12.36232671 60.39718009 0.0859375 69.546875 C-6.98029336 74.15611453 -12.40160097 76.72712813 -20.9375 76.6875 C-21.97293945 76.71166992 -21.97293945 76.71166992 -23.02929688 76.73632812 C-28.64220485 76.74164842 -32.60770643 75.48614796 -36.828125 71.76171875 C-37.53195312 70.92060547 -37.53195312 70.92060547 -38.25 70.0625 C-38.72953125 69.50949219 -39.2090625 68.95648437 -39.703125 68.38671875 C-44.77313821 60.52208982 -43.79755459 50.01820136 -42.53515625 41.0859375 C-39.35866457 26.83871448 -31.64263904 13.42090665 -19.3125 5.3125 C-12.99446981 1.48424171 -7.36975455 0.01385292 0 0 Z M-17.56640625 14.0703125 C-27.30409593 26.12649973 -28.19550653 40.47619393 -27 55.375 C-25.96110511 60.10116433 -24.72967668 63.80903757 -21.1015625 67.09375 C-17.83724842 69.08388944 -14.6571558 68.98452597 -11 68.375 C-4.17884572 65.23726903 -0.53180412 59.11941007 2.23046875 52.3671875 C6.21514202 40.88787606 8.09409511 28.13122842 4 16.375 C1.90521501 12.65844599 0.5492457 10.7411638 -3 8.375 C-9.53318262 7.63539442 -13.12465069 9.26302593 -17.56640625 14.0703125 Z " fill="#FF7E27" transform="translate(1128,588.625)"/>
<path d="M0 0 C2 1.125 2 1.125 3 3 C3.6471733 6.72124645 3.39820063 8.39532496 1.3125 11.5625 C-1.5193386 14.10306377 -4.77117592 15.14750492 -8.3125 16.4375 C-19.35260819 20.48595362 -25.96483385 26.82146017 -32 37 C-34.21386391 42.21082329 -35.65856909 47.5169928 -37 53 C-37.25410645 54.03705078 -37.50821289 55.07410156 -37.77001953 56.14257812 C-38.8784913 60.70202662 -39.97887716 65.26257808 -41.03393555 69.8347168 C-41.27539307 70.87797119 -41.51685059 71.92122559 -41.765625 72.99609375 C-42.08708496 74.40652954 -42.08708496 74.40652954 -42.41503906 75.84545898 C-43 78 -43 78 -44 79 C-46.35313555 79.07271741 -48.70833668 79.08370868 -51.0625 79.0625 C-52.99802734 79.04896484 -52.99802734 79.04896484 -54.97265625 79.03515625 C-55.97167969 79.02355469 -56.97070312 79.01195312 -58 79 C-55.28199949 66.12526074 -52.13449792 53.36567976 -48.90625 40.61132812 C-46.83808667 32.42913743 -44.85968975 24.23226172 -43 16 C-48.52056135 17.9152968 -51.53318235 20.22034777 -55.32421875 24.671875 C-56.15373047 25.32929687 -56.15373047 25.32929687 -57 26 C-59.20703125 25.703125 -59.20703125 25.703125 -61 25 C-61 21 -61 21 -59.453125 19.10546875 C-51.92377789 12.5506648 -42.73573056 4.78643869 -32.3125 4.9375 C-31.10013672 4.95103516 -31.10013672 4.95103516 -29.86328125 4.96484375 C-28.94095703 4.98224609 -28.94095703 4.98224609 -28 5 C-26.70867215 8.87398355 -27.58886428 11.81988786 -28.4375 15.6875 C-28.58509766 16.38939453 -28.73269531 17.09128906 -28.88476562 17.81445312 C-29.2495932 19.54444194 -29.62388689 21.27242963 -30 23 C-29.38125 22.18208984 -29.38125 22.18208984 -28.75 21.34765625 C-11.2527143 -1.50036191 -11.2527143 -1.50036191 0 0 Z " fill="#FF7E27" transform="translate(1218,584)"/>
</svg>
